<svg xmlns="http://www.w3.org/2000/svg" xmlns:xlink="http://www.w3.org/1999/xlink" width="218" height="36" viewBox="0 0 218 36">
  <defs>
    <clipPath id="clip-path">
      <rect id="사각형_1943" data-name="사각형 1943" width="217.293" height="33.735" fill="none"/>
    </clipPath>
  </defs>
  <g id="logo" transform="translate(13628 15806)">
    <rect id="사각형_1944" data-name="사각형 1944" width="218" height="36" transform="translate(-13628 -15806)" fill="#c53aff" opacity="0"/>
    <g id="그룹_495" data-name="그룹 495" transform="translate(-13628 -15805)">
      <g id="그룹_494" data-name="그룹 494" clip-path="url(#clip-path)">
        <path id="패스_538" data-name="패스 538" d="M6.977,37.385a3.393,3.393,0,0,1-.618-.059,3.026,3.026,0,0,1-1.175-.5L5.149,36.8a2.915,2.915,0,0,1-.85-1A2.742,2.742,0,0,1,4,34.686a2.844,2.844,0,0,1,.139-1.024,2.944,2.944,0,0,1,.387-.784,21,21,0,0,0,1.527-2.562,22,22,0,0,0,1.189-2.829,20.082,20.082,0,0,0,.764-3,17.814,17.814,0,0,0,.269-3.057v-.049h-.3a3.035,3.035,0,0,1-2.162-.76,2.846,2.846,0,0,1-.828-2.168,2.846,2.846,0,0,1,.828-2.168,3.034,3.034,0,0,1,2.162-.759h2.913a3.005,3.005,0,0,1,2.543.995,4.035,4.035,0,0,1,.666,2.5V20.24a33.126,33.126,0,0,1-.274,4.217,27.7,27.7,0,0,1-.874,4.192,26.912,26.912,0,0,1-1.523,4,21.437,21.437,0,0,1-2.206,3.661,2.624,2.624,0,0,1-.755.667,2.848,2.848,0,0,1-1,.366,2.961,2.961,0,0,1-.489.04" transform="translate(-3.108 -12.068)" fill="#fff"/>
        <path id="패스_539" data-name="패스 539" d="M7.783,13.31a2.184,2.184,0,0,1,1.832.642A3.24,3.24,0,0,1,10.1,15.91v1.221a32.121,32.121,0,0,1-.266,4.1,26.645,26.645,0,0,1-.846,4.056A25.877,25.877,0,0,1,7.516,29.16,20.429,20.429,0,0,1,5.4,32.668a1.725,1.725,0,0,1-.5.439,1.954,1.954,0,0,1-.689.25,2.07,2.07,0,0,1-.343.028,2.486,2.486,0,0,1-.456-.044,2.133,2.133,0,0,1-.83-.36,2.023,2.023,0,0,1-.6-.689,1.846,1.846,0,0,1-.2-.752,1.944,1.944,0,0,1,.094-.7,2.052,2.052,0,0,1,.266-.548,21.9,21.9,0,0,0,1.6-2.678,22.77,22.77,0,0,0,1.237-2.944,20.871,20.871,0,0,0,.8-3.132,18.611,18.611,0,0,0,.282-3.211V17.7c0-.209-.094-.313-.282-.313H4.87a2.172,2.172,0,0,1-1.55-.517,1.988,1.988,0,0,1-.548-1.519,1.989,1.989,0,0,1,.548-1.519,2.172,2.172,0,0,1,1.55-.517Zm0-1.782H4.87a3.894,3.894,0,0,0-2.774,1A3.713,3.713,0,0,0,.989,15.346,3.713,3.713,0,0,0,2.1,18.163a3.7,3.7,0,0,0,2.161.967,17.112,17.112,0,0,1-.235,2.1,19.167,19.167,0,0,1-.73,2.865,21.13,21.13,0,0,1-1.14,2.714A20.233,20.233,0,0,1,.688,29.26a3.843,3.843,0,0,0-.5,1.013A3.724,3.724,0,0,0,0,31.616a3.619,3.619,0,0,0,.39,1.473,3.791,3.791,0,0,0,1.1,1.306l.07.051a3.909,3.909,0,0,0,1.523.648,4.27,4.27,0,0,0,.778.073,3.844,3.844,0,0,0,.639-.053,3.729,3.729,0,0,0,1.308-.478,3.51,3.51,0,0,0,1.012-.9,22.317,22.317,0,0,0,2.3-3.812A27.8,27.8,0,0,0,10.7,25.79a28.555,28.555,0,0,0,.9-4.327,34.062,34.062,0,0,0,.281-4.331V15.91a4.874,4.874,0,0,0-.845-3.032,3.835,3.835,0,0,0-3.255-1.35" transform="translate(0 -8.96)" fill="#fff"/>
        <path id="패스_540" data-name="패스 540" d="M89.8,39.769a2.737,2.737,0,0,1-2.958-3.052V24.483h-.222V35.839a2.959,2.959,0,1,1-5.917,0V12.254a2.959,2.959,0,1,1,5.917,0v6.188h.222v-6.47a2.96,2.96,0,1,1,5.917,0V36.716A2.737,2.737,0,0,1,89.8,39.769" transform="translate(-62.721 -6.932)" fill="#fff"/>
        <path id="패스_541" data-name="패스 541" d="M86.69,6.7q2.067,0,2.067,2.161V33.608q0,2.161-2.067,2.161t-2.067-2.161V20.484h-2V32.731a2.068,2.068,0,1,1-4.135,0V9.146a2.068,2.068,0,1,1,4.135,0v7.079h2V8.864q0-2.161,2.067-2.161m0-1.782A3.65,3.65,0,0,0,83.5,6.435a3.762,3.762,0,0,0-2.954-1.2A3.6,3.6,0,0,0,76.7,9.146V32.731a3.6,3.6,0,0,0,3.85,3.912,3.867,3.867,0,0,0,2.738-.975,3.575,3.575,0,0,0,3.4,1.883,3.616,3.616,0,0,0,3.85-3.944V8.864A3.616,3.616,0,0,0,86.69,4.92" transform="translate(-59.613 -3.824)" fill="#fff"/>
        <path id="패스_542" data-name="패스 542" d="M40.677,39.337a2.991,2.991,0,0,1-1.708-.564,2.338,2.338,0,0,1-.923-1.057,2.822,2.822,0,0,1-.225-1.094,3.255,3.255,0,0,1,.152-.992,5.021,5.021,0,0,1,.287-.723l.016-.031A28.189,28.189,0,0,0,41.8,21.525v-.143h-.2a2.284,2.284,0,0,1-2.083-.929,3.659,3.659,0,0,1-.468-2,3.658,3.658,0,0,1,.468-2,2.284,2.284,0,0,1,2.083-.929h2.537a3.517,3.517,0,0,1,2.65.9,3.687,3.687,0,0,1,.84,2.619v1.19c0,1.339-.08,2.823-.239,4.411a41.833,41.833,0,0,1-.768,4.8,32.908,32.908,0,0,1-1.4,4.685,17.984,17.984,0,0,1-2.177,4.1,2.85,2.85,0,0,1-1.7,1.018,2.789,2.789,0,0,1-.655.079" transform="translate(-29.395 -12.068)" fill="#fff"/>
        <path id="패스_543" data-name="패스 543" d="M41.023,13.31a2.68,2.68,0,0,1,2,.626,2.843,2.843,0,0,1,.6,2v1.19q0,1.974-.235,4.323a40.78,40.78,0,0,1-.751,4.7,31.872,31.872,0,0,1-1.363,4.557,17.019,17.019,0,0,1-2.067,3.9,1.992,1.992,0,0,1-1.191.673,1.9,1.9,0,0,1-.447.054,2.113,2.113,0,0,1-1.213-.414,1.471,1.471,0,0,1-.6-.658,1.931,1.931,0,0,1-.157-.752,2.35,2.35,0,0,1,.11-.721,4.126,4.126,0,0,1,.235-.6,29.08,29.08,0,0,0,3.633-13.782V17.7a.277.277,0,0,0-.313-.313h-.783a1.466,1.466,0,0,1-1.331-.517,2.852,2.852,0,0,1-.329-1.519,2.854,2.854,0,0,1,.329-1.519,1.466,1.466,0,0,1,1.331-.517Zm0-1.782H38.486a3.108,3.108,0,0,0-2.835,1.342,4.5,4.5,0,0,0-.608,2.477,4.506,4.506,0,0,0,.607,2.476,2.9,2.9,0,0,0,2.138,1.294,27.545,27.545,0,0,1-.814,5.672,26.947,26.947,0,0,1-2.587,6.551l-.032.062a5.855,5.855,0,0,0-.34.854,4.135,4.135,0,0,0-.193,1.26,3.711,3.711,0,0,0,.295,1.44,3.206,3.206,0,0,0,1.249,1.452,3.86,3.86,0,0,0,2.2.714,4.085,4.085,0,0,0,3.074-1.455l.009-.012a18.869,18.869,0,0,0,2.286-4.306,33.758,33.758,0,0,0,1.439-4.811,42.806,42.806,0,0,0,.784-4.9c.162-1.618.244-3.132.244-4.5v-1.19a4.531,4.531,0,0,0-1.085-3.231,4.355,4.355,0,0,0-3.3-1.182" transform="translate(-26.287 -8.96)" fill="#fff"/>
        <path id="패스_544" data-name="패스 544" d="M167.319,100.311a5.4,5.4,0,0,1-.676-.044,13.209,13.209,0,0,1-2.66-.569,21.963,21.963,0,0,1-2.58-1.012,16.932,16.932,0,0,1-2.364-1.34c-.464-.317-.894-.64-1.283-.966-.389.326-.819.65-1.284.966a16.973,16.973,0,0,1-2.364,1.34,22.02,22.02,0,0,1-2.58,1.012,13.2,13.2,0,0,1-2.66.569,5.4,5.4,0,0,1-.676.044,3.941,3.941,0,0,1-1.443-.256,2.421,2.421,0,0,1-1.478-1.8A2.76,2.76,0,0,1,145.215,97a2.716,2.716,0,0,1,.442-1.041,2.926,2.926,0,0,1,.784-.762,2.674,2.674,0,0,1,1.03-.415,20.513,20.513,0,0,0,2.548-.731A15.072,15.072,0,0,0,152.354,93a6.183,6.183,0,0,0,1.576-1.213,1.5,1.5,0,0,0,.461-.986V89.672a2.656,2.656,0,0,1,.975-2.151,4.362,4.362,0,0,1,4.782,0,2.657,2.657,0,0,1,.975,2.151V90.8a1.5,1.5,0,0,0,.461.986A6.166,6.166,0,0,0,163.158,93a15.055,15.055,0,0,0,2.336,1.049,20.518,20.518,0,0,0,2.566.735,2.827,2.827,0,0,1,1.791,1.168,2.733,2.733,0,0,1,.392,2.293,2.427,2.427,0,0,1-1.481,1.812,3.943,3.943,0,0,1-1.443.256Z" transform="translate(-112.825 -67.467)" fill="#fff"/>
        <path id="패스_545" data-name="패스 545" d="M154.647,84.589a2.859,2.859,0,0,1,1.832.517,1.764,1.764,0,0,1,.642,1.457V87.69a2.359,2.359,0,0,0,.689,1.582,7.017,7.017,0,0,0,1.8,1.394,15.871,15.871,0,0,0,2.475,1.112,21.3,21.3,0,0,0,2.678.767,1.963,1.963,0,0,1,1.253.814,1.836,1.836,0,0,1,.251,1.566,1.564,1.564,0,0,1-.94,1.19,3.043,3.043,0,0,1-1.118.2,4.493,4.493,0,0,1-.573-.039,12.258,12.258,0,0,1-2.49-.532,21.006,21.006,0,0,1-2.475-.971,15.959,15.959,0,0,1-2.24-1.269,13.89,13.89,0,0,1-1.785-1.425,13.875,13.875,0,0,1-1.785,1.425,15.993,15.993,0,0,1-2.239,1.269,21.055,21.055,0,0,1-2.475.971,12.259,12.259,0,0,1-2.49.532,4.5,4.5,0,0,1-.574.039,3.039,3.039,0,0,1-1.118-.2,1.563,1.563,0,0,1-.94-1.19,1.885,1.885,0,0,1-.047-.862,1.833,1.833,0,0,1,.3-.7,2.032,2.032,0,0,1,.548-.532,1.778,1.778,0,0,1,.7-.282,21.3,21.3,0,0,0,2.678-.767,15.9,15.9,0,0,0,2.475-1.112,7.04,7.04,0,0,0,1.8-1.394,2.362,2.362,0,0,0,.689-1.582V86.563a1.764,1.764,0,0,1,.642-1.457,2.858,2.858,0,0,1,1.832-.517m0-1.782a4.579,4.579,0,0,0-2.95.911,3.506,3.506,0,0,0-1.306,2.845V87.69a.782.782,0,0,1-.233.391,5.309,5.309,0,0,1-1.35,1.032,14.182,14.182,0,0,1-2.2.986,19.592,19.592,0,0,1-2.421.7,3.561,3.561,0,0,0-1.353.549,3.805,3.805,0,0,0-1.02.995,3.586,3.586,0,0,0-.517,3.025,3.336,3.336,0,0,0,2.018,2.411,4.828,4.828,0,0,0,1.767.317,6.3,6.3,0,0,0,.778-.05,14.115,14.115,0,0,0,2.83-.606,22.945,22.945,0,0,0,2.685-1.054,17.841,17.841,0,0,0,2.489-1.411q.408-.278.781-.563.373.284.781.563a17.817,17.817,0,0,0,2.489,1.41,22.865,22.865,0,0,0,2.684,1.053,14.1,14.1,0,0,0,2.832.606,6.286,6.286,0,0,0,.777.05,4.834,4.834,0,0,0,1.767-.317A3.343,3.343,0,0,0,168,95.344a3.584,3.584,0,0,0-.533-3.02,3.749,3.749,0,0,0-2.34-1.523,19.6,19.6,0,0,1-2.443-.7,14.153,14.153,0,0,1-2.2-.985,5.3,5.3,0,0,1-1.35-1.031.783.783,0,0,1-.234-.392V86.563a3.508,3.508,0,0,0-1.306-2.844,4.583,4.583,0,0,0-2.951-.911" transform="translate(-109.716 -64.358)" fill="#fff"/>
        <path id="패스_546" data-name="패스 546" d="M138.007,27.706a3.555,3.555,0,0,1-2.219-.655,2.659,2.659,0,0,1-.958-2.241,2.66,2.66,0,0,1,.959-2.241,3.555,3.555,0,0,1,2.219-.655h4.783c.041-.231.079-.471.113-.719.072-.521.133-1.033.184-1.521s.086-.948.106-1.374.03-.8.03-1.07v-.894h-2.711a3.622,3.622,0,0,1-2.207-.63,2.606,2.606,0,0,1-.97-2.234,2.608,2.608,0,0,1,.97-2.234,3.625,3.625,0,0,1,2.208-.631h5.294a3.632,3.632,0,0,1,2.96,1.109q.09.109.17.225a2.224,2.224,0,0,1,.614-.7,3.623,3.623,0,0,1,2.208-.63h5.45a4.009,4.009,0,0,1,2.87.872,3.379,3.379,0,0,1,.934,2.556v1.848c0,.518-.022,1.1-.064,1.736s-.1,1.274-.176,1.907c-.076.648-.162,1.272-.256,1.855q-.044.274-.09.533h1.011a3.554,3.554,0,0,1,2.219.655,2.66,2.66,0,0,1,.958,2.241,2.66,2.66,0,0,1-.959,2.241,3.554,3.554,0,0,1-2.219.655Zm16.08-5.792q.055-.314.111-.659c.082-.514.154-1.025.215-1.517s.111-.972.154-1.444c.039-.443.059-.8.059-1.063v-.894h-2.868a3.669,3.669,0,0,1-2.147-.587v.228c0,.441-.011.963-.032,1.551s-.054,1.2-.1,1.814c-.043.641-.115,1.283-.212,1.909q-.052.339-.112.664Z" transform="translate(-104.791 -8.244)" fill="#fff"/>
        <path id="패스_547" data-name="패스 547" d="M154.1,8.389a3.236,3.236,0,0,1,2.255.626,2.524,2.524,0,0,1,.658,1.911v1.848q0,.752-.062,1.676t-.172,1.864q-.11.94-.251,1.817t-.3,1.566h2.1a2.686,2.686,0,0,1,1.676.47,1.816,1.816,0,0,1,.611,1.535A1.815,1.815,0,0,1,160,23.236a2.686,2.686,0,0,1-1.676.47H134.9a2.685,2.685,0,0,1-1.676-.47,1.815,1.815,0,0,1-.611-1.535,1.816,1.816,0,0,1,.611-1.535,2.685,2.685,0,0,1,1.676-.47h5.513q.156-.689.266-1.488t.188-1.55q.078-.752.11-1.425t.031-1.112V12.743a.486.486,0,0,0-.078-.329.486.486,0,0,0-.329-.078H137.4a2.753,2.753,0,0,1-1.676-.454,1.77,1.77,0,0,1-.611-1.519,1.772,1.772,0,0,1,.611-1.519,2.756,2.756,0,0,1,1.676-.454H142.7a2.8,2.8,0,0,1,2.271.783,3.159,3.159,0,0,1,.642,2.067v1.629q0,.657-.031,1.519t-.094,1.785q-.063.924-.2,1.832t-.329,1.691h6.766q.125-.626.251-1.409t.219-1.55q.094-.767.157-1.472t.063-1.143V12.743a.488.488,0,0,0-.078-.329.488.488,0,0,0-.329-.078h-3.351a2.752,2.752,0,0,1-1.676-.454,1.77,1.77,0,0,1-.611-1.519,1.771,1.771,0,0,1,.611-1.519,2.755,2.755,0,0,1,1.676-.454Zm0-1.782h-5.45a4.489,4.489,0,0,0-2.739.806q-.057.043-.116.091a4.919,4.919,0,0,0-3.1-.9H137.4a4.488,4.488,0,0,0-2.738.805,3.464,3.464,0,0,0-1.331,2.95,3.461,3.461,0,0,0,1.33,2.95,4.487,4.487,0,0,0,2.739.806h1.82v0c0,.259-.01.606-.03,1.03-.019.408-.053.854-.1,1.323s-.106.945-.174,1.44H134.9a4.419,4.419,0,0,0-2.762.839A3.513,3.513,0,0,0,130.83,21.7a3.513,3.513,0,0,0,1.307,2.948,4.418,4.418,0,0,0,2.762.839h23.429a4.416,4.416,0,0,0,2.763-.84A3.511,3.511,0,0,0,162.4,21.7a3.512,3.512,0,0,0-1.307-2.948,4.4,4.4,0,0,0-2.726-.839c.066-.447.128-.914.184-1.393.076-.649.136-1.3.18-1.95s.067-1.26.067-1.8V10.926a4.229,4.229,0,0,0-1.21-3.2A4.832,4.832,0,0,0,154.1,6.607m-7,11.307c.074-.535.13-1.078.167-1.62.042-.624.075-1.244.1-1.841q.009-.245.015-.474a5.54,5.54,0,0,0,1.273.139h1.976v0c0,.236-.019.568-.056.986-.041.46-.092.936-.15,1.413-.055.453-.121.921-.2,1.394Z" transform="translate(-101.682 -5.135)" fill="#fff"/>
        <path id="패스_548" data-name="패스 548" d="M265.38,12.987a3.774,3.774,0,0,1-2.183-.581,2.512,2.512,0,0,1-.995-2.22,2.512,2.512,0,0,1,.995-2.221,3.776,3.776,0,0,1,2.183-.581h3.651V7.052a2.86,2.86,0,0,1,.954-2.291,3.812,3.812,0,0,1,4.571,0,2.869,2.869,0,0,1,.955,2.291v.331h3.337a3.775,3.775,0,0,1,2.183.581,2.512,2.512,0,0,1,.995,2.221,2.511,2.511,0,0,1-.995,2.22,3.772,3.772,0,0,1-2.183.581Z" transform="translate(-203.786 -3.109)" fill="#fff"/>
        <path id="패스_549" data-name="패스 549" d="M269.163,1.782a2.542,2.542,0,0,1,1.707.548,2,2,0,0,1,.642,1.613V5.165h4.228a2.906,2.906,0,0,1,1.676.423,1.683,1.683,0,0,1,.611,1.488,1.682,1.682,0,0,1-.611,1.488,2.906,2.906,0,0,1-1.676.423H262.272a2.905,2.905,0,0,1-1.676-.423,1.683,1.683,0,0,1-.611-1.488,1.683,1.683,0,0,1,.611-1.488,2.905,2.905,0,0,1,1.676-.423h4.542V3.943a2,2,0,0,1,.642-1.613,2.541,2.541,0,0,1,1.707-.548m0-1.782A4.278,4.278,0,0,0,266.3.974a3.616,3.616,0,0,0-1.236,2.408h-2.791a4.639,4.639,0,0,0-2.69.739A3.363,3.363,0,0,0,258.2,7.076a3.363,3.363,0,0,0,1.378,2.953,4.639,4.639,0,0,0,2.691.74H275.74a4.638,4.638,0,0,0,2.691-.74,3.362,3.362,0,0,0,1.378-2.953,3.362,3.362,0,0,0-1.379-2.953,4.638,4.638,0,0,0-2.69-.74h-2.477A3.617,3.617,0,0,0,272.028.975,4.28,4.28,0,0,0,269.163,0" transform="translate(-200.677)" fill="#fff"/>
        <path id="패스_550" data-name="패스 550" d="M277.625,53.142a13.5,13.5,0,0,1-3.237-.371,8.776,8.776,0,0,1-2.7-1.136,5.7,5.7,0,0,1-1.907-2.039,6.392,6.392,0,0,1,0-5.779,5.713,5.713,0,0,1,1.907-2.039,8.8,8.8,0,0,1,2.7-1.136,14.321,14.321,0,0,1,6.473,0,8.81,8.81,0,0,1,2.7,1.136,5.72,5.72,0,0,1,1.907,2.038,6.392,6.392,0,0,1,0,5.78,5.711,5.711,0,0,1-1.907,2.039,8.791,8.791,0,0,1-2.7,1.136,13.512,13.512,0,0,1-3.236.371m0-7.486a4.178,4.178,0,0,0-.865.09,2.08,2.08,0,0,0-.634.237,1.109,1.109,0,0,0-.36.342.777.777,0,0,0,0,.764,1.106,1.106,0,0,0,.36.342,2.059,2.059,0,0,0,.635.237,4.182,4.182,0,0,0,1.728,0,2.071,2.071,0,0,0,.636-.237,1.112,1.112,0,0,0,.36-.342.777.777,0,0,0,0-.765,1.113,1.113,0,0,0-.359-.341,2.087,2.087,0,0,0-.636-.237,4.18,4.18,0,0,0-.863-.09" transform="translate(-209.14 -31.3)" fill="#fff"/>
        <path id="패스_551" data-name="패스 551" d="M274.516,38.054a12.588,12.588,0,0,1,3.022.344,7.889,7.889,0,0,1,2.428,1.018,4.813,4.813,0,0,1,1.613,1.723,5.506,5.506,0,0,1,0,4.918,4.8,4.8,0,0,1-1.613,1.723,7.867,7.867,0,0,1-2.428,1.018,13.434,13.434,0,0,1-6.045,0,7.859,7.859,0,0,1-2.428-1.018,4.8,4.8,0,0,1-1.613-1.723,5.506,5.506,0,0,1,0-4.918,4.808,4.808,0,0,1,1.613-1.723,7.88,7.88,0,0,1,2.428-1.018,12.582,12.582,0,0,1,3.023-.344m0,7.486a5.014,5.014,0,0,0,1.049-.11,2.938,2.938,0,0,0,.908-.344,2.005,2.005,0,0,0,.642-.611,1.661,1.661,0,0,0,0-1.754,2,2,0,0,0-.642-.611,2.949,2.949,0,0,0-.908-.345,5.087,5.087,0,0,0-2.1,0,2.945,2.945,0,0,0-.908.345,2,2,0,0,0-.642.611,1.661,1.661,0,0,0,0,1.754,2,2,0,0,0,.642.611,2.934,2.934,0,0,0,.908.344,5.009,5.009,0,0,0,1.049.11m0-9.268a14.416,14.416,0,0,0-3.45.4,9.688,9.688,0,0,0-2.973,1.255,6.6,6.6,0,0,0-2.2,2.354,7.279,7.279,0,0,0,0,6.642,6.588,6.588,0,0,0,2.2,2.354,9.662,9.662,0,0,0,2.973,1.255,15.208,15.208,0,0,0,6.9,0,9.668,9.668,0,0,0,2.973-1.255,6.592,6.592,0,0,0,2.2-2.354,7.278,7.278,0,0,0,0-6.641,6.6,6.6,0,0,0-2.2-2.355,9.694,9.694,0,0,0-2.973-1.255,14.432,14.432,0,0,0-3.451-.4m-.963,7.327a1.429,1.429,0,0,1,.285-.09,3.3,3.3,0,0,1,1.358,0,1.376,1.376,0,0,1,.283.089,1.381,1.381,0,0,1-.282.088,3.269,3.269,0,0,1-.68.071,3.214,3.214,0,0,1-.677-.07,1.394,1.394,0,0,1-.286-.089" transform="translate(-206.031 -28.191)" fill="#fff"/>
        <path id="패스_552" data-name="패스 552" d="M353.609,31.72a3.572,3.572,0,0,1-2.376-.805,2.966,2.966,0,0,1-1.021-2.373V12.066a2.919,2.919,0,0,1,1.03-2.364,3.971,3.971,0,0,1,4.734,0,2.917,2.917,0,0,1,1.03,2.364v5h1.27a3.406,3.406,0,0,1,2.185.7,2.737,2.737,0,0,1,.961,2.262,2.735,2.735,0,0,1-.961,2.262,3.4,3.4,0,0,1-2.185.7h-1.27v5.561a2.966,2.966,0,0,1-1.021,2.373,3.571,3.571,0,0,1-2.376.8" transform="translate(-272.188 -6.933)" fill="#fff"/>
        <path id="패스_553" data-name="패스 553" d="M350.5,6.7a2.742,2.742,0,0,1,1.8.58,2.045,2.045,0,0,1,.7,1.676v5.889h2.161a2.531,2.531,0,0,1,1.629.5,1.886,1.886,0,0,1,.626,1.566,1.884,1.884,0,0,1-.626,1.566,2.527,2.527,0,0,1-1.629.5h-2.161v6.452a2.091,2.091,0,0,1-.7,1.692,3.023,3.023,0,0,1-3.6,0,2.091,2.091,0,0,1-.7-1.692V8.958a2.045,2.045,0,0,1,.7-1.676,2.742,2.742,0,0,1,1.8-.58m0-1.782a4.487,4.487,0,0,0-2.933.985,3.783,3.783,0,0,0-1.355,3.053V25.433a3.832,3.832,0,0,0,1.337,3.054,4.8,4.8,0,0,0,5.9,0,3.83,3.83,0,0,0,1.337-3.053v-4.67h.379a4.27,4.27,0,0,0,2.742-.892,3.6,3.6,0,0,0,1.3-2.958,3.6,3.6,0,0,0-1.295-2.958,4.274,4.274,0,0,0-2.743-.892h-.379V8.958a3.782,3.782,0,0,0-1.355-3.052A4.487,4.487,0,0,0,350.5,4.92" transform="translate(-269.079 -3.824)" fill="#fff"/>
        <path id="패스_554" data-name="패스 554" d="M286.72,107.171a3.843,3.843,0,0,1-2.8-.88,3.687,3.687,0,0,1-.911-2.768V99.358a3.087,3.087,0,0,1,1-2.42,3.876,3.876,0,0,1,4.849,0,3.089,3.089,0,0,1,1,2.42v1.9h12.672a3.053,3.053,0,0,1,2.178.776,3.247,3.247,0,0,1,0,4.365,3.056,3.056,0,0,1-2.178.776Z" transform="translate(-219.958 -74.679)" fill="#fff"/>
        <path id="패스_555" data-name="패스 555" d="M283.329,93.869a2.656,2.656,0,0,1,1.832.626,2.226,2.226,0,0,1,.7,1.754v2.255a.413.413,0,0,0,.532.532h13.03A2.189,2.189,0,0,1,301,99.57a2.371,2.371,0,0,1,0,3.07,2.191,2.191,0,0,1-1.566.532H283.612a3.064,3.064,0,0,1-2.177-.626,2.9,2.9,0,0,1-.642-2.13V96.25a2.225,2.225,0,0,1,.7-1.754,2.656,2.656,0,0,1,1.832-.626m0-1.782a4.393,4.393,0,0,0-3.016,1.077,3.971,3.971,0,0,0-1.3,3.086v4.166a4.572,4.572,0,0,0,1.179,3.405,4.669,4.669,0,0,0,3.422,1.133h15.818a3.931,3.931,0,0,0,2.79-1.019,4.131,4.131,0,0,0,0-5.662,3.929,3.929,0,0,0-2.789-1.019h-11.78V96.25a3.97,3.97,0,0,0-1.3-3.086,4.394,4.394,0,0,0-3.017-1.077" transform="translate(-216.849 -71.571)" fill="#fff"/>
        <path id="패스_556" data-name="패스 556" d="M428.042,36.9c-2.594,0-4.023-1.418-4.023-3.992V17.877a2.862,2.862,0,0,1,.954-2.291,3.812,3.812,0,0,1,4.571,0,2.87,2.87,0,0,1,.955,2.291v3.494h3.762V17.877a2.86,2.86,0,0,1,.955-2.291,3.811,3.811,0,0,1,4.571,0,2.87,2.87,0,0,1,.955,2.291V32.912c0,2.574-1.429,3.992-4.023,3.992Zm6.219-9.679H430.5V31.05h3.762Z" transform="translate(-329.551 -11.522)" fill="#fff"/>
        <path id="패스_557" data-name="패스 557" d="M434.393,12.607a2.542,2.542,0,0,1,1.707.548,2.005,2.005,0,0,1,.642,1.613V29.8q0,3.1-3.132,3.1h-8.676q-3.132,0-3.132-3.1V14.768a2,2,0,0,1,.642-1.613,2.932,2.932,0,0,1,3.414,0,2,2,0,0,1,.642,1.613v4.385h5.544V14.768a2,2,0,0,1,.642-1.613,2.54,2.54,0,0,1,1.707-.548m-7.361,16.225h4.479q.344,0,.438-.11a.749.749,0,0,0,.094-.454V23.226H426.5v5.043a.749.749,0,0,0,.094.454q.094.11.439.11m7.361-18.007a4.276,4.276,0,0,0-2.864.975,3.732,3.732,0,0,0-1.267,2.969v2.6h-1.979v-2.6a3.734,3.734,0,0,0-1.266-2.968,4.7,4.7,0,0,0-5.73,0,3.732,3.732,0,0,0-1.267,2.969V29.8c0,3.058,1.837,4.883,4.915,4.883h8.676c3.077,0,4.915-1.825,4.915-4.883V14.768a3.734,3.734,0,0,0-1.266-2.968,4.28,4.28,0,0,0-2.865-.976m-6.111,14.183h1.979V27.05h-1.979Z" transform="translate(-326.442 -8.413)" fill="#fff"/>
        <path id="패스_558" data-name="패스 558" d="M511.348,39.769a3.575,3.575,0,0,1-2.376-.8,2.969,2.969,0,0,1-1.021-2.373V12.1a2.968,2.968,0,0,1,1.021-2.372,3.907,3.907,0,0,1,4.752,0,2.967,2.967,0,0,1,1.021,2.373v5.968h1.333a3.241,3.241,0,0,1,2.2.752,2.9,2.9,0,0,1,.916,2.3,2.861,2.861,0,0,1-.916,2.269,3.238,3.238,0,0,1-2.2.752h-1.333V36.591a2.968,2.968,0,0,1-1.021,2.373,3.574,3.574,0,0,1-2.376.805" transform="translate(-394.784 -6.932)" fill="#fff"/>
        <path id="패스_559" data-name="패스 559" d="M508.239,6.7a2.7,2.7,0,0,1,1.8.6,2.091,2.091,0,0,1,.7,1.691v6.86h2.224a2.369,2.369,0,0,1,1.613.532,2.048,2.048,0,0,1,.611,1.629,2.006,2.006,0,0,1-.611,1.6,2.366,2.366,0,0,1-1.613.532h-2.224V33.483a2.092,2.092,0,0,1-.7,1.692,3.023,3.023,0,0,1-3.6,0,2.093,2.093,0,0,1-.7-1.692V8.989a2.092,2.092,0,0,1,.7-1.691,2.7,2.7,0,0,1,1.8-.6m0-1.782a4.44,4.44,0,0,0-2.95,1.015,3.833,3.833,0,0,0-1.338,3.054V33.483a3.834,3.834,0,0,0,1.337,3.053,4.795,4.795,0,0,0,5.9,0,3.835,3.835,0,0,0,1.337-3.054V21.922h.442a4.1,4.1,0,0,0,2.785-.972,3.725,3.725,0,0,0,1.221-2.94,3.76,3.76,0,0,0-1.221-2.972,4.1,4.1,0,0,0-2.785-.972h-.442V8.989a3.832,3.832,0,0,0-1.337-3.053,4.439,4.439,0,0,0-2.951-1.016" transform="translate(-391.675 -3.824)" fill="#fff"/>
        <path id="패스_560" data-name="패스 560" d="M639.285,39.769a3.575,3.575,0,0,1-2.376-.8,2.969,2.969,0,0,1-1.021-2.373V12.1a2.968,2.968,0,0,1,1.021-2.372,3.907,3.907,0,0,1,4.752,0,2.967,2.967,0,0,1,1.021,2.373V18h1.333a3.241,3.241,0,0,1,2.2.752,2.9,2.9,0,0,1,.916,2.3,2.861,2.861,0,0,1-.916,2.269,3.239,3.239,0,0,1-2.2.751h-1.333V36.591a2.968,2.968,0,0,1-1.021,2.373,3.573,3.573,0,0,1-2.376.805" transform="translate(-494.217 -6.932)" fill="#fff"/>
        <path id="패스_561" data-name="패스 561" d="M636.176,6.7a2.7,2.7,0,0,1,1.8.6,2.091,2.091,0,0,1,.7,1.691v6.8h2.224a2.368,2.368,0,0,1,1.613.532,2.047,2.047,0,0,1,.611,1.629,2.006,2.006,0,0,1-.611,1.6,2.367,2.367,0,0,1-1.613.532h-2.224V33.483a2.092,2.092,0,0,1-.7,1.692,3.023,3.023,0,0,1-3.6,0,2.093,2.093,0,0,1-.7-1.692V8.989a2.092,2.092,0,0,1,.7-1.691,2.7,2.7,0,0,1,1.8-.6m0-1.782a4.44,4.44,0,0,0-2.95,1.015,3.833,3.833,0,0,0-1.338,3.054V33.483a3.834,3.834,0,0,0,1.336,3.053,4.8,4.8,0,0,0,5.9,0,3.835,3.835,0,0,0,1.337-3.054V21.859h.442a4.1,4.1,0,0,0,2.785-.972,3.725,3.725,0,0,0,1.221-2.94,3.76,3.76,0,0,0-1.221-2.972A4.1,4.1,0,0,0,640.906,14h-.442V8.989a3.832,3.832,0,0,0-1.337-3.053,4.439,4.439,0,0,0-2.951-1.016" transform="translate(-491.108 -3.824)" fill="#fff"/>
        <path id="패스_562" data-name="패스 562" d="M557.416,37.137c-2.615,0-4.055-1.418-4.055-3.992V19.52c0-2.574,1.44-3.992,4.055-3.992h9.365a2.993,2.993,0,1,1,0,5.98h-6.689V31.22h.957c.234,0,.454.005.672.005,1.077,0,2.149-.043,3.186-.128,1.251-.1,2.432-.246,3.51-.429a4.009,4.009,0,0,1,.676-.06,3.02,3.02,0,0,1,1.467.36,2.648,2.648,0,0,1,1.293,1.935,2.843,2.843,0,0,1-.523,2.39,3.136,3.136,0,0,1-1.987,1.147,41.257,41.257,0,0,1-4.235.539c-1.4.1-2.905.158-4.467.158Z" transform="translate(-430.077 -12.068)" fill="#fff"/>
        <path id="패스_563" data-name="패스 563" d="M563.672,13.31a2.1,2.1,0,1,1,0,4.2h-7.048a.671.671,0,0,0-.438.094.676.676,0,0,0-.094.439V28.469a.413.413,0,0,0,.532.534h1.316q.338.005.672.005,1.656,0,3.259-.131,1.927-.156,3.586-.438a3.121,3.121,0,0,1,.527-.047,2.13,2.13,0,0,1,1.039.251,1.793,1.793,0,0,1,.846,1.324,1.962,1.962,0,0,1-.345,1.664,2.261,2.261,0,0,1-1.441.824,40.277,40.277,0,0,1-4.15.529q-2.083.155-4.4.155h-3.226q-3.164,0-3.164-3.1V16.411q0-3.1,3.164-3.1Zm0-1.782h-9.365c-3.1,0-4.946,1.826-4.946,4.883V30.036c0,3.058,1.849,4.883,4.946,4.883h3.226c1.584,0,3.109-.054,4.533-.16a42.275,42.275,0,0,0,4.328-.551,4.056,4.056,0,0,0,2.524-1.467,3.706,3.706,0,0,0,.7-3.106,3.519,3.519,0,0,0-1.741-2.556,3.9,3.9,0,0,0-1.9-.47,4.9,4.9,0,0,0-.829.073c-1.048.178-2.2.319-3.428.418-1.014.083-2.062.125-3.114.125q-.321,0-.644,0h-.094V19.29h5.8a3.675,3.675,0,0,0,3.881-3.881,3.675,3.675,0,0,0-3.881-3.881" transform="translate(-426.968 -8.96)" fill="#fff"/>
        <path id="패스_564" data-name="패스 564" d="M725.84,27.076a4.3,4.3,0,0,1-2.94-.944,3.713,3.713,0,0,1-1.115-2.923V15.128a2.928,2.928,0,0,1,.983-2.32,3.781,3.781,0,0,1,4.639,0,2.929,2.929,0,0,1,.984,2.32v.393h9.4v-.393a2.928,2.928,0,0,1,.983-2.32,3.446,3.446,0,0,1,2.32-.8,3.383,3.383,0,0,1,2.312.8,2.936,2.936,0,0,1,.96,2.313v8.081c0,2.494-1.429,3.867-4.023,3.867ZM737.791,21h-9.4v.535h9.4Z" transform="translate(-560.977 -9.337)" fill="#fff"/>
        <path id="패스_565" data-name="패스 565" d="M737.985,9.8a2.51,2.51,0,0,1,1.723.579,2.076,2.076,0,0,1,.658,1.644V20.1q0,2.976-3.132,2.976h-14.5a3.435,3.435,0,0,1-2.349-.72,2.86,2.86,0,0,1-.814-2.255V12.019a2.052,2.052,0,0,1,.673-1.644,2.9,2.9,0,0,1,3.477,0,2.052,2.052,0,0,1,.673,1.644V13.3h11.182V12.019a2.051,2.051,0,0,1,.673-1.644,2.57,2.57,0,0,1,1.738-.579m-13.218,9.522H735.2a.507.507,0,0,0,.313-.061.487.487,0,0,0,.063-.309V17H724.391v1.947a.483.483,0,0,0,.063.309.5.5,0,0,0,.313.061m13.218-11.3a4.311,4.311,0,0,0-2.9,1.011,3.707,3.707,0,0,0-1.268,2.5h-7.668a3.708,3.708,0,0,0-1.267-2.5,4.668,4.668,0,0,0-5.8,0,3.792,3.792,0,0,0-1.293,3V20.1a4.559,4.559,0,0,0,1.416,3.591,5.153,5.153,0,0,0,3.53,1.167h14.5c3.077,0,4.915-1.779,4.915-4.758V12.019a3.817,3.817,0,0,0-1.262-2.981,4.248,4.248,0,0,0-2.9-1.025" transform="translate(-557.868 -6.228)" fill="#fff"/>
        <path id="패스_566" data-name="패스 566" d="M720.509,96.261a3.636,3.636,0,0,1-2.4-.772,2.973,2.973,0,0,1-.992-2.406V87.647h-8.349a3.267,3.267,0,0,1-2.255-.76,3.313,3.313,0,0,1,0-4.522,3.268,3.268,0,0,1,2.254-.76h23.492a3.27,3.27,0,0,1,2.254.759,3.313,3.313,0,0,1,0,4.523,3.269,3.269,0,0,1-2.254.76h-8.349v5.436a2.974,2.974,0,0,1-.992,2.406,3.638,3.638,0,0,1-2.4.772" transform="translate(-548.411 -63.424)" fill="#fff"/>
        <path id="패스_567" data-name="패스 567" d="M729.147,79.387a2.4,2.4,0,0,1,1.66.533,2.441,2.441,0,0,1,0,3.195,2.4,2.4,0,0,1-1.66.533h-9.24v6.327a2.121,2.121,0,0,1-.673,1.723,3.26,3.26,0,0,1-3.665,0,2.12,2.12,0,0,1-.674-1.723V83.647h-9.24a2.4,2.4,0,0,1-1.66-.533,2.442,2.442,0,0,1,0-3.195,2.4,2.4,0,0,1,1.66-.533Zm0-1.782H705.655a4.127,4.127,0,0,0-2.849.987,4.194,4.194,0,0,0,0,5.851,4.124,4.124,0,0,0,2.848.986h7.458v4.545a3.834,3.834,0,0,0,1.312,3.09,5.013,5.013,0,0,0,5.952,0,3.836,3.836,0,0,0,1.312-3.09V85.43h7.458A4.128,4.128,0,0,0,732,84.443a4.195,4.195,0,0,0,0-5.85,4.131,4.131,0,0,0-2.85-.988" transform="translate(-545.303 -60.315)" fill="#fff"/>
        <path id="패스_568" data-name="패스 568" d="M924.4,30.78a3.572,3.572,0,0,1-2.376-.805A2.966,2.966,0,0,1,921,27.6V12.066A2.918,2.918,0,0,1,922.029,9.7a3.972,3.972,0,0,1,4.734,0,2.918,2.918,0,0,1,1.03,2.364V15.5h1.27a3.406,3.406,0,0,1,2.185.7,2.738,2.738,0,0,1,.961,2.263,2.735,2.735,0,0,1-.961,2.262,3.4,3.4,0,0,1-2.185.7h-1.27V27.6a2.966,2.966,0,0,1-1.021,2.373,3.571,3.571,0,0,1-2.376.8" transform="translate(-715.809 -6.933)" fill="#fff"/>
        <path id="패스_569" data-name="패스 569" d="M921.288,6.7a2.742,2.742,0,0,1,1.8.58,2.045,2.045,0,0,1,.7,1.676V13.28h2.161a2.531,2.531,0,0,1,1.629.5,1.887,1.887,0,0,1,.626,1.566,1.885,1.885,0,0,1-.626,1.566,2.529,2.529,0,0,1-1.629.5h-2.161v7.079a2.09,2.09,0,0,1-.7,1.691,3.023,3.023,0,0,1-3.6,0,2.091,2.091,0,0,1-.7-1.691V8.958a2.045,2.045,0,0,1,.7-1.676,2.742,2.742,0,0,1,1.8-.58m0-1.782a4.487,4.487,0,0,0-2.933.985A3.783,3.783,0,0,0,917,8.958V24.494a3.832,3.832,0,0,0,1.337,3.054,4.8,4.8,0,0,0,5.9,0,3.83,3.83,0,0,0,1.337-3.053V19.2h.379a4.27,4.27,0,0,0,2.742-.891,3.6,3.6,0,0,0,1.3-2.958A3.6,3.6,0,0,0,928.7,12.39a4.274,4.274,0,0,0-2.743-.892h-.379V8.958a3.782,3.782,0,0,0-1.355-3.052,4.487,4.487,0,0,0-2.933-.986" transform="translate(-712.7 -3.824)" fill="#fff"/>
        <path id="패스_570" data-name="패스 570" d="M837.088,28.138a3.658,3.658,0,0,1-.491-.033,2.8,2.8,0,0,1-2.065-1.356,2.92,2.92,0,0,1-.378-2.423,3.735,3.735,0,0,1,1.535-2,15.283,15.283,0,0,0,3.485-3.347,6.042,6.042,0,0,0,1.178-3.66v-1.66A2.772,2.772,0,0,1,841.4,11.3a4.326,4.326,0,0,1,4.7,0,2.773,2.773,0,0,1,1.046,2.358v1.66a5.72,5.72,0,0,0,1.109,3.527,12.65,12.65,0,0,0,3.4,3.021,3.614,3.614,0,0,1,1.565,1.989,2.929,2.929,0,0,1-.383,2.431,2.748,2.748,0,0,1-2.075,1.334,3.884,3.884,0,0,1-.455.027,4.258,4.258,0,0,1-1.912-.475,17.117,17.117,0,0,1-2.882-1.87,13.318,13.318,0,0,1-1.74-1.667,17.355,17.355,0,0,1-1.753,1.861,13.749,13.749,0,0,1-3.032,2.142,4.025,4.025,0,0,1-1.9.5" transform="translate(-648.222 -8.244)" fill="#fff"/>
        <path id="패스_571" data-name="패스 571" d="M840.634,8.389a2.954,2.954,0,0,1,1.817.517,1.922,1.922,0,0,1,.689,1.645v1.66a6.639,6.639,0,0,0,1.284,4.056,13.459,13.459,0,0,0,3.633,3.242A2.728,2.728,0,0,1,849.248,21a2.027,2.027,0,0,1-.282,1.707,1.857,1.857,0,0,1-1.425.924,2.932,2.932,0,0,1-.351.021,3.359,3.359,0,0,1-1.513-.381,16.133,16.133,0,0,1-2.725-1.77,12.457,12.457,0,0,1-2.318-2.428,15.789,15.789,0,0,1-2.334,2.663,12.8,12.8,0,0,1-2.835,2,3.153,3.153,0,0,1-1.493.4,2.756,2.756,0,0,1-.371-.025,1.9,1.9,0,0,1-1.425-.94,2.023,2.023,0,0,1-.282-1.707,2.862,2.862,0,0,1,1.19-1.519,16.111,16.111,0,0,0,3.7-3.555,6.968,6.968,0,0,0,1.347-4.182v-1.66a1.921,1.921,0,0,1,.689-1.645,2.952,2.952,0,0,1,1.817-.517m0-1.782a4.694,4.694,0,0,0-2.886.873,3.629,3.629,0,0,0-1.4,3.07v1.66a5.181,5.181,0,0,1-1.009,3.138,14.411,14.411,0,0,1-3.285,3.146,4.6,4.6,0,0,0-1.869,2.473,3.792,3.792,0,0,0,.48,3.147,3.662,3.662,0,0,0,2.7,1.764,4.507,4.507,0,0,0,.609.041,4.918,4.918,0,0,0,2.317-.6,14.649,14.649,0,0,0,3.217-2.273q.623-.573,1.178-1.183a14.217,14.217,0,0,0,1.156,1.03,18,18,0,0,0,3.026,1.963l.013.007a5.139,5.139,0,0,0,2.31.569,4.731,4.731,0,0,0,.561-.033,3.614,3.614,0,0,0,2.728-1.752,3.8,3.8,0,0,0,.48-3.146,4.468,4.468,0,0,0-1.913-2.473l-.028-.018a11.777,11.777,0,0,1-3.161-2.8,4.861,4.861,0,0,1-.935-3v-1.66a3.63,3.63,0,0,0-1.4-3.07,4.7,4.7,0,0,0-2.887-.874" transform="translate(-645.107 -5.135)" fill="#fff"/>
        <path id="패스_572" data-name="패스 572" d="M857.539,101.707a3.909,3.909,0,0,1-2.807-.872,3.692,3.692,0,0,1-.934-2.775V92.328a3.064,3.064,0,0,1,1.027-2.427,3.834,3.834,0,0,1,4.8,0,3.064,3.064,0,0,1,1.027,2.427v3.463h12.828a3.054,3.054,0,0,1,2.178.776,3.247,3.247,0,0,1,0,4.365,3.056,3.056,0,0,1-2.178.776Z" transform="translate(-663.579 -69.215)" fill="#fff"/>
        <path id="패스_573" data-name="패스 573" d="M854.117,86.838a2.671,2.671,0,0,1,1.817.627,2.2,2.2,0,0,1,.72,1.754V93.04a.413.413,0,0,0,.532.532h13.187a2.189,2.189,0,0,1,1.566.532,2.372,2.372,0,0,1,0,3.07,2.192,2.192,0,0,1-1.566.532H854.43a3.126,3.126,0,0,1-2.193-.626,2.858,2.858,0,0,1-.658-2.13V89.219a2.2,2.2,0,0,1,.721-1.754,2.669,2.669,0,0,1,1.817-.627m0-1.782a4.412,4.412,0,0,0-2.986,1.064,3.947,3.947,0,0,0-1.333,3.1v5.732a4.527,4.527,0,0,0,1.211,3.42,4.734,4.734,0,0,0,3.422,1.118h15.943a3.931,3.931,0,0,0,2.789-1.019,4.131,4.131,0,0,0,0-5.662,3.93,3.93,0,0,0-2.789-1.018H858.437V89.219a3.949,3.949,0,0,0-1.332-3.1,4.475,4.475,0,0,0-2.987-1.064" transform="translate(-660.47 -66.106)" fill="#fff"/>
        <path id="패스_574" data-name="패스 574" d="M11.087,18.464a2.172,2.172,0,0,1-1.55-.517,1.988,1.988,0,0,1-.548-1.519,1.988,1.988,0,0,1,.548-1.519,2.172,2.172,0,0,1,1.55-.517H14a2.184,2.184,0,0,1,1.832.642,3.239,3.239,0,0,1,.485,1.958v1.222a32.126,32.126,0,0,1-.266,4.1,26.678,26.678,0,0,1-.846,4.056,25.908,25.908,0,0,1-1.472,3.868,20.429,20.429,0,0,1-2.115,3.508,1.725,1.725,0,0,1-.5.439,1.954,1.954,0,0,1-.689.25,2.284,2.284,0,0,1-.8-.016,2.137,2.137,0,0,1-.83-.36,2.02,2.02,0,0,1-.6-.689,1.846,1.846,0,0,1-.2-.752,1.944,1.944,0,0,1,.094-.7,2.042,2.042,0,0,1,.266-.548,21.9,21.9,0,0,0,1.6-2.678A22.8,22.8,0,0,0,11.2,25.747a20.868,20.868,0,0,0,.8-3.132,18.613,18.613,0,0,0,.282-3.211v-.626q0-.313-.282-.313ZM15.88,33.28a28.605,28.605,0,0,0,2.756-6.985,28.513,28.513,0,0,0,.877-6.8v-.72a.277.277,0,0,0-.313-.313h-.783a1.466,1.466,0,0,1-1.331-.517,2.852,2.852,0,0,1-.329-1.519,2.853,2.853,0,0,1,.329-1.519,1.466,1.466,0,0,1,1.331-.517h2.537a2.68,2.68,0,0,1,2,.626,2.843,2.843,0,0,1,.6,2v1.19q0,1.973-.235,4.323a40.772,40.772,0,0,1-.751,4.7A31.864,31.864,0,0,1,21.2,31.792a17.011,17.011,0,0,1-2.067,3.9,2.154,2.154,0,0,1-2.85.313,1.47,1.47,0,0,1-.6-.658,1.931,1.931,0,0,1-.157-.752,2.348,2.348,0,0,1,.11-.72,4.117,4.117,0,0,1,.235-.6m13.343,5.669a1.856,1.856,0,0,1-2.067,2.13,1.856,1.856,0,0,1-2.068-2.13V15.363a1.856,1.856,0,0,1,2.068-2.13,1.856,1.856,0,0,1,2.067,2.13v7.079h2V15.081q0-2.161,2.067-2.161t2.068,2.161V39.826q0,2.161-2.068,2.161t-2.067-2.161V26.7h-2Z" transform="translate(-6.218 -10.042)" fill="#0066c1"/>
        <path id="패스_575" data-name="패스 575" d="M164.545,25.914a2.685,2.685,0,0,1,1.676.47,1.815,1.815,0,0,1,.611,1.535,1.815,1.815,0,0,1-.611,1.535,2.686,2.686,0,0,1-1.676.47H141.116a2.686,2.686,0,0,1-1.676-.47,1.815,1.815,0,0,1-.611-1.535,1.815,1.815,0,0,1,.611-1.535,2.685,2.685,0,0,1,1.676-.47h5.513q.156-.688.266-1.488t.188-1.55q.078-.752.11-1.425t.031-1.112V18.961a.322.322,0,0,0-.407-.407h-3.2a2.753,2.753,0,0,1-1.676-.454,1.769,1.769,0,0,1-.611-1.519,1.772,1.772,0,0,1,.611-1.519,2.756,2.756,0,0,1,1.676-.454h5.294a2.8,2.8,0,0,1,2.271.783,3.16,3.16,0,0,1,.642,2.067v1.629q0,.658-.031,1.519t-.094,1.785q-.063.924-.2,1.832t-.329,1.691h6.766q.125-.626.251-1.409t.219-1.55q.094-.767.157-1.472t.063-1.143V18.961a.323.323,0,0,0-.407-.407h-3.351a2.753,2.753,0,0,1-1.676-.454,1.769,1.769,0,0,1-.611-1.519,1.772,1.772,0,0,1,.611-1.519,2.756,2.756,0,0,1,1.676-.454h5.45a3.236,3.236,0,0,1,2.255.626,2.525,2.525,0,0,1,.658,1.911v1.848q0,.752-.062,1.676t-.172,1.864q-.11.939-.251,1.817t-.3,1.566ZM152.83,39.07a13.875,13.875,0,0,1-1.785,1.425,15.993,15.993,0,0,1-2.239,1.269,21.1,21.1,0,0,1-2.475.971,12.26,12.26,0,0,1-2.49.532,3.412,3.412,0,0,1-1.691-.157,1.563,1.563,0,0,1-.94-1.19,1.884,1.884,0,0,1-.047-.861,1.832,1.832,0,0,1,.3-.7,2.029,2.029,0,0,1,.548-.532,1.785,1.785,0,0,1,.7-.282,21.255,21.255,0,0,0,2.678-.767,15.879,15.879,0,0,0,2.475-1.112,7.035,7.035,0,0,0,1.8-1.394,2.361,2.361,0,0,0,.689-1.582V33.557A1.764,1.764,0,0,1,151,32.1a3.507,3.507,0,0,1,3.665,0,1.764,1.764,0,0,1,.642,1.457v1.128a2.359,2.359,0,0,0,.689,1.582,7.012,7.012,0,0,0,1.8,1.394,15.849,15.849,0,0,0,2.475,1.112,21.256,21.256,0,0,0,2.678.767,1.963,1.963,0,0,1,1.253.815,1.835,1.835,0,0,1,.251,1.566,1.565,1.565,0,0,1-.94,1.19,3.414,3.414,0,0,1-1.691.157,12.26,12.26,0,0,1-2.49-.532,21.046,21.046,0,0,1-2.475-.971,15.958,15.958,0,0,1-2.24-1.269,13.89,13.89,0,0,1-1.785-1.425" transform="translate(-107.899 -11.353)"/>
        <path id="패스_576" data-name="패스 576" d="M268.488,15.2a2.906,2.906,0,0,1-1.676-.423,1.683,1.683,0,0,1-.611-1.488,1.683,1.683,0,0,1,.611-1.488,2.906,2.906,0,0,1,1.676-.423h4.542V10.161a2,2,0,0,1,.642-1.613,2.933,2.933,0,0,1,3.414,0,2,2,0,0,1,.642,1.613v1.222h4.228a2.906,2.906,0,0,1,1.676.423,1.683,1.683,0,0,1,.611,1.488,1.682,1.682,0,0,1-.611,1.488,2.906,2.906,0,0,1-1.676.423Zm-.752,6.421a5,5,0,0,1,.579-2.459,4.808,4.808,0,0,1,1.613-1.723,7.877,7.877,0,0,1,2.427-1.018,13.435,13.435,0,0,1,6.045,0,7.885,7.885,0,0,1,2.428,1.018,4.813,4.813,0,0,1,1.613,1.723,5.01,5.01,0,0,1,.579,2.459,5.009,5.009,0,0,1-.579,2.459,4.809,4.809,0,0,1-1.613,1.723,7.864,7.864,0,0,1-2.428,1.018,13.435,13.435,0,0,1-6.045,0,7.855,7.855,0,0,1-2.427-1.018,4.8,4.8,0,0,1-1.613-1.723,5,5,0,0,1-.579-2.459m8.175,11.527a.413.413,0,0,0,.532.532h13.03a2.189,2.189,0,0,1,1.566.532,2.371,2.371,0,0,1,0,3.07,2.191,2.191,0,0,1-1.566.532H273.657a3.064,3.064,0,0,1-2.177-.626,2.9,2.9,0,0,1-.642-2.13V30.9a2.225,2.225,0,0,1,.7-1.754,2.994,2.994,0,0,1,3.665,0,2.225,2.225,0,0,1,.7,1.754Zm2.318-11.527a1.546,1.546,0,0,0-.25-.877,2,2,0,0,0-.642-.611,2.946,2.946,0,0,0-.908-.345,5.077,5.077,0,0,0-2.1,0,2.941,2.941,0,0,0-.909.345,2,2,0,0,0-.642.611,1.661,1.661,0,0,0,0,1.754,2,2,0,0,0,.642.611,2.93,2.93,0,0,0,.909.344,5.077,5.077,0,0,0,2.1,0,2.934,2.934,0,0,0,.908-.344,2,2,0,0,0,.642-.611,1.544,1.544,0,0,0,.25-.877m7.58-10.274a2.046,2.046,0,0,1,.7-1.676,3.088,3.088,0,0,1,3.6,0,2.045,2.045,0,0,1,.7,1.676V17.24h2.161a2.531,2.531,0,0,1,1.629.5,1.886,1.886,0,0,1,.626,1.566,1.885,1.885,0,0,1-.626,1.566,2.527,2.527,0,0,1-1.629.5h-2.161v6.452a2.091,2.091,0,0,1-.7,1.692,3.023,3.023,0,0,1-3.6,0,2.091,2.091,0,0,1-.7-1.692Z" transform="translate(-206.894 -6.218)"/>
        <path id="패스_577" data-name="패스 577" d="M428.018,16.4a2,2,0,0,1,.642-1.613,2.932,2.932,0,0,1,3.414,0,2,2,0,0,1,.642,1.613v4.385h5.544V16.4a2,2,0,0,1,.642-1.613,2.932,2.932,0,0,1,3.414,0,2,2,0,0,1,.642,1.613V31.431q0,3.1-3.132,3.1H431.15q-3.132,0-3.132-3.1Zm4.7,8.457V29.9a.75.75,0,0,0,.094.454q.094.11.439.11h4.479q.345,0,.438-.11a.749.749,0,0,0,.094-.454V24.853Zm14-9.647a2.092,2.092,0,0,1,.7-1.691,3.022,3.022,0,0,1,3.6,0,2.091,2.091,0,0,1,.7,1.691v6.86h2.224a2.368,2.368,0,0,1,1.613.533,2.047,2.047,0,0,1,.611,1.629,2.005,2.005,0,0,1-.611,1.6,2.365,2.365,0,0,1-1.613.532h-2.224V39.7a2.092,2.092,0,0,1-.7,1.692,3.023,3.023,0,0,1-3.6,0,2.092,2.092,0,0,1-.7-1.692Z" transform="translate(-332.659 -10.041)" fill="#0066c1"/>
        <path id="패스_578" data-name="패스 578" d="M562.31,29.55a.413.413,0,0,0,.532.534h1.316q2,.032,3.931-.125t3.587-.438a2.352,2.352,0,0,1,1.566.2,1.793,1.793,0,0,1,.846,1.324,1.962,1.962,0,0,1-.345,1.664,2.261,2.261,0,0,1-1.441.824,40.278,40.278,0,0,1-4.15.529q-2.083.155-4.4.155h-3.226q-3.164,0-3.164-3.1V17.492q0-3.1,3.164-3.1h9.365a2.1,2.1,0,1,1,0,4.2h-7.048a.673.673,0,0,0-.438.094.677.677,0,0,0-.094.44Zm13.437-14.344a2.092,2.092,0,0,1,.7-1.691,3.022,3.022,0,0,1,3.6,0,2.091,2.091,0,0,1,.7,1.691V22h2.224a2.369,2.369,0,0,1,1.613.532,2.048,2.048,0,0,1,.611,1.629,2.006,2.006,0,0,1-.611,1.6,2.366,2.366,0,0,1-1.613.532h-2.224V39.7a2.092,2.092,0,0,1-.7,1.692,3.023,3.023,0,0,1-3.6,0,2.093,2.093,0,0,1-.7-1.692Z" transform="translate(-433.185 -10.041)"/>
        <path id="패스_579" data-name="패스 579" d="M711.873,35.778a2.4,2.4,0,0,1-1.66-.533,2.442,2.442,0,0,1,0-3.195,2.4,2.4,0,0,1,1.66-.532h23.492a2.4,2.4,0,0,1,1.66.532,2.442,2.442,0,0,1,0,3.195,2.4,2.4,0,0,1-1.66.533h-9.24V42.1a2.121,2.121,0,0,1-.673,1.723,3.26,3.26,0,0,1-3.665,0,2.12,2.12,0,0,1-.673-1.723V35.778Zm4.51-6.484a3.435,3.435,0,0,1-2.349-.72,2.859,2.859,0,0,1-.814-2.255V18.237a2.051,2.051,0,0,1,.673-1.644,2.9,2.9,0,0,1,3.477,0,2.053,2.053,0,0,1,.673,1.644v1.284h11.182V18.237a2.051,2.051,0,0,1,.674-1.644,2.57,2.57,0,0,1,1.738-.579,2.511,2.511,0,0,1,1.723.579,2.076,2.076,0,0,1,.658,1.644v8.081q0,2.976-3.132,2.976Zm1.66-6.076v1.947a.484.484,0,0,0,.063.309.5.5,0,0,0,.313.061h10.43a.5.5,0,0,0,.313-.061.485.485,0,0,0,.063-.309V23.217Z" transform="translate(-551.521 -12.445)" fill="#0066c1"/>
        <path id="패스_580" data-name="패스 580" d="M846.855,23.977a15.786,15.786,0,0,1-2.334,2.662,12.8,12.8,0,0,1-2.835,2,3.028,3.028,0,0,1-1.863.376,1.9,1.9,0,0,1-1.425-.94,2.024,2.024,0,0,1-.282-1.707,2.862,2.862,0,0,1,1.19-1.519A16.1,16.1,0,0,0,843,21.3a6.968,6.968,0,0,0,1.347-4.181v-1.66a1.921,1.921,0,0,1,.689-1.645,3.451,3.451,0,0,1,3.633,0,1.922,1.922,0,0,1,.689,1.645v1.66a6.639,6.639,0,0,0,1.284,4.056,13.462,13.462,0,0,0,3.633,3.242,2.727,2.727,0,0,1,1.19,1.488,2.028,2.028,0,0,1-.282,1.707,1.858,1.858,0,0,1-1.425.924,3.248,3.248,0,0,1-1.864-.36,16.139,16.139,0,0,1-2.725-1.77,12.448,12.448,0,0,1-2.318-2.427m-1.879,6.8a2.671,2.671,0,0,1,1.817.626,2.2,2.2,0,0,1,.72,1.754v3.822a.413.413,0,0,0,.533.532h13.187a2.19,2.19,0,0,1,1.566.532,2.372,2.372,0,0,1,0,3.07,2.192,2.192,0,0,1-1.566.532H845.288a3.126,3.126,0,0,1-2.192-.626,2.857,2.857,0,0,1-.658-2.13V33.154a2.2,2.2,0,0,1,.72-1.754,2.669,2.669,0,0,1,1.817-.626m12.435-15.6a2.045,2.045,0,0,1,.7-1.676,3.088,3.088,0,0,1,3.6,0,2.045,2.045,0,0,1,.7,1.676V19.5h2.161a2.531,2.531,0,0,1,1.629.5,1.887,1.887,0,0,1,.626,1.566,1.885,1.885,0,0,1-.626,1.566,2.529,2.529,0,0,1-1.629.5h-2.161v7.079a2.09,2.09,0,0,1-.7,1.691,3.023,3.023,0,0,1-3.6,0,2.091,2.091,0,0,1-.7-1.691Z" transform="translate(-651.328 -10.042)"/>
      </g>
    </g>
  </g>
</svg>
