<svg xmlns="http://www.w3.org/2000/svg" xmlns:xlink="http://www.w3.org/1999/xlink" width="149" height="25" viewBox="0 0 149 25">
  <defs>
    <clipPath id="clip-path">
      <rect id="사각형_1943" data-name="사각형 1943" width="148.422" height="23.043" fill="none"/>
    </clipPath>
  </defs>
  <g id="logo" transform="translate(13628 15806.41)">
    <rect id="사각형_1944" data-name="사각형 1944" width="149" height="25" transform="translate(-13628 -15806.41)" fill="#c53aff" opacity="0"/>
    <g id="그룹_495" data-name="그룹 495" transform="translate(-13628 -15805.317)">
      <g id="그룹_494" data-name="그룹 494" clip-path="url(#clip-path)">
        <path id="패스_538" data-name="패스 538" d="M6.033,30.457a2.317,2.317,0,0,1-.422-.04,2.067,2.067,0,0,1-.8-.344l-.024-.018a1.991,1.991,0,0,1-.58-.681,1.873,1.873,0,0,1-.2-.761,1.942,1.942,0,0,1,.1-.7,2.011,2.011,0,0,1,.264-.536A14.347,14.347,0,0,0,5.4,25.629,15.027,15.027,0,0,0,6.216,23.7a13.717,13.717,0,0,0,.522-2.048,12.168,12.168,0,0,0,.184-2.088v-.033h-.2a2.073,2.073,0,0,1-1.477-.519,1.944,1.944,0,0,1-.565-1.481,1.944,1.944,0,0,1,.566-1.481,2.073,2.073,0,0,1,1.477-.519h1.99a2.053,2.053,0,0,1,1.737.68,2.756,2.756,0,0,1,.455,1.7v.834a22.627,22.627,0,0,1-.187,2.88,18.919,18.919,0,0,1-.6,2.863,18.382,18.382,0,0,1-1.04,2.733,14.642,14.642,0,0,1-1.507,2.5,1.792,1.792,0,0,1-.516.456,1.945,1.945,0,0,1-.685.25,2.022,2.022,0,0,1-.334.027" transform="translate(-3.391 -13.165)" fill="#fff"/>
        <path id="패스_539" data-name="패스 539" d="M5.316,12.745a1.492,1.492,0,0,1,1.252.439A2.213,2.213,0,0,1,6.9,14.521v.834a21.94,21.94,0,0,1-.182,2.8,18.2,18.2,0,0,1-.578,2.771,17.675,17.675,0,0,1-1.005,2.642,13.954,13.954,0,0,1-1.444,2.4,1.178,1.178,0,0,1-.342.3,1.335,1.335,0,0,1-.471.171,1.413,1.413,0,0,1-.235.019,1.7,1.7,0,0,1-.311-.03,1.457,1.457,0,0,1-.567-.246,1.382,1.382,0,0,1-.406-.471,1.261,1.261,0,0,1-.139-.514,1.328,1.328,0,0,1,.064-.481,1.4,1.4,0,0,1,.182-.374,14.958,14.958,0,0,0,1.091-1.829A15.553,15.553,0,0,0,3.4,20.5a14.256,14.256,0,0,0,.546-2.139,12.712,12.712,0,0,0,.193-2.193v-.428c0-.142-.064-.214-.193-.214h-.62a1.483,1.483,0,0,1-1.059-.353,1.358,1.358,0,0,1-.375-1.038A1.358,1.358,0,0,1,2.267,13.1a1.483,1.483,0,0,1,1.059-.353Zm0-1.217H3.326a2.66,2.66,0,0,0-1.894.685,2.536,2.536,0,0,0-.756,1.923,2.536,2.536,0,0,0,.757,1.924,2.525,2.525,0,0,0,1.476.661,11.689,11.689,0,0,1-.161,1.432,13.092,13.092,0,0,1-.5,1.957,14.432,14.432,0,0,1-.779,1.854,13.82,13.82,0,0,1-1,1.677,2.625,2.625,0,0,0-.343.692A2.544,2.544,0,0,0,0,25.249a2.472,2.472,0,0,0,.267,1.006,2.589,2.589,0,0,0,.754.892l.048.035a2.67,2.67,0,0,0,1.04.443,2.917,2.917,0,0,0,.531.05,2.626,2.626,0,0,0,.437-.036,2.547,2.547,0,0,0,.894-.327,2.4,2.4,0,0,0,.691-.614,15.244,15.244,0,0,0,1.57-2.6A18.988,18.988,0,0,0,7.308,21.27a19.5,19.5,0,0,0,.616-2.956,23.266,23.266,0,0,0,.192-2.958v-.834a3.329,3.329,0,0,0-.577-2.071,2.62,2.62,0,0,0-2.223-.922" transform="translate(0 -9.774)" fill="#fff"/>
        <path id="패스_540" data-name="패스 540" d="M86.915,29.991a1.869,1.869,0,0,1-2.021-2.085V19.55h-.152v7.757a2.021,2.021,0,1,1-4.042,0V11.2a2.021,2.021,0,1,1,4.042,0v4.226h.152V11a2.022,2.022,0,1,1,4.042,0v16.9a1.869,1.869,0,0,1-2.021,2.085" transform="translate(-68.42 -7.562)" fill="#fff"/>
        <path id="패스_541" data-name="패스 541" d="M83.524,6.137q1.412,0,1.412,1.476v16.9q0,1.476-1.412,1.476t-1.412-1.476V15.551H80.743v8.365a1.413,1.413,0,1,1-2.824,0V7.806a1.413,1.413,0,1,1,2.824,0v4.835h1.369V7.614q0-1.476,1.412-1.476m0-1.217a2.493,2.493,0,0,0-2.176,1.035,2.57,2.57,0,0,0-2.018-.821A2.46,2.46,0,0,0,76.7,7.806v16.11a2.46,2.46,0,0,0,2.629,2.672,2.642,2.642,0,0,0,1.87-.666,2.442,2.442,0,0,0,2.323,1.287,2.47,2.47,0,0,0,2.629-2.694V7.614A2.47,2.47,0,0,0,83.524,4.92" transform="translate(-65.029 -4.171)" fill="#fff"/>
        <path id="패스_542" data-name="패스 542" d="M39.772,31.791a2.043,2.043,0,0,1-1.167-.385,1.6,1.6,0,0,1-.63-.722,1.928,1.928,0,0,1-.154-.747,2.223,2.223,0,0,1,.1-.677,3.43,3.43,0,0,1,.2-.494l.011-.021a19.255,19.255,0,0,0,2.406-9.12v-.1H40.4a1.56,1.56,0,0,1-1.423-.635,2.5,2.5,0,0,1-.32-1.365,2.5,2.5,0,0,1,.32-1.364,1.56,1.56,0,0,1,1.423-.635h1.733a2.4,2.4,0,0,1,1.81.617,2.519,2.519,0,0,1,.574,1.789v.813c0,.914-.055,1.928-.163,3.013a28.575,28.575,0,0,1-.525,3.279,22.478,22.478,0,0,1-.957,3.2,12.284,12.284,0,0,1-1.487,2.8,1.947,1.947,0,0,1-1.164.7,1.905,1.905,0,0,1-.447.054" transform="translate(-32.065 -13.165)" fill="#fff"/>
        <path id="패스_543" data-name="패스 543" d="M38.741,12.745a1.831,1.831,0,0,1,1.369.428,1.942,1.942,0,0,1,.407,1.369v.813q0,1.348-.161,2.953a27.855,27.855,0,0,1-.513,3.209,21.769,21.769,0,0,1-.931,3.113A11.625,11.625,0,0,1,37.5,27.294a1.361,1.361,0,0,1-.813.46,1.3,1.3,0,0,1-.305.037,1.443,1.443,0,0,1-.829-.283,1,1,0,0,1-.406-.449,1.319,1.319,0,0,1-.107-.513,1.6,1.6,0,0,1,.075-.492,2.818,2.818,0,0,1,.161-.406,19.863,19.863,0,0,0,2.482-9.414v-.492a.189.189,0,0,0-.214-.214h-.535a1,1,0,0,1-.909-.353,1.948,1.948,0,0,1-.225-1.038A1.949,1.949,0,0,1,36.1,13.1a1,1,0,0,1,.909-.353Zm0-1.217H37.008a2.123,2.123,0,0,0-1.936.916,3.077,3.077,0,0,0-.415,1.692,3.078,3.078,0,0,0,.415,1.691,1.982,1.982,0,0,0,1.46.884,18.815,18.815,0,0,1-.556,3.874,18.406,18.406,0,0,1-1.767,4.474l-.022.042a4,4,0,0,0-.232.583,2.824,2.824,0,0,0-.132.861,2.535,2.535,0,0,0,.2.984,2.19,2.19,0,0,0,.853.992,2.637,2.637,0,0,0,1.5.488,2.791,2.791,0,0,0,2.1-.994l.006-.008a12.889,12.889,0,0,0,1.562-2.941,23.058,23.058,0,0,0,.983-3.286,29.238,29.238,0,0,0,.536-3.35c.11-1.1.166-2.139.166-3.074v-.813a3.1,3.1,0,0,0-.741-2.207,2.975,2.975,0,0,0-2.252-.807" transform="translate(-28.675 -9.774)" fill="#fff"/>
        <path id="패스_544" data-name="패스 544" d="M160.3,96.031a3.688,3.688,0,0,1-.462-.03,9.023,9.023,0,0,1-1.817-.389,15,15,0,0,1-1.762-.691,11.566,11.566,0,0,1-1.615-.915c-.317-.216-.61-.437-.876-.66-.266.223-.559.444-.877.66a11.593,11.593,0,0,1-1.614.915,15.041,15.041,0,0,1-1.762.691A9.016,9.016,0,0,1,147.7,96a3.688,3.688,0,0,1-.462.03,2.692,2.692,0,0,1-.985-.175,1.654,1.654,0,0,1-1.01-1.23,1.885,1.885,0,0,1-.039-.858,1.855,1.855,0,0,1,.3-.711,2,2,0,0,1,.535-.521,1.827,1.827,0,0,1,.7-.284,14.01,14.01,0,0,0,1.74-.5,10.3,10.3,0,0,0,1.6-.716,4.223,4.223,0,0,0,1.076-.828,1.025,1.025,0,0,0,.315-.674v-.77a1.814,1.814,0,0,1,.666-1.469,2.98,2.98,0,0,1,3.266,0,1.815,1.815,0,0,1,.666,1.469v.77a1.024,1.024,0,0,0,.315.674,4.211,4.211,0,0,0,1.076.828,10.283,10.283,0,0,0,1.6.717,14.017,14.017,0,0,0,1.753.5,1.931,1.931,0,0,1,1.224.8,1.867,1.867,0,0,1,.268,1.566,1.658,1.658,0,0,1-1.012,1.237,2.693,2.693,0,0,1-.985.175Z" transform="translate(-123.076 -73.597)" fill="#fff"/>
        <path id="패스_545" data-name="패스 545" d="M150.374,84.024a1.953,1.953,0,0,1,1.252.353,1.205,1.205,0,0,1,.438.995v.77a1.611,1.611,0,0,0,.471,1.08,4.793,4.793,0,0,0,1.23.952,10.841,10.841,0,0,0,1.69.76,14.545,14.545,0,0,0,1.829.524,1.341,1.341,0,0,1,.856.556,1.254,1.254,0,0,1,.171,1.07,1.069,1.069,0,0,1-.642.813,2.078,2.078,0,0,1-.763.133,3.068,3.068,0,0,1-.392-.026,8.373,8.373,0,0,1-1.7-.364,14.346,14.346,0,0,1-1.69-.663,10.9,10.9,0,0,1-1.53-.867,9.489,9.489,0,0,1-1.22-.973,9.478,9.478,0,0,1-1.22.973,10.924,10.924,0,0,1-1.53.867,14.38,14.38,0,0,1-1.69.663,8.373,8.373,0,0,1-1.7.364,3.072,3.072,0,0,1-.392.026,2.076,2.076,0,0,1-.763-.133,1.067,1.067,0,0,1-.642-.813,1.287,1.287,0,0,1-.032-.588,1.252,1.252,0,0,1,.2-.481,1.388,1.388,0,0,1,.374-.364,1.215,1.215,0,0,1,.481-.193,14.545,14.545,0,0,0,1.829-.524,10.861,10.861,0,0,0,1.69-.76,4.809,4.809,0,0,0,1.23-.952,1.613,1.613,0,0,0,.471-1.08v-.77a1.2,1.2,0,0,1,.438-.995,1.952,1.952,0,0,1,1.252-.353m0-1.217a3.128,3.128,0,0,0-2.015.622,2.4,2.4,0,0,0-.892,1.943v.77a.534.534,0,0,1-.159.267,3.626,3.626,0,0,1-.922.7,9.687,9.687,0,0,1-1.5.673,13.381,13.381,0,0,1-1.654.476,2.432,2.432,0,0,0-.924.375,2.6,2.6,0,0,0-.7.679,2.449,2.449,0,0,0-.353,2.066,2.279,2.279,0,0,0,1.378,1.647,3.3,3.3,0,0,0,1.207.217,4.3,4.3,0,0,0,.531-.034,9.641,9.641,0,0,0,1.933-.414,15.673,15.673,0,0,0,1.834-.72,12.185,12.185,0,0,0,1.7-.964q.278-.19.534-.384.255.194.534.384a12.17,12.17,0,0,0,1.7.963,15.619,15.619,0,0,0,1.833.719,9.634,9.634,0,0,0,1.934.414,4.294,4.294,0,0,0,.531.034,3.3,3.3,0,0,0,1.207-.217A2.283,2.283,0,0,0,159.5,91.37a2.448,2.448,0,0,0-.364-2.063,2.561,2.561,0,0,0-1.6-1.04,13.386,13.386,0,0,1-1.669-.479,9.666,9.666,0,0,1-1.5-.673,3.619,3.619,0,0,1-.922-.7.535.535,0,0,1-.16-.268v-.77a2.4,2.4,0,0,0-.892-1.943,3.13,3.13,0,0,0-2.015-.622" transform="translate(-119.684 -70.206)" fill="#fff"/>
        <path id="패스_546" data-name="패스 546" d="M137,22.287a2.428,2.428,0,0,1-1.516-.447,1.816,1.816,0,0,1-.655-1.531,1.817,1.817,0,0,1,.655-1.531A2.428,2.428,0,0,1,137,18.331h3.267c.028-.158.054-.322.077-.491.049-.356.091-.706.126-1.039s.059-.648.072-.939.021-.545.021-.731V14.52h-1.852a2.474,2.474,0,0,1-1.508-.431,1.78,1.78,0,0,1-.663-1.526,1.781,1.781,0,0,1,.662-1.526,2.476,2.476,0,0,1,1.508-.431h3.616a2.481,2.481,0,0,1,2.022.757q.061.075.116.154a1.519,1.519,0,0,1,.42-.481,2.475,2.475,0,0,1,1.508-.431h3.723a2.739,2.739,0,0,1,1.96.6,2.308,2.308,0,0,1,.638,1.746v1.262c0,.354-.015.753-.044,1.186s-.07.87-.121,1.3-.111.869-.175,1.267q-.03.187-.062.364H153a2.428,2.428,0,0,1,1.516.447,1.817,1.817,0,0,1,.655,1.531,1.817,1.817,0,0,1-.655,1.531,2.428,2.428,0,0,1-1.516.447Zm10.984-3.956q.038-.215.076-.45c.056-.351.105-.7.147-1.036s.076-.664.1-.986c.027-.3.04-.547.04-.726V14.52h-1.959a2.506,2.506,0,0,1-1.467-.4v.156c0,.3-.007.658-.022,1.059s-.037.819-.065,1.239c-.03.438-.078.876-.145,1.3q-.036.231-.077.453Z" transform="translate(-114.312 -8.993)" fill="#fff"/>
        <path id="패스_547" data-name="패스 547" d="M146.724,7.824a2.21,2.21,0,0,1,1.54.428,1.724,1.724,0,0,1,.449,1.305V10.82q0,.513-.043,1.145t-.118,1.273q-.075.642-.171,1.241t-.2,1.07h1.434a1.835,1.835,0,0,1,1.145.321,1.24,1.24,0,0,1,.417,1.048,1.24,1.24,0,0,1-.417,1.048,1.835,1.835,0,0,1-1.145.321h-16a1.834,1.834,0,0,1-1.145-.321,1.24,1.24,0,0,1-.417-1.048,1.24,1.24,0,0,1,.417-1.048,1.834,1.834,0,0,1,1.145-.321h3.766q.107-.47.182-1.016t.128-1.059q.053-.514.075-.973t.021-.759V10.8a.22.22,0,0,0-.278-.278h-2.182a1.88,1.88,0,0,1-1.145-.31,1.209,1.209,0,0,1-.417-1.038,1.21,1.21,0,0,1,.417-1.038,1.882,1.882,0,0,1,1.145-.31h3.616a1.914,1.914,0,0,1,1.551.535,2.158,2.158,0,0,1,.439,1.412v1.113q0,.449-.021,1.038t-.064,1.22q-.043.631-.139,1.252t-.225,1.155H145.1q.085-.428.171-.963t.15-1.059q.064-.524.107-1.006t.043-.781V10.8a.22.22,0,0,0-.278-.278H143a1.88,1.88,0,0,1-1.145-.31,1.209,1.209,0,0,1-.417-1.038,1.21,1.21,0,0,1,.417-1.038A1.882,1.882,0,0,1,143,7.824Zm0-1.217H143a3.066,3.066,0,0,0-1.871.55l-.079.062a3.36,3.36,0,0,0-2.115-.612h-3.616a3.066,3.066,0,0,0-1.87.55,2.366,2.366,0,0,0-.909,2.015,2.364,2.364,0,0,0,.909,2.015,3.065,3.065,0,0,0,1.871.55h1.243v0c0,.177-.007.414-.02.7s-.036.583-.07.9-.073.646-.119.983h-2.746a3.019,3.019,0,0,0-1.887.573,2.4,2.4,0,0,0-.892,2.013,2.4,2.4,0,0,0,.893,2.013,3.018,3.018,0,0,0,1.887.573h16a3.016,3.016,0,0,0,1.887-.574,2.4,2.4,0,0,0,.892-2.013A2.4,2.4,0,0,0,151.5,14.9a3.006,3.006,0,0,0-1.862-.573c.045-.306.087-.624.126-.951.052-.443.093-.891.123-1.332s.046-.86.046-1.228V9.557a2.889,2.889,0,0,0-.827-2.186,3.3,3.3,0,0,0-2.38-.764m-4.783,7.724c.051-.365.089-.736.114-1.107.029-.427.051-.85.066-1.257q.006-.167.01-.324a3.784,3.784,0,0,0,.87.1h1.35v0c0,.161-.013.388-.038.673-.028.314-.063.639-.1.965-.038.309-.083.629-.134.952Z" transform="translate(-110.921 -5.602)" fill="#fff"/>
        <path id="패스_548" data-name="패스 548" d="M264.373,10.138a2.578,2.578,0,0,1-1.491-.4,1.716,1.716,0,0,1-.68-1.517,1.716,1.716,0,0,1,.679-1.517,2.579,2.579,0,0,1,1.491-.4h2.494V6.085a1.954,1.954,0,0,1,.652-1.565,2.6,2.6,0,0,1,3.122,0,1.96,1.96,0,0,1,.652,1.565v.226h2.279a2.579,2.579,0,0,1,1.491.4,1.716,1.716,0,0,1,.68,1.517,1.715,1.715,0,0,1-.68,1.517,2.577,2.577,0,0,1-1.491.4Z" transform="translate(-222.301 -3.391)" fill="#fff"/>
        <path id="패스_549" data-name="패스 549" d="M265.689,1.217a1.736,1.736,0,0,1,1.166.374,1.37,1.37,0,0,1,.439,1.1v.835h2.888a1.985,1.985,0,0,1,1.145.289,1.149,1.149,0,0,1,.417,1.016,1.149,1.149,0,0,1-.417,1.016,1.985,1.985,0,0,1-1.145.289h-9.2a1.984,1.984,0,0,1-1.145-.289,1.149,1.149,0,0,1-.417-1.016,1.15,1.15,0,0,1,.417-1.016,1.984,1.984,0,0,1,1.145-.289h3.1V2.694a1.369,1.369,0,0,1,.439-1.1,1.736,1.736,0,0,1,1.166-.374m0-1.217a2.922,2.922,0,0,0-1.956.666,2.47,2.47,0,0,0-.844,1.645h-1.906a3.169,3.169,0,0,0-1.837.5,2.3,2.3,0,0,0-.942,2.018,2.3,2.3,0,0,0,.941,2.017,3.169,3.169,0,0,0,1.838.506h9.2a3.168,3.168,0,0,0,1.838-.506,2.3,2.3,0,0,0,.942-2.017,2.3,2.3,0,0,0-.942-2.017,3.168,3.168,0,0,0-1.838-.505H268.49a2.471,2.471,0,0,0-.844-1.644A2.923,2.923,0,0,0,265.689,0" transform="translate(-218.91)" fill="#fff"/>
        <path id="패스_550" data-name="패스 550" d="M274.92,49.063a9.222,9.222,0,0,1-2.211-.253,6,6,0,0,1-1.844-.776,3.9,3.9,0,0,1-1.3-1.392,4.366,4.366,0,0,1,0-3.948,3.9,3.9,0,0,1,1.3-1.392,6.011,6.011,0,0,1,1.844-.776,9.782,9.782,0,0,1,4.421,0,6.017,6.017,0,0,1,1.844.776,3.907,3.907,0,0,1,1.3,1.392,4.366,4.366,0,0,1,0,3.948,3.9,3.9,0,0,1-1.3,1.393,6,6,0,0,1-1.844.776,9.23,9.23,0,0,1-2.211.253m0-5.113a2.854,2.854,0,0,0-.591.062,1.421,1.421,0,0,0-.433.162.757.757,0,0,0-.246.233.531.531,0,0,0,0,.522.756.756,0,0,0,.246.233,1.406,1.406,0,0,0,.433.162,2.856,2.856,0,0,0,1.18,0,1.414,1.414,0,0,0,.434-.162.76.76,0,0,0,.246-.233.531.531,0,0,0,0-.523.76.76,0,0,0-.245-.233,1.426,1.426,0,0,0-.434-.162,2.855,2.855,0,0,0-.59-.061" transform="translate(-228.141 -34.143)" fill="#fff"/>
        <path id="패스_551" data-name="패스 551" d="M271.529,37.489a8.6,8.6,0,0,1,2.064.235,5.389,5.389,0,0,1,1.658.7,3.288,3.288,0,0,1,1.1,1.177,3.761,3.761,0,0,1,0,3.359,3.281,3.281,0,0,1-1.1,1.177,5.374,5.374,0,0,1-1.658.7,9.176,9.176,0,0,1-4.129,0,5.369,5.369,0,0,1-1.658-.7,3.277,3.277,0,0,1-1.1-1.177,3.761,3.761,0,0,1,0-3.359,3.284,3.284,0,0,1,1.1-1.177,5.383,5.383,0,0,1,1.658-.7,8.594,8.594,0,0,1,2.065-.235m0,5.113a3.425,3.425,0,0,0,.717-.075,2.007,2.007,0,0,0,.62-.235,1.37,1.37,0,0,0,.439-.417,1.135,1.135,0,0,0,0-1.2,1.369,1.369,0,0,0-.439-.417,2.015,2.015,0,0,0-.62-.235,3.475,3.475,0,0,0-1.433,0,2.012,2.012,0,0,0-.62.235,1.362,1.362,0,0,0-.439.417,1.135,1.135,0,0,0,0,1.2,1.363,1.363,0,0,0,.439.417,2,2,0,0,0,.62.235,3.422,3.422,0,0,0,.717.075m0-6.331a9.847,9.847,0,0,0-2.357.271,6.618,6.618,0,0,0-2.031.857,4.506,4.506,0,0,0-1.5,1.608,4.972,4.972,0,0,0,0,4.537,4.5,4.5,0,0,0,1.5,1.608,6.6,6.6,0,0,0,2.031.857,10.388,10.388,0,0,0,4.714,0,6.6,6.6,0,0,0,2.03-.857,4.5,4.5,0,0,0,1.5-1.608,4.972,4.972,0,0,0,0-4.536,4.511,4.511,0,0,0-1.5-1.608,6.622,6.622,0,0,0-2.031-.857,9.857,9.857,0,0,0-2.357-.271m-.658,5a.976.976,0,0,1,.195-.061,2.256,2.256,0,0,1,.927,0,.94.94,0,0,1,.193.061.944.944,0,0,1-.193.06,2.233,2.233,0,0,1-.465.049,2.2,2.2,0,0,1-.463-.048.952.952,0,0,1-.2-.061" transform="translate(-224.75 -30.752)" fill="#fff"/>
        <path id="패스_552" data-name="패스 552" d="M352.532,24.493a2.44,2.44,0,0,1-1.623-.55,2.026,2.026,0,0,1-.7-1.621V11.069a1.994,1.994,0,0,1,.7-1.615,2.713,2.713,0,0,1,3.234,0,1.993,1.993,0,0,1,.7,1.615v3.414h.868a2.327,2.327,0,0,1,1.492.475,1.869,1.869,0,0,1,.657,1.545,1.868,1.868,0,0,1-.656,1.545,2.323,2.323,0,0,1-1.493.476h-.868v3.8a2.026,2.026,0,0,1-.7,1.621,2.439,2.439,0,0,1-1.623.55" transform="translate(-296.917 -7.563)" fill="#fff"/>
        <path id="패스_553" data-name="패스 553" d="M349.141,6.137a1.873,1.873,0,0,1,1.23.4,1.4,1.4,0,0,1,.481,1.145V11.7h1.476a1.729,1.729,0,0,1,1.113.342,1.288,1.288,0,0,1,.428,1.07,1.287,1.287,0,0,1-.428,1.07,1.726,1.726,0,0,1-1.113.342h-1.476v4.407a1.428,1.428,0,0,1-.481,1.155,2.065,2.065,0,0,1-2.46,0,1.428,1.428,0,0,1-.481-1.155V7.678a1.4,1.4,0,0,1,.481-1.145,1.873,1.873,0,0,1,1.23-.4m0-1.217a3.065,3.065,0,0,0-2,.673,2.584,2.584,0,0,0-.926,2.085V18.932a2.618,2.618,0,0,0,.914,2.086,3.275,3.275,0,0,0,4.031,0,2.616,2.616,0,0,0,.913-2.085v-3.19h.259a2.917,2.917,0,0,0,1.873-.609,2.455,2.455,0,0,0,.885-2.02,2.457,2.457,0,0,0-.884-2.02,2.919,2.919,0,0,0-1.873-.609h-.259v-2.8a2.583,2.583,0,0,0-.925-2.085,3.065,3.065,0,0,0-2-.673" transform="translate(-293.526 -4.171)" fill="#fff"/>
        <path id="패스_554" data-name="패스 554" d="M285.544,103.658a2.625,2.625,0,0,1-1.912-.6,2.518,2.518,0,0,1-.622-1.891V98.321a2.108,2.108,0,0,1,.686-1.653,2.648,2.648,0,0,1,3.312,0,2.11,2.11,0,0,1,.686,1.653v1.3h8.655a2.085,2.085,0,0,1,1.488.53,2.218,2.218,0,0,1,0,2.981,2.087,2.087,0,0,1-1.488.53Z" transform="translate(-239.942 -81.464)" fill="#fff"/>
        <path id="패스_555" data-name="패스 555" d="M281.96,93.3a1.815,1.815,0,0,1,1.252.428,1.52,1.52,0,0,1,.481,1.2v1.54a.282.282,0,0,0,.364.364h8.9a1.5,1.5,0,0,1,1.07.364,1.62,1.62,0,0,1,0,2.1,1.5,1.5,0,0,1-1.07.364h-10.8a2.093,2.093,0,0,1-1.487-.428,1.982,1.982,0,0,1-.439-1.455V94.93a1.52,1.52,0,0,1,.481-1.2,1.814,1.814,0,0,1,1.252-.428m0-1.217a3,3,0,0,0-2.06.735,2.712,2.712,0,0,0-.89,2.108v2.845a3.123,3.123,0,0,0,.806,2.326,3.189,3.189,0,0,0,2.337.774h10.8a2.685,2.685,0,0,0,1.906-.7,2.822,2.822,0,0,0,0-3.867,2.683,2.683,0,0,0-1.905-.7h-8.047V94.93a2.712,2.712,0,0,0-.89-2.108,3,3,0,0,0-2.061-.736" transform="translate(-236.551 -78.073)" fill="#fff"/>
        <path id="패스_556" data-name="패스 556" d="M426.767,29.906a2.469,2.469,0,0,1-2.748-2.727V16.91a1.955,1.955,0,0,1,.652-1.565,2.6,2.6,0,0,1,3.123,0,1.961,1.961,0,0,1,.652,1.565V19.3h2.569V16.91a1.954,1.954,0,0,1,.652-1.565,2.6,2.6,0,0,1,3.122,0,1.961,1.961,0,0,1,.652,1.565V27.18a2.469,2.469,0,0,1-2.748,2.727Zm4.248-6.611h-2.57v2.612h2.57Z" transform="translate(-359.493 -12.569)" fill="#fff"/>
        <path id="패스_557" data-name="패스 557" d="M429.837,12.042a1.736,1.736,0,0,1,1.166.374,1.37,1.37,0,0,1,.439,1.1v10.27a1.882,1.882,0,0,1-2.139,2.118h-5.926a1.882,1.882,0,0,1-2.139-2.118V13.519a1.369,1.369,0,0,1,.439-1.1,2,2,0,0,1,2.332,0,1.37,1.37,0,0,1,.439,1.1v3h3.787v-3a1.368,1.368,0,0,1,.439-1.1,1.735,1.735,0,0,1,1.166-.374m-5.028,11.083h3.059q.235,0,.3-.075a.511.511,0,0,0,.064-.31V19.3h-3.787V22.74a.512.512,0,0,0,.064.31q.064.075.3.075m5.028-12.3a2.921,2.921,0,0,0-1.956.666,2.549,2.549,0,0,0-.866,2.028V15.3h-1.352V13.519a2.55,2.55,0,0,0-.865-2.027,3.207,3.207,0,0,0-3.914,0,2.549,2.549,0,0,0-.866,2.028v10.27a3.075,3.075,0,0,0,3.357,3.335H429.3a3.075,3.075,0,0,0,3.357-3.335V13.519a2.551,2.551,0,0,0-.865-2.027,2.923,2.923,0,0,0-1.957-.666m-4.174,9.688h1.352v1.395h-1.352Z" transform="translate(-356.101 -9.178)" fill="#fff"/>
        <path id="패스_558" data-name="패스 558" d="M510.271,29.991a2.442,2.442,0,0,1-1.623-.55,2.028,2.028,0,0,1-.7-1.621V11.09a2.027,2.027,0,0,1,.7-1.62,2.669,2.669,0,0,1,3.246,0,2.027,2.027,0,0,1,.7,1.621v4.077h.91a2.214,2.214,0,0,1,1.5.513,1.982,1.982,0,0,1,.626,1.572A1.954,1.954,0,0,1,515,18.8a2.212,2.212,0,0,1-1.5.513h-.91V27.82a2.027,2.027,0,0,1-.7,1.621,2.441,2.441,0,0,1-1.623.55" transform="translate(-430.652 -7.562)" fill="#fff"/>
        <path id="패스_559" data-name="패스 559" d="M506.88,6.137a1.842,1.842,0,0,1,1.23.407,1.428,1.428,0,0,1,.481,1.155v4.685h1.519a1.618,1.618,0,0,1,1.1.364,1.4,1.4,0,0,1,.417,1.113,1.37,1.37,0,0,1-.417,1.091,1.616,1.616,0,0,1-1.1.364h-1.519V24.43a1.429,1.429,0,0,1-.481,1.155,2.065,2.065,0,0,1-2.46,0,1.429,1.429,0,0,1-.481-1.155V7.7a1.429,1.429,0,0,1,.481-1.155,1.842,1.842,0,0,1,1.23-.407m0-1.217a3.033,3.033,0,0,0-2.015.693,2.618,2.618,0,0,0-.914,2.086V24.43a2.619,2.619,0,0,0,.913,2.085,3.275,3.275,0,0,0,4.032,0,2.619,2.619,0,0,0,.914-2.086v-7.9h.3a2.8,2.8,0,0,0,1.9-.664,2.544,2.544,0,0,0,.834-2.008,2.568,2.568,0,0,0-.834-2.03,2.8,2.8,0,0,0-1.9-.664h-.3V7.7a2.618,2.618,0,0,0-.913-2.085,3.032,3.032,0,0,0-2.016-.694" transform="translate(-427.261 -4.171)" fill="#fff"/>
        <path id="패스_560" data-name="패스 560" d="M638.208,29.991a2.442,2.442,0,0,1-1.623-.55,2.028,2.028,0,0,1-.7-1.621V11.09a2.027,2.027,0,0,1,.7-1.62,2.669,2.669,0,0,1,3.246,0,2.027,2.027,0,0,1,.7,1.621v4.034h.91a2.214,2.214,0,0,1,1.5.513,1.982,1.982,0,0,1,.626,1.572,1.954,1.954,0,0,1-.626,1.55,2.212,2.212,0,0,1-1.5.513h-.91V27.82a2.027,2.027,0,0,1-.7,1.621,2.441,2.441,0,0,1-1.623.55" transform="translate(-539.12 -7.562)" fill="#fff"/>
        <path id="패스_561" data-name="패스 561" d="M634.817,6.137a1.842,1.842,0,0,1,1.23.407,1.428,1.428,0,0,1,.481,1.155v4.643h1.519a1.618,1.618,0,0,1,1.1.364,1.4,1.4,0,0,1,.417,1.113,1.37,1.37,0,0,1-.417,1.091,1.617,1.617,0,0,1-1.1.364h-1.519V24.43a1.429,1.429,0,0,1-.481,1.155,2.065,2.065,0,0,1-2.46,0,1.43,1.43,0,0,1-.481-1.155V7.7a1.429,1.429,0,0,1,.481-1.155,1.842,1.842,0,0,1,1.23-.407m0-1.217a3.032,3.032,0,0,0-2.015.693,2.618,2.618,0,0,0-.914,2.086V24.43a2.619,2.619,0,0,0,.913,2.085,3.275,3.275,0,0,0,4.032,0,2.619,2.619,0,0,0,.914-2.086V16.49h.3a2.8,2.8,0,0,0,1.9-.664,2.544,2.544,0,0,0,.834-2.008,2.568,2.568,0,0,0-.834-2.03,2.8,2.8,0,0,0-1.9-.664h-.3V7.7a2.618,2.618,0,0,0-.913-2.085,3.032,3.032,0,0,0-2.016-.694" transform="translate(-535.728 -4.171)" fill="#fff"/>
        <path id="패스_562" data-name="패스 562" d="M556.131,30.288a2.479,2.479,0,0,1-2.77-2.727V18.255a2.479,2.479,0,0,1,2.77-2.727h6.4a2.044,2.044,0,1,1,0,4.084h-4.569v6.634h.654c.16,0,.31,0,.459,0,.735,0,1.468-.029,2.176-.087.855-.069,1.661-.168,2.4-.293a2.737,2.737,0,0,1,.462-.041,2.063,2.063,0,0,1,1,.246,1.809,1.809,0,0,1,.883,1.322,1.942,1.942,0,0,1-.357,1.632,2.142,2.142,0,0,1-1.357.783,28.182,28.182,0,0,1-2.892.368c-.958.072-1.985.108-3.051.108Z" transform="translate(-469.151 -13.165)" fill="#fff"/>
        <path id="패스_563" data-name="패스 563" d="M559.136,12.745a1.436,1.436,0,1,1,0,2.867h-4.814a.282.282,0,0,0-.364.365V23.1a.282.282,0,0,0,.364.365h.9q.231,0,.459,0,1.131,0,2.226-.089,1.316-.107,2.45-.3a2.132,2.132,0,0,1,.36-.032,1.455,1.455,0,0,1,.71.171,1.225,1.225,0,0,1,.578.9,1.34,1.34,0,0,1-.235,1.136,1.544,1.544,0,0,1-.984.563,27.513,27.513,0,0,1-2.835.361q-1.423.106-3.006.106h-2.2a1.891,1.891,0,0,1-2.161-2.118V14.863a1.891,1.891,0,0,1,2.161-2.118Zm0-1.217h-6.4a3.085,3.085,0,0,0-3.378,3.335V24.17a3.085,3.085,0,0,0,3.378,3.336h2.2c1.082,0,2.124-.037,3.1-.109A28.875,28.875,0,0,0,561,27.02a2.77,2.77,0,0,0,1.724-1,2.531,2.531,0,0,0,.48-2.121,2.4,2.4,0,0,0-1.189-1.746,2.665,2.665,0,0,0-1.295-.321,3.349,3.349,0,0,0-.566.05c-.716.122-1.5.218-2.342.286-.693.057-1.408.085-2.127.085q-.219,0-.44,0h-.064V16.83h3.96a2.652,2.652,0,1,0,0-5.3" transform="translate(-465.76 -9.774)" fill="#fff"/>
        <path id="패스_564" data-name="패스 564" d="M724.555,22.3a2.937,2.937,0,0,1-2.008-.645,2.536,2.536,0,0,1-.761-2v-5.52a2,2,0,0,1,.672-1.585,2.583,2.583,0,0,1,3.169,0,2,2,0,0,1,.672,1.585v.269h6.421v-.269a2,2,0,0,1,.672-1.585,2.354,2.354,0,0,1,1.584-.543,2.311,2.311,0,0,1,1.579.548,2.006,2.006,0,0,1,.656,1.58v5.52A2.432,2.432,0,0,1,734.46,22.3Zm8.163-4.151H726.3v.366h6.421Z" transform="translate(-611.945 -10.185)" fill="#fff"/>
        <path id="패스_565" data-name="패스 565" d="M731.583,9.23a1.714,1.714,0,0,1,1.177.4,1.418,1.418,0,0,1,.449,1.123v5.52q0,2.033-2.14,2.032h-9.906a2.346,2.346,0,0,1-1.6-.492A1.954,1.954,0,0,1,719,16.269v-5.52a1.4,1.4,0,0,1,.46-1.123,1.979,1.979,0,0,1,2.375,0,1.4,1.4,0,0,1,.46,1.123v.877h7.638v-.877a1.4,1.4,0,0,1,.46-1.123,1.756,1.756,0,0,1,1.187-.4m-9.029,6.5h7.124a.346.346,0,0,0,.214-.042.333.333,0,0,0,.043-.211v-1.33H722.3v1.33a.329.329,0,0,0,.043.211.344.344,0,0,0,.214.042m9.029-7.721a2.944,2.944,0,0,0-1.981.69,2.532,2.532,0,0,0-.866,1.706H723.5a2.533,2.533,0,0,0-.866-1.705,3.189,3.189,0,0,0-3.963,0,2.59,2.59,0,0,0-.883,2.046v5.52a3.114,3.114,0,0,0,.967,2.453,3.52,3.52,0,0,0,2.411.8h9.906a3.036,3.036,0,0,0,3.357-3.25v-5.52a2.607,2.607,0,0,0-.862-2.036,2.9,2.9,0,0,0-1.982-.7" transform="translate(-608.554 -6.794)" fill="#fff"/>
        <path id="패스_566" data-name="패스 566" d="M715.789,91.616a2.484,2.484,0,0,1-1.642-.527,2.031,2.031,0,0,1-.678-1.644V85.732h-5.7a2.232,2.232,0,0,1-1.54-.519,2.263,2.263,0,0,1,0-3.089,2.232,2.232,0,0,1,1.54-.519h16.046a2.234,2.234,0,0,1,1.54.519,2.263,2.263,0,0,1,0,3.09,2.233,2.233,0,0,1-1.54.519h-5.7v3.713a2.031,2.031,0,0,1-.678,1.644,2.485,2.485,0,0,1-1.642.527" transform="translate(-598.237 -69.186)" fill="#fff"/>
        <path id="패스_567" data-name="패스 567" d="M720.422,78.822a1.642,1.642,0,0,1,1.134.364,1.667,1.667,0,0,1,0,2.182,1.64,1.64,0,0,1-1.134.364H714.11v4.322a1.449,1.449,0,0,1-.46,1.177,2.227,2.227,0,0,1-2.5,0,1.448,1.448,0,0,1-.46-1.177V81.732h-6.311a1.64,1.64,0,0,1-1.134-.364,1.668,1.668,0,0,1,0-2.182,1.641,1.641,0,0,1,1.134-.364Zm0-1.217H704.376a2.819,2.819,0,0,0-1.946.674,2.865,2.865,0,0,0,0,4,2.817,2.817,0,0,0,1.945.674h5.094v3.1a2.618,2.618,0,0,0,.9,2.11,3.424,3.424,0,0,0,4.065,0,2.62,2.62,0,0,0,.9-2.111v-3.1h5.094a2.82,2.82,0,0,0,1.946-.674,2.865,2.865,0,0,0,0-4,2.822,2.822,0,0,0-1.946-.675" transform="translate(-594.847 -65.795)" fill="#fff"/>
        <path id="패스_568" data-name="패스 568" d="M923.32,23.852a2.44,2.44,0,0,1-1.623-.55,2.026,2.026,0,0,1-.7-1.62V11.069a1.993,1.993,0,0,1,.7-1.615,2.713,2.713,0,0,1,3.234,0,1.993,1.993,0,0,1,.7,1.615v2.344h.868a2.326,2.326,0,0,1,1.492.475,1.87,1.87,0,0,1,.657,1.546A1.868,1.868,0,0,1,928,16.979a2.325,2.325,0,0,1-1.493.476h-.868v4.227a2.026,2.026,0,0,1-.7,1.621,2.438,2.438,0,0,1-1.623.55" transform="translate(-780.844 -7.563)" fill="#fff"/>
        <path id="패스_569" data-name="패스 569" d="M919.929,6.137a1.873,1.873,0,0,1,1.23.4,1.4,1.4,0,0,1,.481,1.145V10.63h1.476a1.729,1.729,0,0,1,1.113.342,1.289,1.289,0,0,1,.428,1.07,1.287,1.287,0,0,1-.428,1.07,1.727,1.727,0,0,1-1.113.342h-1.476V18.29a1.428,1.428,0,0,1-.481,1.155,2.065,2.065,0,0,1-2.46,0,1.428,1.428,0,0,1-.481-1.155V7.678a1.4,1.4,0,0,1,.481-1.145,1.873,1.873,0,0,1,1.23-.4m0-1.217a3.065,3.065,0,0,0-2,.673A2.584,2.584,0,0,0,917,7.678V18.29a2.617,2.617,0,0,0,.914,2.086,3.275,3.275,0,0,0,4.031,0,2.616,2.616,0,0,0,.913-2.085V14.672h.259a2.917,2.917,0,0,0,1.873-.609,2.456,2.456,0,0,0,.885-2.02,2.457,2.457,0,0,0-.884-2.02,2.919,2.919,0,0,0-1.874-.609h-.259V7.678a2.583,2.583,0,0,0-.925-2.085,3.065,3.065,0,0,0-2-.673" transform="translate(-777.453 -4.171)" fill="#fff"/>
        <path id="패스_570" data-name="패스 570" d="M836.122,22.582a2.5,2.5,0,0,1-.335-.023,1.911,1.911,0,0,1-1.41-.926,2,2,0,0,1-.258-1.655,2.552,2.552,0,0,1,1.049-1.366,10.438,10.438,0,0,0,2.38-2.286,4.127,4.127,0,0,0,.8-2.5V12.692a1.894,1.894,0,0,1,.714-1.61,2.955,2.955,0,0,1,3.212,0,1.894,1.894,0,0,1,.714,1.611v1.134a3.907,3.907,0,0,0,.758,2.409,8.64,8.64,0,0,0,2.32,2.064,2.469,2.469,0,0,1,1.069,1.359,2,2,0,0,1-.262,1.661,1.877,1.877,0,0,1-1.417.911,2.653,2.653,0,0,1-.311.018,2.908,2.908,0,0,1-1.306-.325,11.693,11.693,0,0,1-1.969-1.278,9.1,9.1,0,0,1-1.188-1.138,11.855,11.855,0,0,1-1.2,1.271,9.391,9.391,0,0,1-2.071,1.463,2.749,2.749,0,0,1-1.3.34" transform="translate(-707.117 -8.993)" fill="#fff"/>
        <path id="패스_571" data-name="패스 571" d="M837.274,7.824a2.018,2.018,0,0,1,1.241.353,1.313,1.313,0,0,1,.471,1.123v1.134a4.535,4.535,0,0,0,.877,2.771,9.193,9.193,0,0,0,2.482,2.214,1.863,1.863,0,0,1,.813,1.016,1.384,1.384,0,0,1-.193,1.166,1.269,1.269,0,0,1-.973.631,2,2,0,0,1-.24.014,2.3,2.3,0,0,1-1.033-.26,11.019,11.019,0,0,1-1.861-1.209,8.509,8.509,0,0,1-1.583-1.658,10.783,10.783,0,0,1-1.594,1.819,8.746,8.746,0,0,1-1.936,1.369,2.153,2.153,0,0,1-1.02.274,1.883,1.883,0,0,1-.253-.017,1.3,1.3,0,0,1-.974-.642,1.382,1.382,0,0,1-.193-1.166,1.955,1.955,0,0,1,.813-1.038,11,11,0,0,0,2.525-2.428,4.76,4.76,0,0,0,.92-2.856V9.3a1.312,1.312,0,0,1,.471-1.123,2.017,2.017,0,0,1,1.241-.353m0-1.217a3.206,3.206,0,0,0-1.971.6,2.479,2.479,0,0,0-.957,2.1v1.134a3.539,3.539,0,0,1-.689,2.143,9.843,9.843,0,0,1-2.244,2.149,3.139,3.139,0,0,0-1.276,1.689,2.59,2.59,0,0,0,.328,2.15,2.5,2.5,0,0,0,1.845,1.205,3.078,3.078,0,0,0,.416.028,3.359,3.359,0,0,0,1.583-.412,10.005,10.005,0,0,0,2.2-1.553q.426-.391.8-.808a9.706,9.706,0,0,0,.789.7,12.3,12.3,0,0,0,2.067,1.341l.009,0a3.51,3.51,0,0,0,1.578.389,3.231,3.231,0,0,0,.383-.023,2.469,2.469,0,0,0,1.863-1.2,2.593,2.593,0,0,0,.328-2.149,3.052,3.052,0,0,0-1.307-1.689L843,14.394a8.045,8.045,0,0,1-2.159-1.912,3.32,3.32,0,0,1-.639-2.047V9.3a2.479,2.479,0,0,0-.957-2.1,3.208,3.208,0,0,0-1.972-.6" transform="translate(-703.719 -5.602)" fill="#fff"/>
        <path id="패스_572" data-name="패스 572" d="M856.354,97.7a2.67,2.67,0,0,1-1.917-.6,2.522,2.522,0,0,1-.638-1.9V91.291a2.093,2.093,0,0,1,.7-1.658,2.619,2.619,0,0,1,3.28,0,2.093,2.093,0,0,1,.7,1.658v2.365h8.762a2.086,2.086,0,0,1,1.488.53,2.218,2.218,0,0,1,0,2.982,2.087,2.087,0,0,1-1.488.53Z" transform="translate(-723.868 -75.504)" fill="#fff"/>
        <path id="패스_573" data-name="패스 573" d="M852.748,86.273a1.824,1.824,0,0,1,1.241.428,1.5,1.5,0,0,1,.492,1.2v2.61a.282.282,0,0,0,.364.364h9.007a1.5,1.5,0,0,1,1.07.364,1.62,1.62,0,0,1,0,2.1,1.5,1.5,0,0,1-1.07.364h-10.89a2.136,2.136,0,0,1-1.5-.428,1.953,1.953,0,0,1-.449-1.455V87.9a1.5,1.5,0,0,1,.492-1.2,1.823,1.823,0,0,1,1.241-.428m0-1.217a3.014,3.014,0,0,0-2.04.727A2.7,2.7,0,0,0,849.8,87.9v3.915a3.092,3.092,0,0,0,.827,2.336,3.234,3.234,0,0,0,2.337.764h10.89a2.685,2.685,0,0,0,1.905-.7,2.822,2.822,0,0,0,0-3.867,2.685,2.685,0,0,0-1.905-.7H855.7V87.9a2.7,2.7,0,0,0-.91-2.117,3.057,3.057,0,0,0-2.04-.727" transform="translate(-720.477 -72.112)" fill="#fff"/>
        <path id="패스_574" data-name="패스 574" d="M10.109,16.707a1.483,1.483,0,0,1-1.059-.353,1.358,1.358,0,0,1-.375-1.038,1.358,1.358,0,0,1,.375-1.038,1.483,1.483,0,0,1,1.059-.353H12.1a1.492,1.492,0,0,1,1.252.439,2.212,2.212,0,0,1,.332,1.337v.834a21.943,21.943,0,0,1-.182,2.8,18.222,18.222,0,0,1-.578,2.771,17.7,17.7,0,0,1-1.005,2.642,13.954,13.954,0,0,1-1.444,2.4,1.178,1.178,0,0,1-.342.3,1.335,1.335,0,0,1-.471.171,1.56,1.56,0,0,1-.546-.011,1.459,1.459,0,0,1-.567-.246,1.38,1.38,0,0,1-.406-.471A1.261,1.261,0,0,1,8,26.377a1.328,1.328,0,0,1,.064-.481,1.4,1.4,0,0,1,.182-.374,14.96,14.96,0,0,0,1.091-1.829,15.575,15.575,0,0,0,.845-2.011,14.254,14.254,0,0,0,.546-2.139,12.713,12.713,0,0,0,.193-2.193v-.428q0-.214-.193-.214Zm3.273,10.12a19.539,19.539,0,0,0,1.883-4.771,19.476,19.476,0,0,0,.6-4.643v-.492a.189.189,0,0,0-.214-.214h-.535a1,1,0,0,1-.909-.353,1.948,1.948,0,0,1-.225-1.038,1.949,1.949,0,0,1,.225-1.038,1,1,0,0,1,.909-.353h1.733a1.831,1.831,0,0,1,1.369.428,1.942,1.942,0,0,1,.407,1.369v.813q0,1.348-.161,2.953A27.849,27.849,0,0,1,17.95,22.7a21.764,21.764,0,0,1-.931,3.113,11.619,11.619,0,0,1-1.412,2.664,1.471,1.471,0,0,1-1.947.214,1,1,0,0,1-.406-.449,1.319,1.319,0,0,1-.107-.513,1.6,1.6,0,0,1,.075-.492,2.812,2.812,0,0,1,.16-.406M22.5,30.7a1.268,1.268,0,0,1-1.412,1.455A1.268,1.268,0,0,1,19.672,30.7V14.589a1.268,1.268,0,0,1,1.412-1.455A1.268,1.268,0,0,1,22.5,14.589v4.835h1.369V14.4q0-1.476,1.412-1.476T26.69,14.4V31.3q0,1.476-1.412,1.476T23.866,31.3V22.334H22.5Z" transform="translate(-6.782 -10.954)" fill="#0066c1"/>
        <path id="패스_575" data-name="패스 575" d="M156.394,22.331a1.834,1.834,0,0,1,1.145.321,1.526,1.526,0,0,1,0,2.1,1.835,1.835,0,0,1-1.145.321h-16a1.835,1.835,0,0,1-1.145-.321,1.526,1.526,0,0,1,0-2.1,1.834,1.834,0,0,1,1.145-.321h3.766q.107-.47.182-1.016t.128-1.059q.053-.514.075-.973t.021-.759v-.942a.22.22,0,0,0-.278-.278H142.1a1.88,1.88,0,0,1-1.145-.31,1.208,1.208,0,0,1-.417-1.038,1.21,1.21,0,0,1,.417-1.038,1.882,1.882,0,0,1,1.145-.31h3.616a1.914,1.914,0,0,1,1.551.535,2.158,2.158,0,0,1,.439,1.412v1.113q0,.449-.021,1.038t-.064,1.22q-.043.631-.139,1.252t-.225,1.155h4.621q.085-.428.171-.963t.15-1.059q.064-.524.107-1.006t.043-.781v-.942a.22.22,0,0,0-.278-.278h-2.289a1.88,1.88,0,0,1-1.145-.31,1.208,1.208,0,0,1-.417-1.038,1.21,1.21,0,0,1,.417-1.038,1.882,1.882,0,0,1,1.145-.31h3.723a2.21,2.21,0,0,1,1.54.428,1.724,1.724,0,0,1,.449,1.305V17.6q0,.513-.043,1.145t-.118,1.273q-.075.642-.171,1.241t-.2,1.07Zm-8,8.986a9.477,9.477,0,0,1-1.22.973,10.924,10.924,0,0,1-1.53.867,14.409,14.409,0,0,1-1.69.663,8.374,8.374,0,0,1-1.7.364,2.331,2.331,0,0,1-1.155-.107,1.068,1.068,0,0,1-.642-.813,1.287,1.287,0,0,1-.032-.588,1.252,1.252,0,0,1,.2-.481A1.386,1.386,0,0,1,141,31.83a1.219,1.219,0,0,1,.481-.193,14.519,14.519,0,0,0,1.829-.524,10.847,10.847,0,0,0,1.69-.76,4.806,4.806,0,0,0,1.23-.952,1.613,1.613,0,0,0,.471-1.08v-.77a1.2,1.2,0,0,1,.438-.995,2.4,2.4,0,0,1,2.5,0,1.205,1.205,0,0,1,.438.995v.77a1.611,1.611,0,0,0,.471,1.08,4.79,4.79,0,0,0,1.23.952,10.825,10.825,0,0,0,1.69.76,14.52,14.52,0,0,0,1.829.524,1.341,1.341,0,0,1,.856.556,1.253,1.253,0,0,1,.171,1.07,1.069,1.069,0,0,1-.642.813,2.332,2.332,0,0,1-1.155.107,8.374,8.374,0,0,1-1.7-.364,14.375,14.375,0,0,1-1.69-.663,10.9,10.9,0,0,1-1.53-.867,9.487,9.487,0,0,1-1.22-.973" transform="translate(-117.702 -12.384)"/>
        <path id="패스_576" data-name="패스 576" d="M267.764,12.921a1.985,1.985,0,0,1-1.145-.289,1.149,1.149,0,0,1-.417-1.016,1.15,1.15,0,0,1,.417-1.016,1.985,1.985,0,0,1,1.145-.289h3.1V9.476a1.368,1.368,0,0,1,.439-1.1,2,2,0,0,1,2.332,0,1.37,1.37,0,0,1,.439,1.1v.835h2.888a1.985,1.985,0,0,1,1.145.289,1.149,1.149,0,0,1,.417,1.016,1.149,1.149,0,0,1-.417,1.016,1.985,1.985,0,0,1-1.145.289Zm-.513,4.386a3.419,3.419,0,0,1,.4-1.679,3.284,3.284,0,0,1,1.1-1.177,5.38,5.38,0,0,1,1.658-.7,9.177,9.177,0,0,1,4.129,0,5.386,5.386,0,0,1,1.658.7,3.288,3.288,0,0,1,1.1,1.177,3.762,3.762,0,0,1,0,3.359,3.285,3.285,0,0,1-1.1,1.177,5.371,5.371,0,0,1-1.658.7,9.177,9.177,0,0,1-4.129,0,5.365,5.365,0,0,1-1.658-.7,3.281,3.281,0,0,1-1.1-1.177,3.418,3.418,0,0,1-.4-1.68m5.584,7.874a.282.282,0,0,0,.364.364h8.9a1.5,1.5,0,0,1,1.07.364,1.62,1.62,0,0,1,0,2.1,1.5,1.5,0,0,1-1.07.364h-10.8a2.093,2.093,0,0,1-1.487-.428,1.983,1.983,0,0,1-.439-1.455V23.64a1.52,1.52,0,0,1,.481-1.2,2.045,2.045,0,0,1,2.5,0,1.52,1.52,0,0,1,.481,1.2Zm1.583-7.874a1.056,1.056,0,0,0-.171-.6,1.369,1.369,0,0,0-.439-.417,2.012,2.012,0,0,0-.62-.235,3.468,3.468,0,0,0-1.433,0,2.009,2.009,0,0,0-.621.235,1.364,1.364,0,0,0-.439.417,1.134,1.134,0,0,0,0,1.2,1.363,1.363,0,0,0,.439.417,2,2,0,0,0,.621.235,3.467,3.467,0,0,0,1.433,0,2,2,0,0,0,.62-.235,1.368,1.368,0,0,0,.439-.417,1.055,1.055,0,0,0,.171-.6m5.178-7.017a1.4,1.4,0,0,1,.481-1.145,2.109,2.109,0,0,1,2.46,0,1.4,1.4,0,0,1,.481,1.145v4.022h1.476a1.729,1.729,0,0,1,1.113.342,1.288,1.288,0,0,1,.428,1.07,1.287,1.287,0,0,1-.428,1.07,1.726,1.726,0,0,1-1.113.342h-1.476v4.407a1.428,1.428,0,0,1-.481,1.155,2.065,2.065,0,0,1-2.46,0,1.429,1.429,0,0,1-.481-1.155Z" transform="translate(-225.692 -6.783)"/>
        <path id="패스_577" data-name="패스 577" d="M428.018,15.294a1.369,1.369,0,0,1,.439-1.1,2,2,0,0,1,2.332,0,1.369,1.369,0,0,1,.439,1.1v3h3.787v-3a1.368,1.368,0,0,1,.439-1.1,2,2,0,0,1,2.332,0,1.369,1.369,0,0,1,.439,1.1v10.27a1.882,1.882,0,0,1-2.139,2.118h-5.926a1.882,1.882,0,0,1-2.139-2.118Zm3.209,5.777v3.445a.512.512,0,0,0,.064.31q.064.075.3.075h3.059q.235,0,.3-.075a.512.512,0,0,0,.064-.31V21.071Zm9.564-6.59a1.429,1.429,0,0,1,.481-1.155,2.064,2.064,0,0,1,2.46,0,1.428,1.428,0,0,1,.481,1.155v4.685h1.519a1.617,1.617,0,0,1,1.1.364,1.4,1.4,0,0,1,.417,1.112,1.37,1.37,0,0,1-.417,1.091,1.616,1.616,0,0,1-1.1.364h-1.519v9.114a1.429,1.429,0,0,1-.481,1.155,2.065,2.065,0,0,1-2.46,0,1.429,1.429,0,0,1-.481-1.155Z" transform="translate(-362.883 -10.953)" fill="#0066c1"/>
        <path id="패스_578" data-name="패스 578" d="M560.741,24.279a.282.282,0,0,0,.364.365h.9q1.369.022,2.685-.086t2.45-.3a1.607,1.607,0,0,1,1.07.139,1.225,1.225,0,0,1,.578.9,1.34,1.34,0,0,1-.235,1.136,1.545,1.545,0,0,1-.984.563,27.512,27.512,0,0,1-2.835.361q-1.423.106-3.006.106h-2.2a1.891,1.891,0,0,1-2.161-2.118V16.043a1.891,1.891,0,0,1,2.161-2.118h6.4a1.436,1.436,0,1,1,0,2.867h-4.814a.282.282,0,0,0-.364.365Zm9.178-9.8a1.429,1.429,0,0,1,.481-1.155,2.064,2.064,0,0,1,2.46,0,1.428,1.428,0,0,1,.481,1.155v4.643h1.519a1.618,1.618,0,0,1,1.1.364,1.4,1.4,0,0,1,.417,1.113,1.37,1.37,0,0,1-.417,1.091,1.616,1.616,0,0,1-1.1.364h-1.519v9.157a1.429,1.429,0,0,1-.481,1.155,2.065,2.065,0,0,1-2.46,0,1.429,1.429,0,0,1-.481-1.155Z" transform="translate(-472.543 -10.953)"/>
        <path id="패스_579" data-name="패스 579" d="M711.158,29.513a1.639,1.639,0,0,1-1.134-.364,1.668,1.668,0,0,1,0-2.182,1.641,1.641,0,0,1,1.134-.364H727.2a1.642,1.642,0,0,1,1.134.364,1.668,1.668,0,0,1,0,2.182,1.64,1.64,0,0,1-1.134.364h-6.312v4.322a1.449,1.449,0,0,1-.46,1.177,2.227,2.227,0,0,1-2.5,0,1.448,1.448,0,0,1-.46-1.177V29.513Zm3.081-4.429a2.346,2.346,0,0,1-1.6-.492,1.953,1.953,0,0,1-.556-1.541v-5.52a1.4,1.4,0,0,1,.46-1.123,1.979,1.979,0,0,1,2.375,0,1.4,1.4,0,0,1,.46,1.123v.877h7.638v-.877a1.4,1.4,0,0,1,.46-1.123,1.755,1.755,0,0,1,1.187-.4,1.715,1.715,0,0,1,1.177.4,1.418,1.418,0,0,1,.449,1.123v5.52q0,2.033-2.139,2.032Zm1.134-4.151v1.33a.33.33,0,0,0,.043.211.344.344,0,0,0,.214.042h7.125a.344.344,0,0,0,.214-.042.332.332,0,0,0,.043-.211v-1.33Z" transform="translate(-601.63 -13.576)" fill="#0066c1"/>
        <path id="패스_580" data-name="패스 580" d="M844.059,20.472a10.785,10.785,0,0,1-1.594,1.819,8.744,8.744,0,0,1-1.936,1.369,2.069,2.069,0,0,1-1.273.257,1.3,1.3,0,0,1-.974-.642,1.382,1.382,0,0,1-.193-1.166,1.954,1.954,0,0,1,.813-1.038,10.994,10.994,0,0,0,2.525-2.428,4.759,4.759,0,0,0,.92-2.856V14.653a1.312,1.312,0,0,1,.471-1.123,2.357,2.357,0,0,1,2.482,0,1.313,1.313,0,0,1,.471,1.123v1.134a4.534,4.534,0,0,0,.877,2.771,9.193,9.193,0,0,0,2.482,2.214,1.864,1.864,0,0,1,.813,1.016,1.385,1.385,0,0,1-.193,1.166,1.269,1.269,0,0,1-.974.631,2.218,2.218,0,0,1-1.273-.246,11.019,11.019,0,0,1-1.861-1.209,8.5,8.5,0,0,1-1.583-1.658m-1.284,4.643a1.824,1.824,0,0,1,1.241.428,1.5,1.5,0,0,1,.492,1.2v2.61a.282.282,0,0,0,.364.364h9.007a1.5,1.5,0,0,1,1.07.364,1.62,1.62,0,0,1,0,2.1,1.5,1.5,0,0,1-1.07.364H842.99a2.135,2.135,0,0,1-1.5-.428,1.951,1.951,0,0,1-.449-1.455V26.741a1.5,1.5,0,0,1,.492-1.2,1.823,1.823,0,0,1,1.241-.428m8.494-10.655a1.4,1.4,0,0,1,.481-1.145,2.109,2.109,0,0,1,2.46,0,1.4,1.4,0,0,1,.481,1.145v2.952h1.476a1.729,1.729,0,0,1,1.113.342,1.289,1.289,0,0,1,.428,1.07,1.287,1.287,0,0,1-.428,1.07,1.727,1.727,0,0,1-1.113.342h-1.476v4.835a1.427,1.427,0,0,1-.481,1.155,2.065,2.065,0,0,1-2.46,0,1.428,1.428,0,0,1-.481-1.155Z" transform="translate(-710.504 -10.954)"/>
      </g>
    </g>
  </g>
</svg>
