<svg xmlns="http://www.w3.org/2000/svg" width="24" height="24" viewBox="0 0 24 24">
  <g id="그룹_361" data-name="그룹 361" transform="translate(-104 -226)">
    <rect id="사각형_1895" data-name="사각형 1895" width="24" height="24" transform="translate(104 226)" fill="#ef09ff" opacity="0"/>
    <path id="Icon_material-format-bold" data-name="Icon material-format-bold" d="M23.3,15.7a5.166,5.166,0,0,0,2.456-3.986A5.754,5.754,0,0,0,19.8,6H10.5V26H20.978A5.433,5.433,0,0,0,26.5,20.586,5.324,5.324,0,0,0,23.3,15.7ZM14.965,9.571H19.43a2.145,2.145,0,1,1,0,4.286H14.965Zm5.209,12.857H14.965V18.143h5.209a2.145,2.145,0,1,1,0,4.286Z" transform="translate(97.5 222)" fill="#585858"/>
  </g>
</svg>
