<svg xmlns="http://www.w3.org/2000/svg" width="24" height="24" viewBox="0 0 24 24">
  <g id="그룹_370" data-name="그룹 370" transform="translate(-829 -268)">
    <rect id="사각형_1898" data-name="사각형 1898" width="24" height="24" transform="translate(829 268)" fill="#ef09ff" opacity="0"/>
    <path id="Icon_material-format-list-bulleted" data-name="Icon material-format-list-bulleted" d="M9.1,24.15H25.75v-2.4H9.1Zm0-7.2H25.75v-2.4H9.1Zm0-9.6v2.4H25.75V7.35Z" transform="translate(826.25 264.25)" fill="#585858"/>
    <path id="패스_216" data-name="패스 216" d="M.41.622H2.762V-.073H2.027V-3.7H1.451a2.3,2.3,0,0,1-.909.368v.531H1.25V-.073H.41Z" transform="translate(829.946 274.366)" fill="#585858"/>
    <path id="패스_217" data-name="패스 217" d="M.218.563H2.927V-.149H2.054A6.6,6.6,0,0,0,1.393-.1,3.882,3.882,0,0,0,2.736-2.46,1.216,1.216,0,0,0,1.464-3.77,1.593,1.593,0,0,0,.18-3.126l.437.46A1.046,1.046,0,0,1,1.36-3.1c.388,0,.606.259.606.69,0,.655-.65,1.454-1.748,2.488Z" transform="translate(830 281.556)" fill="#585858"/>
    <path id="패스_218" data-name="패스 218" d="M1.6.76C2.437.76,3.143.294,3.143-.508a1.093,1.093,0,0,0-.872-1.074v-.029a1.037,1.037,0,0,0,.729-1C3-3.351,2.425-3.77,1.577-3.77A1.952,1.952,0,0,0,.26-3.233L.705-2.7a1.2,1.2,0,0,1,.83-.383.516.516,0,0,1,.587.543c0,.389-.261.667-1.067.667v.619c.955,0,1.21.271,1.21.7,0,.4-.3.613-.747.613A1.4,1.4,0,0,1,.539-.4L.13.153A1.87,1.87,0,0,0,1.6.76Z" transform="translate(830.05 288.579)" fill="#585858"/>
  </g>
</svg>
