<svg xmlns="http://www.w3.org/2000/svg" width="24" height="24" viewBox="0 0 24 24">
  <g id="그룹_363" data-name="그룹 363" transform="translate(-158 -226)">
    <rect id="사각형_1897" data-name="사각형 1897" width="24" height="24" transform="translate(158 226)" fill="#ef09ff" opacity="0"/>
    <path id="Icon_material-format-list-bulleted" data-name="Icon material-format-list-bulleted" d="M5.534,13.95a1.8,1.8,0,1,0,1.784,1.8A1.79,1.79,0,0,0,5.534,13.95Zm0-7.2a1.8,1.8,0,1,0,1.784,1.8A1.79,1.79,0,0,0,5.534,6.75Zm0,14.4a1.8,1.8,0,1,0,1.784,1.8A1.8,1.8,0,0,0,5.534,21.15Zm3.568,3H25.75v-2.4H9.1Zm0-7.2H25.75v-2.4H9.1Zm0-9.6v2.4H25.75V7.35Z" transform="translate(155.25 222.25)" fill="#585858"/>
  </g>
</svg>
