<svg id="그룹_513" data-name="그룹 513" xmlns="http://www.w3.org/2000/svg" xmlns:xlink="http://www.w3.org/1999/xlink" width="977.347" height="149" viewBox="0 0 977.347 149">
  <defs>
    <linearGradient id="linear-gradient" y1="1" x2="0.988" y2="1" gradientUnits="objectBoundingBox">
      <stop offset="0" stop-color="#009ce3"/>
      <stop offset="1" stop-color="#0066c1"/>
    </linearGradient>
    <clipPath id="clip-path">
      <rect id="사각형_1968" data-name="사각형 1968" width="977.347" height="149" fill="none"/>
    </clipPath>
  </defs>
  <rect id="사각형_1964" data-name="사각형 1964" width="474.5" height="75" transform="translate(132.074 37)" fill="#d9f0f9"/>
  <path id="패스_1237" data-name="패스 1237" d="M676.574,37v75h269l31.773-37.5L945.574,37Z" fill="url(#linear-gradient)"/>
  <rect id="사각형_1965" data-name="사각형 1965" width="10.822" height="75" transform="translate(656.752 37)" fill="#1f92e8"/>
  <rect id="사각형_1966" data-name="사각형 1966" width="10.822" height="75" transform="translate(636.663 37)" fill="#62bdf4"/>
  <rect id="사각형_1967" data-name="사각형 1967" width="10.822" height="75" transform="translate(616.574 37)" fill="#b8e0f4"/>
  <text id="글로벌_해양도시" data-name="글로벌 해양도시" transform="translate(721.096 83.1)" fill="#fff" font-size="28" font-family="TmoneyRoundWind-ExtraBold, Tmoney RoundWind" font-weight="800"><tspan x="0" y="0" letter-spacing="-0.019em">글로벌 해양도</tspan><tspan y="0">시</tspan></text>
  <g id="그룹_508" data-name="그룹 508">
    <g id="그룹_507" data-name="그룹 507" clip-path="url(#clip-path)">
      <path id="패스_1238" data-name="패스 1238" d="M147.5,74A73.5,73.5,0,1,1,74,.5,73.5,73.5,0,0,1,147.5,74" fill="#fff"/>
      <circle id="타원_2" data-name="타원 2" cx="73.5" cy="73.5" r="73.5" transform="translate(0.5 0.5)" fill="none" stroke="#000" stroke-width="1"/>
    </g>
  </g>
  <text id="항만물류" transform="translate(35.201 80.68)" font-size="20" font-family="TmoneyRoundWind-ExtraBold, Tmoney RoundWind" font-weight="800"><tspan x="0" y="0">항만물류</tspan></text>
  <g id="그룹_510" data-name="그룹 510">
    <g id="그룹_509" data-name="그룹 509" clip-path="url(#clip-path)">
      <path id="패스_1239" data-name="패스 1239" d="M329.962,75a73.5,73.5,0,1,1-73.5-73.5,73.5,73.5,0,0,1,73.5,73.5" fill="#fff"/>
      <circle id="타원_3" data-name="타원 3" cx="73.5" cy="73.5" r="73.5" transform="translate(182.962 1.5)" fill="none" stroke="#000" stroke-width="1"/>
    </g>
  </g>
  <text id="해양수산" transform="translate(217.662 81.53)" font-size="20" font-family="TmoneyRoundWind-ExtraBold, Tmoney RoundWind" font-weight="800"><tspan x="0" y="0">해양수산</tspan></text>
  <g id="그룹_512" data-name="그룹 512">
    <g id="그룹_511" data-name="그룹 511" clip-path="url(#clip-path)">
      <path id="패스_1240" data-name="패스 1240" d="M512.423,75a73.5,73.5,0,1,1-73.5-73.5,73.5,73.5,0,0,1,73.5,73.5" fill="#fff"/>
      <circle id="타원_4" data-name="타원 4" cx="73.5" cy="73.5" r="73.5" transform="translate(365.423 1.5)" fill="none" stroke="#000" stroke-width="1"/>
    </g>
  </g>
  <text id="관광·MICE산업" transform="translate(372.264 81.499)" font-size="20" font-family="TmoneyRoundWind-ExtraBold, Tmoney RoundWind" font-weight="800"><tspan x="0" y="0" letter-spacing="-0.039em">관광·MICE산</tspan><tspan y="0">업</tspan></text>
</svg>
