<svg xmlns="http://www.w3.org/2000/svg" xmlns:xlink="http://www.w3.org/1999/xlink" width="180" height="58" viewBox="0 0 180 58">
  <defs>
    <clipPath id="clip-path">
      <rect id="사각형_139" data-name="사각형 139" width="180" height="57.151" fill="none"/>
    </clipPath>
  </defs>
  <g id="그룹_221" data-name="그룹 221" transform="translate(-180 -1624)">
    <rect id="사각형_140" data-name="사각형 140" width="180" height="58" transform="translate(180 1624)" fill="#ff6464" opacity="0"/>
    <g id="그룹_218" data-name="그룹 218" transform="translate(180 1624.6)">
      <g id="그룹_217" data-name="그룹 217" clip-path="url(#clip-path)">
        <path id="패스_135" data-name="패스 135" d="M92.92,56.886a3.849,3.849,0,0,1,.888-.109,2.343,2.343,0,0,1,2.615,2.594c0,1.708-1.312,2.476-2.783,2.476a3.586,3.586,0,0,1-.72-.067Zm-1.009,4.252c0,.581.06,1.056-.433,1.39v.03h2.368c2.211,0,3.7-1.36,3.7-3.3,0-1.964-1.4-3.188-3.647-3.188H91.478v.027c.5.148.433.87.433,1.323Z" transform="translate(-27.321 -16.745)" fill="#848484"/>
        <path id="패스_136" data-name="패스 136" d="M105.621,56.535a2.62,2.62,0,0,1,2.474,2.834,2.4,2.4,0,0,1-2.455,2.565,2.675,2.675,0,0,1-2.527-2.8,2.433,2.433,0,0,1,2.507-2.6m.07-.711a3.508,3.508,0,0,0-3.7,3.4,3.453,3.453,0,0,0,3.6,3.425,3.521,3.521,0,0,0,3.63-3.474,3.406,3.406,0,0,0-3.53-3.346" transform="translate(-30.46 -16.672)" fill="#848484"/>
        <path id="패스_137" data-name="패스 137" d="M114.9,61.276c0,.552-.008.947.515,1.252v.03h-1.748v-.03c.523-.305.523-.7.523-1.252V57.339c0-.552,0-.948-.513-1.246v-.027h1.439v.008a.643.643,0,0,0,.147.248l.14.2,3.611,4.559v-3.74c0-.552.011-.948-.514-1.246v-.027h1.738v.027c-.512.3-.512.694-.512,1.246v5.534a2.71,2.71,0,0,1-1.441-1.124L114.9,57.457Z" transform="translate(-33.947 -16.745)" fill="#848484"/>
        <path id="패스_138" data-name="패스 138" d="M130.094,57.142h-.027a2.428,2.428,0,0,0-1.759-.593,2.539,2.539,0,0,0-2.711,2.6,2.777,2.777,0,0,0,2.819,2.795,4.978,4.978,0,0,0,1.374-.191v-1.42c0-.452-.012-.938-.454-1.115v-.027h1.509v.027a1.16,1.16,0,0,0-.051.426v2.27a1.091,1.091,0,0,0,.051.441,12.621,12.621,0,0,1-2.359.3c-2.526,0-4.014-1.382-4.014-3.367,0-2.121,1.685-3.442,4.073-3.442a7.572,7.572,0,0,1,1.55.167Z" transform="translate(-37.175 -16.677)" fill="#848484"/>
        <path id="패스_139" data-name="패스 139" d="M136.547,60.7a2.127,2.127,0,0,0-.861.118l-.019-.019.522-.593a.987.987,0,0,1,.227-.207,2.419,2.419,0,0,1,.593-.039h1a2.1,2.1,0,0,0,.86-.119l.018.021-.523.591a.888.888,0,0,1-.223.207,2.333,2.333,0,0,1-.593.04Z" transform="translate(-40.519 -17.872)" fill="#848484"/>
        <path id="패스_140" data-name="패스 140" d="M143.1,61.708l1.254.118a2.455,2.455,0,0,0,1.825-.581h.03l-.445,1.292h-4.114v-.03c.5-.175.444-.908.444-1.351V57.436c0-.453.059-1.175-.444-1.363v-.027h3.158a1,1,0,0,0,.461-.05h.029V57.15h-.029a1.383,1.383,0,0,0-1.162-.393,5.713,5.713,0,0,0-1.007.067v1.834h1.173a1.058,1.058,0,0,0,.435-.056h.029v1.044h-.029c-.159-.285-.572-.276-.879-.276H143.1Z" transform="translate(-42.304 -16.724)" fill="#848484"/>
        <path id="패스_141" data-name="패스 141" d="M154.49,61.908a2.459,2.459,0,0,1-1.934.809,2.418,2.418,0,0,1-1.786-.692,2.582,2.582,0,0,1-.5-1.944V57.448c0-.444.069-1.166-.436-1.354v-.027h1.877v.027c-.494.188-.433.91-.433,1.354v2.634c0,1.313.55,1.927,1.568,1.927a1.737,1.737,0,0,0,1.439-.692,1.3,1.3,0,0,0,.208-.9V57.448c0-.444.058-1.166-.434-1.354v-.027h1.875l.009.027c-.5.188-.445.91-.445,1.363v3.721c0,.443-.058,1.164.445,1.351v.03h-1.45Z" transform="translate(-44.749 -16.745)" fill="#848484"/>
        <path id="패스_142" data-name="패스 142" d="M161.705,57.457c0-.453.069-1.175-.433-1.363v-.027h1.875v.027c-.493.187-.436.919-.436,1.363v3.721c0,.443-.058,1.164.436,1.35v.03h-1.875v-.03c.492-.175.433-.908.433-1.35Z" transform="translate(-48.166 -16.745)" fill="#848484"/>
        <path id="패스_143" data-name="패스 143" d="M176.159,61.908a2.465,2.465,0,0,1-1.936.809,2.42,2.42,0,0,1-1.786-.692,2.588,2.588,0,0,1-.5-1.944V57.448c0-.444.068-1.166-.433-1.354v-.027h1.873v.027c-.492.188-.433.91-.433,1.354v2.634c0,1.313.554,1.927,1.57,1.927a1.747,1.747,0,0,0,1.441-.692,1.3,1.3,0,0,0,.209-.9V57.448c0-.444.057-1.166-.436-1.354v-.027H177.6l.007.027c-.5.188-.441.91-.441,1.363v3.721c0,.443-.06,1.164.441,1.351v.03h-1.447Z" transform="translate(-51.22 -16.745)" fill="#848484"/>
        <path id="패스_144" data-name="패스 144" d="M184.111,61.276c0,.552-.008.947.513,1.252v.03h-1.747v-.03c.525-.305.525-.7.525-1.252V57.339c0-.552,0-.948-.515-1.246v-.027h1.443v.008a.6.6,0,0,0,.147.248l.139.2,3.608,4.559v-3.74c0-.552.011-.948-.51-1.246v-.027h1.735v.027c-.512.3-.512.694-.512,1.246v5.534a2.712,2.712,0,0,1-1.441-1.124l-3.386-4.291Z" transform="translate(-54.618 -16.745)" fill="#848484"/>
        <path id="패스_145" data-name="패스 145" d="M195.19,57.457c0-.453.067-1.175-.433-1.363v-.027h1.873v.027c-.494.187-.435.919-.435,1.363v3.721c0,.443-.06,1.164.435,1.35v.03h-1.873v-.03c.489-.175.433-.908.433-1.35Z" transform="translate(-58.166 -16.745)" fill="#848484"/>
        <path id="패스_146" data-name="패스 146" d="M203.4,57.852c.267-.7.6-1.511-.012-1.759v-.027h1.471l-2.6,6.788c-.69-.454-.918-.533-1.2-1.312l-1.491-4.035a2.978,2.978,0,0,0-.768-1.412v-.027h1.439l-.011.118a4.1,4.1,0,0,0,.267.917l1.571,4.293Z" transform="translate(-59.372 -16.745)" fill="#848484"/>
        <path id="패스_147" data-name="패스 147" d="M210.624,61.708l1.253.118a2.464,2.464,0,0,0,1.827-.581h.029l-.445,1.292h-4.116v-.03c.506-.175.445-.908.445-1.351V57.436c0-.453.061-1.175-.445-1.363v-.027h3.16a1,1,0,0,0,.461-.05h.031V57.15h-.031a1.38,1.38,0,0,0-1.161-.393,5.73,5.73,0,0,0-1.008.067v1.834H211.8a1.061,1.061,0,0,0,.436-.056h.027v1.044h-.027c-.158-.285-.572-.276-.879-.276h-.729Z" transform="translate(-62.472 -16.724)" fill="#848484"/>
        <path id="패스_148" data-name="패스 148" d="M220.2,56.066c1.32,0,2.042.69,2.042,1.588a1.926,1.926,0,0,1-1.57,1.737l1.423,1.786a6.838,6.838,0,0,0,1.6,1.381h-.905a1.3,1.3,0,0,1-1.147-.493l-1.2-1.49-.908-1.392c.788-.118,1.708-.482,1.708-1.41a1.135,1.135,0,0,0-1.274-1.095,5.062,5.062,0,0,0-.67.079v4.421c0,.454-.064,1.175.447,1.351v.03h-1.885v-.03c.5-.175.432-.908.432-1.351V57.456c0-.453.07-1.175-.432-1.363v-.027Z" transform="translate(-65.065 -16.745)" fill="#848484"/>
        <path id="패스_149" data-name="패스 149" d="M230.572,57.173a2.25,2.25,0,0,0-1.547-.623c-.565,0-1.275.22-1.275.9,0,1.35,3.4,1.33,3.4,3.157a2.407,2.407,0,0,1-2.647,2.043,5.088,5.088,0,0,1-1.767-.3l-.286-1.232a3.426,3.426,0,0,0,2.159.821c.564,0,1.41-.337,1.41-1.027,0-1.538-3.391-1.263-3.391-3.355,0-1.243,1.272-1.718,2.479-1.718a4.892,4.892,0,0,1,1.467.217Z" transform="translate(-67.631 -16.677)" fill="#848484"/>
        <path id="패스_150" data-name="패스 150" d="M235.985,57.457c0-.453.065-1.175-.432-1.363v-.027h1.874v.027c-.492.187-.435.919-.435,1.363v3.721c0,.443-.057,1.164.435,1.35v.03h-1.874v-.03c.49-.175.432-.908.432-1.35Z" transform="translate(-70.351 -16.745)" fill="#848484"/>
        <path id="패스_151" data-name="패스 151" d="M242.934,61.246c0,.562-.011.947.513,1.252v.03h-1.953V62.5c.492-.186.435-.908.435-1.351v-4.4h-.87a1.714,1.714,0,0,0-1.172.393h-.033l.347-1.173h.029a1.584,1.584,0,0,0,.378.069h3.925a1.127,1.127,0,0,0,.456-.069h.025L244.7,57.14h-.029c-.129-.346-.524-.393-.849-.393h-.888Z" transform="translate(-71.635 -16.715)" fill="#848484"/>
        <path id="패스_152" data-name="패스 152" d="M251.669,61.276c0,.591,0,.889.5,1.252v.03h-1.921v-.03c.483-.248.414-.887.414-1.351v-1.46l-1.638-2.634a2.392,2.392,0,0,0-.938-1.016h.9a.838.838,0,0,1,.738.276l1.581,2.575,1.222-1.835c.165-.246.394-.719-.156-.989v-.027h1.723l-2.424,3.65Z" transform="translate(-74.094 -16.745)" fill="#848484"/>
        <path id="패스_153" data-name="패스 153" d="M205.809,18.259h-4.764V16.15h-2.772v2.108h-4.859v2.294h12.395Z" transform="translate(-57.765 -4.824)" fill="#848484"/>
        <path id="패스_154" data-name="패스 154" d="M239.2,37.317V28.66h-2.721v8.657h-3.547V28.691h-2.718v8.626h-3.644v2.292h20.751V37.317Z" transform="translate(-67.669 -8.56)" fill="#848484"/>
        <path id="패스_155" data-name="패스 155" d="M142.573,18.645V31.684H125.5v2.288h15.025a1.2,1.2,0,0,0,.142.006,1.132,1.132,0,0,0,.139-.006c.671-.039,1.759-.379,1.759-.8l0,0v5.442h2.765V18.645Z" transform="translate(-37.483 -5.569)" fill="#848484"/>
        <path id="패스_156" data-name="패스 156" d="M179.485,18.645h-2.68v4.383h-2.848V18.645h-2.733V31.7h-8.77V20.955h5.777V18.661h-6.739v0h-.582A1.267,1.267,0,0,0,159.721,20V32.666A1.267,1.267,0,0,0,160.91,34h2.171v0h6.2c.048,0,.093,0,.139,0s.1,0,.144,0a2.975,2.975,0,0,0,1.662-.584v5.2h2.733V25.32h2.848v13.3h2.735V18.645Z" transform="translate(-47.702 -5.569)" fill="#848484"/>
        <path id="패스_157" data-name="패스 157" d="M219.19,18.146h-2.725V30.456h2.725V25.171h3.393V22.879H219.19Z" transform="translate(-64.65 -5.42)" fill="#848484"/>
        <path id="패스_158" data-name="패스 158" d="M211.378,37.334H194.8v2.294h15.2V44.3h2.725V38.675a1.283,1.283,0,0,0-.125-.555,1.335,1.335,0,0,0-1.215-.786" transform="translate(-58.178 -11.15)" fill="#848484"/>
        <path id="패스_159" data-name="패스 159" d="M244.15,32.089h2.131c.518-.079.577-1.844.577-1.941V20.285a1.358,1.358,0,0,0-.121-.556,1.336,1.336,0,0,0-1.22-.786H229.58v2.293h14.57V32.089Z" transform="translate(-68.567 -5.658)" fill="#848484"/>
        <path id="패스_160" data-name="패스 160" d="M103.077,25.831h7.979V23.539H94.89V20.961h16.167V18.668H93.848v0H93.49A1.334,1.334,0,0,0,92.153,20V24.5a1.335,1.335,0,0,0,1.337,1.335h6.853v1.653H90.756v2.291H112.5V27.484h-9.419Z" transform="translate(-27.105 -5.576)" fill="#848484"/>
        <path id="패스_161" data-name="패스 161" d="M132.724,28.586c3.959,0,6.708-2.2,6.708-5.322s-2.749-5.323-6.708-5.323-6.713,2.2-6.713,5.323,2.75,5.322,6.713,5.322m0-8.476c2.223,0,3.924,1.121,3.924,3.155s-1.7,3.153-3.924,3.153S128.8,25.3,128.8,23.264s1.7-3.155,3.927-3.155" transform="translate(-37.635 -5.358)" fill="#848484"/>
        <path id="패스_162" data-name="패스 162" d="M199.642,31.8c3.77,0,6.128-1.543,6.128-4.132s-2.359-4.132-6.128-4.132-6.133,1.543-6.133,4.132,2.359,4.132,6.133,4.132m0-6.237c1.943,0,3.379.884,3.379,2.105s-1.436,2.105-3.379,2.105-3.382-.881-3.382-2.105,1.436-2.105,3.382-2.105" transform="translate(-57.794 -7.03)" fill="#848484"/>
        <path id="패스_163" data-name="패스 163" d="M111.12,41.033c0,2.022-1.384,5.1-8.415,5.1s-8.413-3.073-8.413-5.1,1.382-5.1,8.413-5.1,8.415,3.075,8.415,5.1m-8.415-2.812c-4.59,0-5.66,1.318-5.66,2.812s1.07,2.813,5.66,2.813,5.66-1.319,5.66-2.813-1.071-2.812-5.66-2.812" transform="translate(-28.161 -10.733)" fill="#848484"/>
        <path id="패스_164" data-name="패스 164" d="M40.884,2.875H40.26V3.9h-.665V2.875h-.637V5.919H36.911V3.414h1.349V2.878H36.552a.3.3,0,0,0-.278.311V6.146a.3.3,0,0,0,.278.309h.508v0H38.5a.159.159,0,0,0,.032,0,.153.153,0,0,0,.032,0,.664.664,0,0,0,.39-.136V7.533h.637v-3.1h.665v3.1h.635V2.875Z" transform="translate(-10.834 -0.859)" fill="#848484"/>
        <path id="패스_165" data-name="패스 165" d="M27.572,4.277l1.178,2.8L25.08,8.62l.205.493,3.232-1.357.03-.011c.008-.006.02-.008.029-.013.14-.072.342-.241.306-.33h0l.493,1.17.595-.249-1.8-4.293Z" transform="translate(-7.49 -1.203)" fill="#848484"/>
        <path id="패스_166" data-name="패스 166" d="M26.014,7.735c.853-.358,1.246-1.078.964-1.751a1.367,1.367,0,0,0-1.922-.539c-.853.359-1.245,1.077-.962,1.751a1.367,1.367,0,0,0,1.921.539M25.25,5.913c.479-.2.948-.112,1.128.323s-.081.831-.557,1.032-.946.114-1.129-.323.081-.833.558-1.032" transform="translate(-7.169 -1.576)" fill="#848484"/>
        <path id="패스_167" data-name="패스 167" d="M51.552,5.243l-1.039-.394.176-.462-.6-.229-.175.459-1.058-.4-.192.5,2.7,1.029Z" transform="translate(-14.533 -1.242)" fill="#848484"/>
        <path id="패스_168" data-name="패스 168" d="M54.2,6.156l-.592-.224L52.583,8.614l.593.226.44-1.152.739.281.189-.5-.739-.282Z" transform="translate(-15.705 -1.772)" fill="#848484"/>
        <path id="패스_169" data-name="패스 169" d="M51.258,9.691l-.422-.163L47.646,8.314l-.189.5,3.311,1.26-.388,1.016.592.227.468-1.225a.319.319,0,0,0-.182-.4" transform="translate(-14.174 -2.483)" fill="#848484"/>
        <path id="패스_170" data-name="패스 170" d="M49.07,7.658c.823.311,1.464.173,1.679-.391s-.171-1.1-.992-1.411-1.464-.17-1.678.395.168,1.094.991,1.408m.517-1.36c.425.163.664.473.562.739s-.487.341-.91.178-.664-.471-.561-.737.486-.34.908-.18" transform="translate(-14.341 -1.701)" fill="#848484"/>
        <path id="패스_171" data-name="패스 171" d="M58.761,14.78l1.312-1.535-.48-.411-1.312,1.531-.628-.537L58.96,12.3l-.483-.412-1.309,1.529-.644-.551-.346.406,3.675,3.143.346-.407Z" transform="translate(-16.778 -3.551)" fill="#848484"/>
        <path id="패스_172" data-name="패스 172" d="M60.989,14.366l.377.325c.1.065.38-.24.4-.256l1.493-1.749a.32.32,0,0,0,.064-.117.311.311,0,0,0-.1-.323l-.343-.3L60.4,9.83l-.344.407,2.581,2.2-1.351,1.579Z" transform="translate(-17.936 -2.936)" fill="#848484"/>
        <path id="패스_173" data-name="패스 173" d="M16.367,11.716l1.4-1.222-.351-.4-2.842,2.48-.395-.454,2.842-2.477-.353-.4-3.022,2.636-.065.055a.313.313,0,0,0-.029.438l.688.79a.313.313,0,0,0,.44.03l.063-.055.269-.238.872-.759.252.291-1.684,1.469.352.4,3.82-3.331-.351-.4L16.618,12Z" transform="translate(-4.025 -2.758)" fill="#848484"/>
        <path id="패스_174" data-name="패스 174" d="M20.176,13.619c.31.355.538,1.108-.7,2.185s-1.95.748-2.259.393-.536-1.108.7-2.186,1.95-.748,2.26-.392m-1.91.794c-.806.7-.792,1.1-.564,1.362s.618.332,1.425-.372.793-1.1.566-1.361-.619-.33-1.427.372" transform="translate(-5.07 -3.966)" fill="#848484"/>
        <path id="패스_175" data-name="패스 175" d="M10.731,24.008a.7.7,0,1,1-.7-.7.7.7,0,0,1,.7.7" transform="translate(-2.789 -6.962)" fill="#848484"/>
        <path id="패스_176" data-name="패스 176" d="M69.518,24.008a.7.7,0,1,1-.7-.7.7.7,0,0,1,.7.7" transform="translate(-20.346 -6.962)" fill="#848484"/>
        <path id="패스_177" data-name="패스 177" d="M7.357,33.785a2.988,2.988,0,0,1-.011.644,1.689,1.689,0,0,1-2.115,1.6A1.782,1.782,0,0,1,3.745,33.8a2.415,2.415,0,0,1,.123-.5ZM4.423,32.641c-.414-.058-.759-.065-.948-.45l-.022,0-.236,1.688A2.411,2.411,0,0,0,5.2,36.847c1.4.2,2.415-.678,2.638-2.284l.243-1.725-.022,0c-.155.344-.662.222-.986.178Z" transform="translate(-0.95 -9.614)" fill="#848484"/>
        <path id="패스_178" data-name="패스 178" d="M6.888,42.948a1.888,1.888,0,0,1-1.855,1.974,1.724,1.724,0,0,1-2.012-1.579,1.929,1.929,0,0,1,1.83-2.008,1.755,1.755,0,0,1,2.037,1.614m.514,0a2.528,2.528,0,0,0-2.7-2.413,2.486,2.486,0,0,0-2.2,2.823,2.533,2.533,0,0,0,2.743,2.357A2.452,2.452,0,0,0,7.4,42.948" transform="translate(-0.745 -12.103)" fill="#848484"/>
        <path id="패스_179" data-name="패스 179" d="M4.717,50.379c-.378.131-.647.218-.731.647l-.019.007-.416-1.188.02-.006c.332.282.6.19.976.059l2.676-.936c.376-.132.645-.225.725-.644l.019-.008.342.98-.008,0a.417.417,0,0,0-.13.158l-.1.141L5.828,53.129l2.542-.888c.375-.131.645-.219.722-.645l.02-.006.412,1.18-.02.007c-.323-.278-.592-.184-.968-.053L4.775,54.038A1.971,1.971,0,0,1,5.2,52.791l2.114-3.317Z" transform="translate(-1.061 -14.428)" fill="#848484"/>
        <path id="패스_180" data-name="패스 180" d="M12.537,59.475l-.011-.02a1.748,1.748,0,0,0-.321-1.3,1.827,1.827,0,0,0-2.625-.642,2,2,0,0,0-.6,2.793,3.541,3.541,0,0,0,.645.76l.861-.549c.277-.175.567-.368.5-.707L11,59.8l.586.916-.02.011a.879.879,0,0,0-.276.134l-1.378.878a.857.857,0,0,0-.252.2,9.434,9.434,0,0,1-1.092-1.317c-.978-1.535-.713-2.974.489-3.741,1.289-.821,2.746-.309,3.669,1.142a5.374,5.374,0,0,1,.5,1.006Z" transform="translate(-2.381 -16.873)" fill="#848484"/>
        <path id="패스_181" data-name="패스 181" d="M14.426,64.759a1.571,1.571,0,0,0-.489-.388v-.019l.569-.022a.634.634,0,0,1,.22.013,1.65,1.65,0,0,1,.316.289l.5.518a1.509,1.509,0,0,0,.488.387v.022l-.567.022a.677.677,0,0,1-.221-.017,1.707,1.707,0,0,1-.316-.288Z" transform="translate(-4.162 -19.212)" fill="#848484"/>
        <path id="패스_182" data-name="패스 182" d="M16.59,68.54l.664.616a1.783,1.783,0,0,0,1.3.468l.018.012-.821.543-2.35-1.8.013-.018c.365.121.651-.323.847-.578l1.629-2.124c.2-.259.548-.645.343-.973l.013-.018,1.806,1.383a.7.7,0,0,0,.287.175l.016.013-.506.66-.016-.013a.991.991,0,0,0-.493-.734,3.959,3.959,0,0,0-.605-.4L17.926,66.8l.671.516a.749.749,0,0,0,.274.156l.017.012-.457.6-.018-.013c.036-.231-.205-.408-.38-.542l-.417-.319Z" transform="translate(-4.599 -19.314)" fill="#848484"/>
        <path id="패스_183" data-name="패스 183" d="M24.591,73.125a1.77,1.77,0,0,1-1.509-.06,1.739,1.739,0,0,1-.956-.992,1.857,1.857,0,0,1,.261-1.422l.8-1.722c.135-.288.4-.739.127-1.013l.009-.02,1.224.569-.01.02c-.378-.027-.558.46-.693.75l-.8,1.72c-.4.856-.224,1.424.44,1.732a1.254,1.254,0,0,0,1.15-.014.928.928,0,0,0,.408-.522l.9-1.939c.136-.29.393-.743.127-1.016l.009-.018,1.225.567,0,.023c-.386-.032-.567.457-.7.755l-1.13,2.427c-.134.292-.391.743-.12,1.018l-.009.019-.948-.44Z" transform="translate(-6.59 -20.278)" fill="#848484"/>
        <path id="패스_184" data-name="패스 184" d="M30.844,72.333c.078-.318.251-.808-.068-1.026l0-.022,1.312.326-.006.02c-.377.045-.461.566-.538.877l-.645,2.6c-.077.311-.243.8.07,1.02l-.006.02-1.309-.323,0-.024c.377-.038.461-.558.539-.868Z" transform="translate(-8.857 -21.29)" fill="#848484"/>
        <path id="패스_185" data-name="패스 185" d="M41.89,76.25a1.769,1.769,0,0,1-1.352.67,1.733,1.733,0,0,1-1.314-.412,1.853,1.853,0,0,1-.452-1.373l-.124-1.893c-.02-.321,0-.841-.375-.952v-.02l1.347-.088v.02c-.346.158-.269.673-.249.992l.123,1.893c.061.943.486,1.356,1.217,1.309a1.249,1.249,0,0,0,1-.563.934.934,0,0,0,.107-.654l-.137-2.134c-.023-.319-.013-.84-.375-.951l0-.022,1.347-.086.008.019c-.353.159-.276.674-.256,1l.174,2.673c.021.319.013.84.382.95l0,.022-1.042.067Z" transform="translate(-11.43 -21.5)" fill="#848484"/>
        <path id="패스_186" data-name="패스 186" d="M48.031,74.327c.13.375.214.648.642.733l.008.02-1.189.408-.006-.019c.284-.33.191-.6.062-.976l-.926-2.681c-.13-.377-.222-.644-.64-.726l-.007-.02.981-.339,0,.007a.416.416,0,0,0,.158.134l.14.1,3.526,2.256-.876-2.545c-.129-.378-.215-.649-.642-.727l-.007-.02,1.183-.408.006.021c-.28.322-.187.59-.057.966l1.3,3.768a1.96,1.96,0,0,1-1.244-.428l-3.312-2.127Z" transform="translate(-13.731 -20.765)" fill="#848484"/>
        <path id="패스_187" data-name="패스 187" d="M54.188,69.261c-.164-.281-.381-.755-.763-.689l-.01-.02,1.167-.68.011.02c-.242.3.061.729.222,1.005l1.345,2.315c.161.277.386.746.761.685l.012.018-1.168.678-.011-.018c.242-.29-.058-.724-.22-1Z" transform="translate(-15.953 -20.271)" fill="#848484"/>
        <path id="패스_188" data-name="패스 188" d="M59.684,65.054c-.172-.513-.353-1.118-.807-.974l-.015-.016.818-.673,1.651,4.97a1.53,1.53,0,0,1-1.271-.181l-2.672-1.567a2.137,2.137,0,0,0-1.072-.434l-.014-.017.8-.657.048.069a2.932,2.932,0,0,0,.568.389l2.834,1.674Z" transform="translate(-16.816 -18.933)" fill="#848484"/>
        <path id="패스_189" data-name="패스 189" d="M65.783,63.334l.639-.644a1.772,1.772,0,0,0,.51-1.281l.014-.018.517.84-1.88,2.288-.017-.013c.13-.362-.3-.661-.551-.866l-2.069-1.7c-.253-.208-.627-.57-.962-.376l-.016-.013L63.411,59.8a.749.749,0,0,0,.185-.279l.013-.017.642.526-.014.018a.994.994,0,0,0-.751.467,4.028,4.028,0,0,0-.421.591l1.02.837.538-.652a.731.731,0,0,0,.165-.27L64.8,61l.581.479-.012.017c-.231-.043-.416.191-.555.361l-.333.407Z" transform="translate(-18.507 -17.771)" fill="#848484"/>
        <path id="패스_190" data-name="패스 190" d="M66.019,55.551c.452-.837,1.137-1.056,1.706-.748a1.387,1.387,0,0,1,.564,1.587l1.617-.288a4.981,4.981,0,0,0,1.422-.539l-.311.575a.932.932,0,0,1-.706.556l-1.356.252-1.192.1c.2-.541.28-1.248-.308-1.565a.813.813,0,0,0-1.129.429,3.872,3.872,0,0,0-.179.453l2.8,1.513c.288.156.724.44,1.009.184l.02.01-.647,1.194-.018-.011c.058-.379-.429-.586-.709-.738L66.244,57.24c-.286-.154-.72-.447-1.011-.19l-.018-.011Z" transform="translate(-19.477 -16.328)" fill="#848484"/>
        <path id="패스_191" data-name="패스 191" d="M69.758,49.077a1.611,1.611,0,0,0-.764.929c-.122.386-.126.922.342,1.069.929.292,1.651-2.042,2.9-1.647a1.731,1.731,0,0,1,.829,2.26,3.673,3.673,0,0,1-.586,1.147l-.91-.071A2.46,2.46,0,0,0,72.6,51.458c.122-.386.078-1.041-.4-1.191-1.059-.334-1.6,2.056-3.04,1.6-.854-.268-.9-1.245-.642-2.072a3.568,3.568,0,0,1,.466-.962Z" transform="translate(-20.424 -14.586)" fill="#848484"/>
        <path id="패스_192" data-name="패스 192" d="M70.649,46.486c-.322-.052-.825-.184-1.017.152h-.02l.215-1.334.02,0c.076.372.6.414.919.464l2.645.426c.315.05.819.175,1.009-.155l.022,0-.215,1.333-.022,0c-.07-.373-.595-.412-.911-.465Z" transform="translate(-20.79 -13.53)" fill="#848484"/>
        <path id="패스_193" data-name="패스 193" d="M73.9,40.379c.4.007.681.019.909-.353h.02L74.8,41.434h-.021c-.128-.358-.647-.328-.967-.332l-3.167-.062-.013.626a1.221,1.221,0,0,0,.268.851v.022l-.842-.266v-.022a1.132,1.132,0,0,0,.056-.267l0-.18.05-2.65a.761.761,0,0,0-.043-.326l0-.022.84.243v.022c-.252.086-.292.371-.3.605l-.013.64Z" transform="translate(-20.923 -11.59)" fill="#848484"/>
        <path id="패스_194" data-name="패스 194" d="M73.217,33.1c.421-.069.629-.105.83-.506l.022,0,.227,1.366-.022,0c-.231-.316-.677-.189-1.009-.135L72.228,34l-1.678,1.476a1.732,1.732,0,0,0-.611.785l-.106-.637a.609.609,0,0,1,.109-.558l1.642-1.427-1.448-.652c-.2-.089-.558-.194-.684.229l-.019,0L69.228,32l2.881,1.292Z" transform="translate(-20.676 -9.556)" fill="#848484"/>
        <path id="패스_195" data-name="패스 195" d="M46.686,22.242c-10.268-1.887-12.541-3.306-12.541-3.306s-2.256,1.409-12.428,3.286c-.356.074-.358.236-.356.391.2,4.679.181,12.353-.014,17.469,0,5.975,12.11,10.505,12.625,10.694a.471.471,0,0,0,.342,0c.517-.189,12.627-4.719,12.627-10.694-.13-4.449-.224-14.913-.022-17.54.011-.142,0-.263-.234-.3m-6.2,3.458c1.254.141,2.434.323,3.507.536V32.65c0,1.779-.584,2.332-1.756,2.332s-1.751-.553-1.751-2.332Zm-10.412-.216v3.064c-.515-1.519-1.683-2.4-3.876-2.638,1.275-.194,2.574-.333,3.876-.426m-5.924,2.169h1.1c2.143,0,2.962.911,2.962,3.279,0,2.7-1.029,3.767-2.73,3.767H24.146Zm7.966,16.423h-.466V42.342h-.562v-.333c.322,0,.592-.088.686-.434h.342Zm1.72-.96c0,.795-.227,1.011-.721,1.011-.365,0-.63-.169-.616-.565h.434c0,.085.012.206.2.2.261,0,.235-.318.243-.467v-.16a.427.427,0,0,1-.368.167c-.394,0-.565-.269-.565-.783,0-.626.153-.95.692-.95.555,0,.7.362.7.95Zm-2.467-6.268a3.872,3.872,0,0,1-1.295-.773V47.927c-3.445-1.795-7.732-4.665-7.732-7.845V36.509h3.3a4.365,4.365,0,0,0,3.574-1.567c.047-.058.093-.116.139-.177.022-.036.048-.069.07-.1s.039-.056.055-.082c.034-.049.062-.1.092-.145.008-.016.019-.032.031-.051.032-.055.064-.114.094-.171.006-.008.008-.018.013-.026.035-.065.068-.13.1-.2l.006-.008a5.4,5.4,0,0,0,.255-.659,7.387,7.387,0,0,0,.33-2.145,8.354,8.354,0,0,0-.26-2.406C32.2,25,35.1,24.31,36.6,24.374c2.269.1,2.545,2.786,1.434,4.405-1.317,1.919-4.331,2.734-5.848,2.854-.581,2.916.609,3.64,1.21,3.778,1.88.427,4.488-1.84,5.374-5.26.093-.355.32-.546.24-.066-.823,5.046-4.254,7.985-7.643,6.762m4.017,5.106a4.781,4.781,0,0,0-.466,1.208,4.353,4.353,0,0,0-.147.913h-.478a5.114,5.114,0,0,1,.395-1.527,3.517,3.517,0,0,1,.286-.566h-1v-.366H35.38Zm1.565,0a4.785,4.785,0,0,0-.467,1.208,4.593,4.593,0,0,0-.147.913h-.478a5.176,5.176,0,0,1,.394-1.527,3.563,3.563,0,0,1,.29-.566h-1v-.366h1.406Zm9-1.873c0,3.188-4.3,6.06-7.751,7.854V33.894c.258,1.847,1.812,2.9,4.034,2.9a3.88,3.88,0,0,0,3.717-1.867Z" transform="translate(-6.376 -5.656)" fill="#848484"/>
        <path id="패스_196" data-name="패스 196" d="M38.047,51.724c-.243,0-.216.23-.216.551,0,.181-.025.45.226.45.229,0,.229-.244.229-.45,0-.309.011-.574-.239-.551" transform="translate(-11.298 -15.448)" fill="#848484"/>
        <path id="패스_197" data-name="패스 197" d="M40.961,27.4c-.627-.115-2.164.919-3.536,4.74-.2.549-.349,1.051-.462,1.5,3.892-1.022,5.165-6.029,4-6.241" transform="translate(-11.039 -8.181)" fill="#848484"/>
        <path id="패스_198" data-name="패스 198" d="M31.008,52.646c-11.113,0-20.153-9.3-20.153-20.726S19.9,11.2,31.008,11.2s20.156,9.295,20.156,20.72S42.122,52.646,31.008,52.646m0-41.019c-10.877,0-19.726,9.1-19.726,20.293s8.849,20.3,19.726,20.3,19.729-9.105,19.729-20.3-8.85-20.293-19.729-20.293" transform="translate(-3.242 -3.345)" fill="#848484"/>
        <path id="패스_199" data-name="패스 199" d="M27.766,57.151C12.456,57.151,0,44.332,0,28.574S12.456,0,27.766,0,55.533,12.818,55.533,28.574,43.076,57.151,27.766,57.151m0-56.724C12.691.427.428,13.054.428,28.574s12.264,28.15,27.338,28.15S55.1,44.1,55.1,28.574,42.841.427,27.766.427" transform="translate(0 0)" fill="#848484"/>
      </g>
    </g>
  </g>
</svg>
