<svg xmlns="http://www.w3.org/2000/svg" xmlns:xlink="http://www.w3.org/1999/xlink" width="43.39" height="43.394" viewBox="0 0 43.39 43.394">
  <defs>
    <filter id="megaphone" x="0" y="0" width="43.39" height="43.394" filterUnits="userSpaceOnUse">
      <feOffset dx="2" dy="2" input="SourceAlpha"/>
      <feGaussianBlur stdDeviation="2" result="blur"/>
      <feFlood flood-opacity="0.2"/>
      <feComposite operator="in" in2="blur"/>
      <feComposite in="SourceGraphic"/>
    </filter>
  </defs>
  <g id="icon-공지사항" transform="translate(-8202 15842)">
    <rect id="사각형_2076" data-name="사각형 2076" width="40" height="40" transform="translate(8202 -15842)" fill="#ff4e4e" opacity="0"/>
    <g transform="matrix(1, 0, 0, 1, 8202, -15842)" filter="url(#megaphone)">
      <path id="megaphone-2" data-name="megaphone" d="M33.121,42.042v.046a1.218,1.218,0,0,1-.294.787v0A3.8,3.8,0,0,0,32,45.405a3.837,3.837,0,0,0,.818,2.516,1.331,1.331,0,0,1,.3.847,2.242,2.242,0,0,0,2.242,2.242h.561a.561.561,0,0,0,.561-.561V40.36a.561.561,0,0,0-.561-.561h-.561A2.242,2.242,0,0,0,33.121,42.042Zm28.32.739-.065-.012a.28.28,0,0,1-.228-.275v-8.44a2.125,2.125,0,0,0-1.464-1.984,1.964,1.964,0,0,0-2.22.6,30.212,30.212,0,0,1-3.6,3.622,17.121,17.121,0,0,1-4.695,2.965.561.561,0,0,0-.361.523V50.66a1.121,1.121,0,0,0,.679,1.029,17.72,17.72,0,0,1,4.344,2.822,30.391,30.391,0,0,1,3.621,3.655,1.837,1.837,0,0,0,1.478.692,2.317,2.317,0,0,0,.732-.122,2.067,2.067,0,0,0,1.48-1.952V48.315a.28.28,0,0,1,.233-.276l.06-.01a2.741,2.741,0,0,0,0-5.248ZM46.574,52.132V40.36a.561.561,0,0,0-.561-.561H39.287a.561.561,0,0,0-.561.561v21.3a1.682,1.682,0,0,0,1.682,1.682h3.675A2.288,2.288,0,0,0,45.9,62.47a2.218,2.218,0,0,0,.365-2.035c-.114-.363-.254-.771-.4-1.2-.554-1.6-1.285-2.6-1.48-4.857A2.242,2.242,0,0,0,46.574,52.132Z" transform="translate(-28 -27.95)" fill="#fff"/>
    </g>
  </g>
</svg>
