<svg xmlns="http://www.w3.org/2000/svg" xmlns:xlink="http://www.w3.org/1999/xlink" width="43" height="43" viewBox="0 0 43 43">
  <defs>
    <filter id="패스_1293" x="27.511" y="10.938" width="15.489" height="30.317" filterUnits="userSpaceOnUse">
      <feOffset dx="2" dy="2" input="SourceAlpha"/>
      <feGaussianBlur stdDeviation="2" result="blur"/>
      <feFlood flood-opacity="0.161"/>
      <feComposite operator="in" in2="blur"/>
      <feComposite in="SourceGraphic"/>
    </filter>
    <filter id="패스_1294" x="1" y="1" width="39.383" height="42" filterUnits="userSpaceOnUse">
      <feOffset dx="2" dy="2" input="SourceAlpha"/>
      <feGaussianBlur stdDeviation="2" result="blur-2"/>
      <feFlood flood-opacity="0.161"/>
      <feComposite operator="in" in2="blur-2"/>
      <feComposite in="SourceGraphic"/>
    </filter>
  </defs>
  <g id="icon-캠페인" transform="translate(-8439 15963)">
    <rect id="사각형_2079" data-name="사각형 2079" width="40" height="40" transform="translate(8439 -15963)" fill="#ff4e4e" opacity="0"/>
    <g id="newspaper" transform="translate(8444 -15958)">
      <g transform="matrix(1, 0, 0, 1, -5, -5)" filter="url(#패스_1293)">
        <path id="패스_1293-2" data-name="패스 1293" d="M417.3,112H416a0,0,0,0,0,0,0v16.568a1.744,1.744,0,1,0,3.489,0V114.185A2.185,2.185,0,0,0,417.3,112Z" transform="translate(-384.49 -97.06)" fill="#fff"/>
      </g>
      <g transform="matrix(1, 0, 0, 1, -5, -5)" filter="url(#패스_1294)">
        <path id="패스_1294-2" data-name="패스 1294" d="M56.1,57.714V34.679A2.709,2.709,0,0,0,53.359,32H34.738A2.709,2.709,0,0,0,32,34.679V58.25A3.793,3.793,0,0,0,35.834,62H59.3a.079.079,0,0,0,.056-.022.076.076,0,0,0,.023-.055.077.077,0,0,0-.058-.074A4.309,4.309,0,0,1,56.1,57.714ZM36.381,38.429a1.084,1.084,0,0,1,1.1-1.071h4.381a1.084,1.084,0,0,1,1.1,1.071v4.286a1.084,1.084,0,0,1-1.1,1.071H37.477a1.084,1.084,0,0,1-1.1-1.071ZM50.621,56.643H37.507a1.107,1.107,0,0,1-1.125-1.02,1.058,1.058,0,0,1,.3-.791,1.107,1.107,0,0,1,.793-.332H50.59a1.107,1.107,0,0,1,1.125,1.02,1.058,1.058,0,0,1-.3.791A1.107,1.107,0,0,1,50.621,56.643Zm0-4.286H37.507a1.107,1.107,0,0,1-1.125-1.02,1.058,1.058,0,0,1,.3-.791,1.107,1.107,0,0,1,.793-.332H50.59a1.107,1.107,0,0,1,1.125,1.02,1.058,1.058,0,0,1-.3.791,1.107,1.107,0,0,1-.793.332Zm0-4.286H37.507a1.107,1.107,0,0,1-1.125-1.02,1.058,1.058,0,0,1,.3-.791,1.107,1.107,0,0,1,.793-.332H50.59a1.107,1.107,0,0,1,1.125,1.02,1.058,1.058,0,0,1-.3.791A1.107,1.107,0,0,1,50.621,48.071Zm0-4.286H46.27a1.107,1.107,0,0,1-1.125-1.02,1.058,1.058,0,0,1,.3-.791,1.107,1.107,0,0,1,.793-.332H50.59a1.107,1.107,0,0,1,1.125,1.02,1.058,1.058,0,0,1-.3.791,1.107,1.107,0,0,1-.793.332Zm0-4.286H46.27a1.107,1.107,0,0,1-1.125-1.02,1.058,1.058,0,0,1,.3-.791,1.107,1.107,0,0,1,.793-.332H50.59a1.107,1.107,0,0,1,1.125,1.02,1.058,1.058,0,0,1-.3.791A1.107,1.107,0,0,1,50.621,39.5Z" transform="translate(-27 -27)" fill="#fff"/>
      </g>
    </g>
  </g>
</svg>
