<svg xmlns="http://www.w3.org/2000/svg" xmlns:xlink="http://www.w3.org/1999/xlink" width="43" height="43" viewBox="0 0 43 43">
  <defs>
    <filter id="패스_1291" x="1" y="1" width="42" height="42" filterUnits="userSpaceOnUse">
      <feOffset dx="2" dy="2" input="SourceAlpha"/>
      <feGaussianBlur stdDeviation="2" result="blur"/>
      <feFlood flood-opacity="0.2"/>
      <feComposite operator="in" in2="blur"/>
      <feComposite in="SourceGraphic"/>
    </filter>
    <filter id="패스_1292" x="2.027" y="21.74" width="20.229" height="20.232" filterUnits="userSpaceOnUse">
      <feOffset dx="2" dy="2" input="SourceAlpha"/>
      <feGaussianBlur stdDeviation="2" result="blur-2"/>
      <feFlood flood-opacity="0.2"/>
      <feComposite operator="in" in2="blur-2"/>
      <feComposite in="SourceGraphic"/>
    </filter>
    <filter id="패스_1290" x="19.189" y="9.401" width="15.433" height="15.433" filterUnits="userSpaceOnUse">
      <feOffset dx="2" dy="2" input="SourceAlpha"/>
      <feGaussianBlur stdDeviation="2" result="blur-3"/>
      <feFlood flood-opacity="0.2"/>
      <feComposite operator="in" in2="blur-3"/>
      <feComposite in="SourceGraphic"/>
    </filter>
  </defs>
  <g id="icon-리빙랩" transform="translate(-8384 15963)">
    <rect id="사각형_2078" data-name="사각형 2078" width="40" height="40" transform="translate(8384 -15963)" fill="#ff4e4e" opacity="0"/>
    <g id="rocket" transform="translate(8389 -15958)">
      <g transform="matrix(1, 0, 0, 1, -5, -5)" filter="url(#패스_1291)">
        <path id="패스_1291-2" data-name="패스 1291" d="M61.845,33.211a.019.019,0,0,1,0-.006,1.366,1.366,0,0,0-1.013-1.025c-2-.487-5.135.032-8.614,1.425a27.7,27.7,0,0,0-9.012,5.707,21.475,21.475,0,0,0-1.979,2.265,8.778,8.778,0,0,0-3.922.63c-3.867,1.7-4.971,6.056-5.265,7.844a1.674,1.674,0,0,0,1.821,1.942h.009l4.307-.47c.005.055.011.105.016.151a2.3,2.3,0,0,0,.663,1.388l2.1,2.1a2.3,2.3,0,0,0,1.387.664l.144.015-.469,4.3v.009a1.662,1.662,0,0,0,1.926,1.823c1.8-.289,6.151-1.38,7.848-5.267a8.855,8.855,0,0,0,.633-3.907A21.079,21.079,0,0,0,54.7,50.827a27.5,27.5,0,0,0,5.713-8.941C61.8,38.446,62.32,35.283,61.845,33.211ZM54.676,44.922a3.9,3.9,0,1,1,1.164-2.781A3.936,3.936,0,0,1,54.676,44.922Z" transform="translate(-27.02 -27)" fill="#fff"/>
      </g>
      <g transform="matrix(1, 0, 0, 1, -5, -5)" filter="url(#패스_1292)">
        <path id="패스_1292-2" data-name="패스 1292" d="M55.321,339.225a1.029,1.029,0,0,0-.707.172c-.411.281-.824.559-1.24.829a.959.959,0,0,1-1.35-1.286l.781-1.35a1.029,1.029,0,0,0-.975-1.6,3.938,3.938,0,0,0-2.291,1.123c-.235.236-.951.952-1.336,3.682A23.014,23.014,0,0,0,48,343.157a1.029,1.029,0,0,0,1.029,1.055h.026a23.146,23.146,0,0,0,2.366-.206c2.731-.386,3.447-1.1,3.682-1.337a3.89,3.89,0,0,0,1.118-2.3A1.029,1.029,0,0,0,55.321,339.225Z" transform="translate(-41.97 -310.24)" fill="#fff"/>
      </g>
      <g transform="matrix(1, 0, 0, 1, -5, -5)" filter="url(#패스_1290)">
        <path id="패스_1290-2" data-name="패스 1290" d="M303.887,156.79a1.716,1.716,0,1,0,1.214.5A1.716,1.716,0,0,0,303.887,156.79Z" transform="translate(-278.98 -143.39)" fill="#fff"/>
      </g>
    </g>
  </g>
</svg>
