<svg xmlns="http://www.w3.org/2000/svg" xmlns:xlink="http://www.w3.org/1999/xlink" width="360.088" height="55.904" viewBox="0 0 360.088 55.904">
  <defs>
    <clipPath id="clip-path">
      <rect id="사각형_1946" data-name="사각형 1946" width="360.088" height="55.904" fill="none"/>
    </clipPath>
  </defs>
  <g id="그룹_498" data-name="그룹 498" clip-path="url(#clip-path)">
    <path id="패스_581" data-name="패스 581" d="M147.206,16.791a7.083,7.083,0,0,0-4.545-1.479h-.628v-6.8a6.267,6.267,0,0,0-2.245-5.058,8.052,8.052,0,0,0-9.721,0A6.009,6.009,0,0,0,128.115,6.4a8.205,8.205,0,0,0-3.724-.8h-4.106a5.994,5.994,0,0,0-2.046-3.989,7.782,7.782,0,0,0-9.494,0A6,6,0,0,0,106.7,5.606h-4.625a7.69,7.69,0,0,0-4.457,1.225,5.572,5.572,0,0,0-2.285,4.894,5.572,5.572,0,0,0,2.284,4.894,7.079,7.079,0,0,0,3.247,1.156A10.823,10.823,0,0,0,99.2,20.03a10.287,10.287,0,0,0-.946,2.4,7.39,7.39,0,0,0-4.324-1.255c.11-.741.212-1.514.3-2.308.125-1.075.226-2.161.3-3.231.073-1.086.11-2.087.11-2.979V9.6a7.008,7.008,0,0,0-2.006-5.3c-1.31-1.247-3.2-1.853-5.775-1.853H77.831a7.438,7.438,0,0,0-4.538,1.335q-.1.071-.192.151a8.154,8.154,0,0,0-5.132-1.486H59.2a7.439,7.439,0,0,0-4.538,1.335,5.741,5.741,0,0,0-2.2,4.889,5.736,5.736,0,0,0,2.2,4.888A7.435,7.435,0,0,0,59.2,14.887h3.016v.005c0,.429-.017,1-.049,1.706-.032.677-.089,1.415-.169,2.193s-.176,1.567-.288,2.386H55.045a7.77,7.77,0,0,0-3.794.886V8.352c0-4.031-2.444-6.535-6.379-6.535a6.049,6.049,0,0,0-5.279,2.51,6.232,6.232,0,0,0-4.9-1.991A5.922,5.922,0,0,0,29.032,5.5,7.917,7.917,0,0,0,24.42,4.256h-4.2a5.976,5.976,0,0,0-3.42.916,7.6,7.6,0,0,0-3.9-.916H8.069a6.452,6.452,0,0,0-4.6,1.661,6.153,6.153,0,0,0-1.836,4.666,6.153,6.153,0,0,0,1.837,4.667,6.124,6.124,0,0,0,3.581,1.6,28.358,28.358,0,0,1-.39,3.473,31.807,31.807,0,0,1-1.21,4.748,35.017,35.017,0,0,1-1.89,4.5A33.481,33.481,0,0,1,1.14,33.64,6.357,6.357,0,0,0,.31,35.32a6.172,6.172,0,0,0-.3,2.225,6,6,0,0,0,.646,2.442A6.289,6.289,0,0,0,2.482,42.15c.038.029.077.058.116.085a6.478,6.478,0,0,0,2.524,1.074,7.083,7.083,0,0,0,1.289.121,6.376,6.376,0,0,0,1.06-.088,6.18,6.18,0,0,0,2.168-.793,5.812,5.812,0,0,0,1.678-1.491c.471-.629.917-1.282,1.351-1.946a6.941,6.941,0,0,0-.18,1.577,6.157,6.157,0,0,0,.489,2.387,5.313,5.313,0,0,0,2.07,2.406A6.4,6.4,0,0,0,18.7,46.665a6.115,6.115,0,0,0,1.434-.172,6.138,6.138,0,0,0,3.66-2.238l.014-.02A31.27,31.27,0,0,0,27.594,37.1q.381-.995.724-2.012V47.9c0,4,2.444,6.483,6.379,6.483a6.408,6.408,0,0,0,4.537-1.616,5.925,5.925,0,0,0,5.637,3.121c3.935,0,6.379-2.5,6.379-6.535V32.843a7.772,7.772,0,0,0,3.794.886H68.167A6.121,6.121,0,0,0,67.4,36.8v1.869a1.3,1.3,0,0,1-.386.648,8.8,8.8,0,0,1-2.237,1.709,23.521,23.521,0,0,1-3.642,1.634,32.533,32.533,0,0,1-4.012,1.154,5.913,5.913,0,0,0-2.243.91,6.319,6.319,0,0,0-1.691,1.648,5.941,5.941,0,0,0-.856,5.013,5.528,5.528,0,0,0,3.344,4,8,8,0,0,0,2.928.526,10.5,10.5,0,0,0,1.289-.083,23.4,23.4,0,0,0,4.69-1,38.009,38.009,0,0,0,4.45-1.746,29.6,29.6,0,0,0,4.125-2.338q.675-.46,1.294-.932.619.472,1.295.933a29.565,29.565,0,0,0,4.124,2.338,37.953,37.953,0,0,0,4.448,1.745,23.4,23.4,0,0,0,4.692,1A10.42,10.42,0,0,0,90.3,55.9a8,8,0,0,0,2.928-.526,5.538,5.538,0,0,0,3.352-4.03,5.938,5.938,0,0,0-.883-5.005,6.212,6.212,0,0,0-3.877-2.525,32.483,32.483,0,0,1-4.049-1.162,23.49,23.49,0,0,1-3.64-1.633A8.765,8.765,0,0,1,81.9,39.314a1.293,1.293,0,0,1-.388-.649V36.8a6.121,6.121,0,0,0-.763-3.068H93.871a7.319,7.319,0,0,0,4.578-1.392,5.231,5.231,0,0,0,.956-.955,10.924,10.924,0,0,0,3.442,3.556,14.442,14.442,0,0,0,2.051,1.1,6.625,6.625,0,0,0-1.888,4.856v6.9a7.579,7.579,0,0,0,1.954,5.644c1.295,1.264,3.15,1.878,5.671,1.878h26.213a6.515,6.515,0,0,0,4.623-1.688,6.2,6.2,0,0,0,1.86-4.691,6.2,6.2,0,0,0-1.861-4.691,6.509,6.509,0,0,0-4.622-1.688H117.326V40.9a7.052,7.052,0,0,0-.806-3.4,21.864,21.864,0,0,0,2.689-.482,16.025,16.025,0,0,0,4.926-2.08,10.928,10.928,0,0,0,3.645-3.9c.014-.026.027-.054.041-.081V35.81a6.35,6.35,0,0,0,2.216,5.06,7.946,7.946,0,0,0,9.78,0,6.349,6.349,0,0,0,2.215-5.06V28.071h.628a7.077,7.077,0,0,0,4.545-1.478,5.958,5.958,0,0,0,2.146-4.9,5.96,5.96,0,0,0-2.146-4.9m-71.671,1.7c.07-1.035.124-2.062.161-3.051q.014-.405.025-.786a9.181,9.181,0,0,0,2.11.231h3.275v.005c0,.391-.031.941-.092,1.634-.068.762-.152,1.551-.249,2.341-.092.751-.2,1.527-.324,2.31H75.259c.123-.886.216-1.787.277-2.685m39.55,7.04a2.293,2.293,0,0,1-.468.147,5.417,5.417,0,0,1-1.128.118,5.32,5.32,0,0,1-1.122-.117,2.314,2.314,0,0,1-.474-.148,2.374,2.374,0,0,1,.473-.148,5.472,5.472,0,0,1,2.25,0,2.286,2.286,0,0,1,.469.147m12.7-5.5a10.85,10.85,0,0,0-1.727-2.323,7.438,7.438,0,0,0,1.768-.518V20.11c-.014-.026-.026-.053-.04-.079" transform="translate(0 0)" fill="#e9f7ff"/>
    <path id="패스_582" data-name="패스 582" d="M448.586,12.442a7.781,7.781,0,0,0-9.495,0,6.184,6.184,0,0,0-2.1,4.92v4.314h-3.28V17.36a6.187,6.187,0,0,0-2.1-4.918,7.781,7.781,0,0,0-9.494,0,6.184,6.184,0,0,0-2.1,4.92V42.275c0,5.067,3.045,8.092,8.144,8.092H442.54c5.1,0,8.144-3.025,8.144-8.092V17.36a6.189,6.189,0,0,0-2.1-4.918m-11.6,21.887v3.384h-3.28V34.328Z" transform="translate(-264.947 -6.828)" fill="#e9f7ff"/>
    <path id="패스_583" data-name="패스 583" d="M570.745,21.583a6.8,6.8,0,0,0-4.615-1.61H565.4v-8.31a6.351,6.351,0,0,0-2.216-5.06,7.945,7.945,0,0,0-9.779,0,6.353,6.353,0,0,0-2.217,5.061V33.019a6.5,6.5,0,0,0-2.921-.668,8.136,8.136,0,0,0-1.375.121c-1.737.295-3.651.529-5.681.693-1.681.137-3.416.207-5.161.207q-.531,0-1.067-.008h-.155V20.222h9.607a6.355,6.355,0,0,0,4.658-1.773,6.355,6.355,0,0,0,1.773-4.659,6.357,6.357,0,0,0-1.772-4.657,6.36,6.36,0,0,0-4.66-1.774h-15.52c-5.132,0-8.2,3.025-8.2,8.092v4.828a8.032,8.032,0,0,0-1.821-.2h-.732V11.663a6.349,6.349,0,0,0-2.216-5.06,7.945,7.945,0,0,0-9.779,0,6.353,6.353,0,0,0-2.217,5.061V52.253a6.353,6.353,0,0,0,2.215,5.059,7.946,7.946,0,0,0,9.781,0,6.353,6.353,0,0,0,2.216-5.06V33.095h.732a8.051,8.051,0,0,0,1.821-.2v5.139c0,5.067,3.064,8.093,8.2,8.093h5.347c2.624,0,5.151-.089,7.513-.265a70.054,70.054,0,0,0,7.171-.913,7.051,7.051,0,0,0,2.243-.789v8.1a6.353,6.353,0,0,0,2.214,5.059,7.946,7.946,0,0,0,9.781,0,6.351,6.351,0,0,0,2.217-5.06V32.991h.732a6.8,6.8,0,0,0,4.615-1.61,6.175,6.175,0,0,0,2.024-4.873,6.232,6.232,0,0,0-2.024-4.925" transform="translate(-317.893 -3.104)" fill="#e9f7ff"/>
    <path id="패스_584" data-name="패스 584" d="M800.522,17.3a7.083,7.083,0,0,0-4.546-1.479h-.628V11.611A6.266,6.266,0,0,0,793.1,6.553a8.052,8.052,0,0,0-9.721,0,6.269,6.269,0,0,0-2.246,5.059V24.9c-.19-.149-.389-.294-.6-.433l-.047-.031a19.513,19.513,0,0,1-5.237-4.64,8.053,8.053,0,0,1-1.55-4.966V12.078a6.015,6.015,0,0,0-2.322-5.087,8.626,8.626,0,0,0-9.567,0,6.014,6.014,0,0,0-2.323,5.088v2.751a8.586,8.586,0,0,1-1.672,5.2,23.893,23.893,0,0,1-5.443,5.215,7.615,7.615,0,0,0-3.1,4.1,6.117,6.117,0,0,0-.186,2.613,8.5,8.5,0,0,0-1.856-.2H745.92a7.844,7.844,0,0,0,2.039-5.663V12.7a6.323,6.323,0,0,0-2.09-4.941,7.039,7.039,0,0,0-4.808-1.7,7.144,7.144,0,0,0-4.807,1.675,6.142,6.142,0,0,0-2.1,4.139H721.445a6.146,6.146,0,0,0-2.1-4.138,7.735,7.735,0,0,0-9.615,0,6.285,6.285,0,0,0-2.143,4.964V26.093a7.688,7.688,0,0,0,2.058,5.663h-1.336a6.842,6.842,0,0,0-4.721,1.636,6.221,6.221,0,0,0-1.97,4.848,6.216,6.216,0,0,0,1.971,4.849,6.834,6.834,0,0,0,4.72,1.634h12.359v7.531a6.353,6.353,0,0,0,2.174,5.12,8.307,8.307,0,0,0,9.864,0,6.358,6.358,0,0,0,2.175-5.121V44.722h12.359a6.84,6.84,0,0,0,4.721-1.636,6.22,6.22,0,0,0,1.97-4.848,8.411,8.411,0,0,0-.046-.885,6.721,6.721,0,0,0,.668.126,7.526,7.526,0,0,0,1.009.068,7.69,7.69,0,0,0,2.056-.286,6.752,6.752,0,0,0-1.29,4.142v9.5a7.505,7.505,0,0,0,2.006,5.668A7.849,7.849,0,0,0,764,58.425h26.42a6.518,6.518,0,0,0,4.623-1.688,6.845,6.845,0,0,0,0-9.383,6.512,6.512,0,0,0-4.623-1.688H770.641V41.405a6.542,6.542,0,0,0-2.208-5.134,7.412,7.412,0,0,0-4.95-1.764,8.935,8.935,0,0,0-.9.05,26.424,26.424,0,0,0,2.146-1.774q1.032-.949,1.952-1.96a23.488,23.488,0,0,0,1.915,1.706,29.824,29.824,0,0,0,5.014,3.254l.022.011a8.515,8.515,0,0,0,3.829.944,7.919,7.919,0,0,0,.93-.055,6.036,6.036,0,0,0,2.745-1.02v1.695a6.349,6.349,0,0,0,2.217,5.06,7.946,7.946,0,0,0,9.78,0,6.348,6.348,0,0,0,2.215-5.059V28.579h.628A7.076,7.076,0,0,0,800.52,27.1a5.958,5.958,0,0,0,2.147-4.9,5.961,5.961,0,0,0-2.145-4.9" transform="translate(-442.579 -3.104)" fill="#e9f7ff"/>
    <path id="패스_585" data-name="패스 585" d="M13.116,22.108a3.6,3.6,0,0,1-2.569-.857,3.294,3.294,0,0,1-.909-2.518,3.3,3.3,0,0,1,.909-2.517,3.6,3.6,0,0,1,2.569-.857h4.827a3.619,3.619,0,0,1,3.036,1.064,5.367,5.367,0,0,1,.8,3.244v2.024a53.237,53.237,0,0,1-.441,6.8,44.209,44.209,0,0,1-1.4,6.722,42.933,42.933,0,0,1-2.439,6.41A33.854,33.854,0,0,1,14,47.438a2.858,2.858,0,0,1-.83.727,3.238,3.238,0,0,1-1.142.415,3.784,3.784,0,0,1-1.324-.026,3.541,3.541,0,0,1-1.376-.6,3.348,3.348,0,0,1-.986-1.142A3.059,3.059,0,0,1,8,45.569,3.221,3.221,0,0,1,8.159,44.4a3.385,3.385,0,0,1,.441-.908,36.3,36.3,0,0,0,2.647-4.438A37.785,37.785,0,0,0,13.3,34.176a34.581,34.581,0,0,0,1.324-5.19,30.844,30.844,0,0,0,.467-5.321V22.627q0-.518-.467-.519Zm7.942,24.552a47.4,47.4,0,0,0,4.568-11.576A47.251,47.251,0,0,0,27.079,23.82V22.627a.459.459,0,0,0-.518-.519h-1.3a2.43,2.43,0,0,1-2.206-.857,4.727,4.727,0,0,1-.545-2.518,4.728,4.728,0,0,1,.545-2.517,2.43,2.43,0,0,1,2.206-.857h4.2A4.441,4.441,0,0,1,32.788,16.4a4.711,4.711,0,0,1,.987,3.322v1.972q0,3.27-.39,7.163a67.565,67.565,0,0,1-1.245,7.786,52.8,52.8,0,0,1-2.258,7.552,28.19,28.19,0,0,1-3.425,6.462,3.57,3.57,0,0,1-4.724.519,2.435,2.435,0,0,1-.986-1.09,3.2,3.2,0,0,1-.26-1.246,3.891,3.891,0,0,1,.182-1.194,6.822,6.822,0,0,1,.389-.986M43.17,56.054q0,3.529-3.426,3.53t-3.426-3.53V16.969q0-3.529,3.426-3.53t3.426,3.53V28.7h3.322V16.5q0-3.581,3.426-3.582T53.344,16.5V57.508q0,3.581-3.426,3.582t-3.426-3.582V35.759H43.17Z" transform="translate(-5.046 -8.15)" fill="#0066c1"/>
    <path id="패스_586" data-name="패스 586" d="M181.444,33.345a4.45,4.45,0,0,1,2.777.779,3.008,3.008,0,0,1,1.012,2.543,3.007,3.007,0,0,1-1.012,2.543,4.452,4.452,0,0,1-2.777.779H142.618a4.451,4.451,0,0,1-2.777-.779,3.007,3.007,0,0,1-1.012-2.543,3.008,3.008,0,0,1,1.012-2.543,4.449,4.449,0,0,1,2.777-.779h9.136q.259-1.141.441-2.466t.311-2.569q.13-1.246.182-2.362t.052-1.842V21.822a.8.8,0,0,0-.13-.545.8.8,0,0,0-.545-.13H146.77a4.562,4.562,0,0,1-2.777-.753,2.932,2.932,0,0,1-1.012-2.517,2.936,2.936,0,0,1,1.012-2.518,4.567,4.567,0,0,1,2.777-.752h8.772q2.7,0,3.763,1.3a5.236,5.236,0,0,1,1.064,3.426v2.7q0,1.09-.052,2.517t-.156,2.959q-.1,1.531-.337,3.036t-.545,2.8h11.212q.207-1.037.415-2.336t.363-2.569q.156-1.272.26-2.44t.1-1.894V21.822a.806.806,0,0,0-.13-.545.806.806,0,0,0-.545-.13h-5.554a4.561,4.561,0,0,1-2.777-.753,2.932,2.932,0,0,1-1.012-2.517,2.936,2.936,0,0,1,1.012-2.518,4.566,4.566,0,0,1,2.777-.752h9.032a5.363,5.363,0,0,1,3.737,1.038,4.184,4.184,0,0,1,1.09,3.166v3.063q0,1.246-.1,2.777t-.286,3.089q-.183,1.557-.415,3.01t-.493,2.6Zm-19.413,21.8a23,23,0,0,1-2.959,2.361,26.506,26.506,0,0,1-3.711,2.1,34.958,34.958,0,0,1-4.1,1.609,20.317,20.317,0,0,1-4.127.882,5.655,5.655,0,0,1-2.8-.26,2.59,2.59,0,0,1-1.557-1.973,3.122,3.122,0,0,1-.078-1.427,3.036,3.036,0,0,1,.493-1.168,3.363,3.363,0,0,1,.908-.882,2.958,2.958,0,0,1,1.168-.467,35.225,35.225,0,0,0,4.438-1.272,26.313,26.313,0,0,0,4.1-1.843,11.658,11.658,0,0,0,2.985-2.31,3.913,3.913,0,0,0,1.142-2.621V46.01a2.922,2.922,0,0,1,1.064-2.414,5.811,5.811,0,0,1,6.073,0,2.923,2.923,0,0,1,1.064,2.414v1.869a3.908,3.908,0,0,0,1.142,2.621,11.62,11.62,0,0,0,2.985,2.31,26.262,26.262,0,0,0,4.1,1.843,35.225,35.225,0,0,0,4.438,1.272,3.253,3.253,0,0,1,2.076,1.35,3.041,3.041,0,0,1,.415,2.6,2.593,2.593,0,0,1-1.557,1.973,5.657,5.657,0,0,1-2.8.26,20.317,20.317,0,0,1-4.127-.882,34.878,34.878,0,0,1-4.1-1.609,26.446,26.446,0,0,1-3.711-2.1,23.02,23.02,0,0,1-2.959-2.361" transform="translate(-87.573 -9.214)"/>
    <path id="패스_587" data-name="패스 587" d="M269.991,19.938a4.816,4.816,0,0,1-2.777-.7,2.788,2.788,0,0,1-1.012-2.466,2.79,2.79,0,0,1,1.012-2.466,4.816,4.816,0,0,1,2.777-.7h7.527V11.581a3.32,3.32,0,0,1,1.064-2.673,4.86,4.86,0,0,1,5.658,0,3.323,3.323,0,0,1,1.064,2.673v2.025h7.007a4.816,4.816,0,0,1,2.777.7,2.789,2.789,0,0,1,1.012,2.466,2.788,2.788,0,0,1-1.012,2.466,4.816,4.816,0,0,1-2.777.7Zm-1.246,10.64a8.294,8.294,0,0,1,.96-4.074,7.968,7.968,0,0,1,2.674-2.855,13.053,13.053,0,0,1,4.022-1.687,22.263,22.263,0,0,1,10.018,0,13.067,13.067,0,0,1,4.023,1.687,7.976,7.976,0,0,1,2.673,2.855,8.3,8.3,0,0,1,.96,4.074,8.3,8.3,0,0,1-.96,4.075,7.968,7.968,0,0,1-2.673,2.855,13.031,13.031,0,0,1-4.023,1.687,22.264,22.264,0,0,1-10.018,0,13.017,13.017,0,0,1-4.022-1.687,7.96,7.96,0,0,1-2.674-2.855,8.292,8.292,0,0,1-.96-4.075m13.547,19.1a.684.684,0,0,0,.882.882h21.593a3.628,3.628,0,0,1,2.6.882,3.93,3.93,0,0,1,0,5.087,3.631,3.631,0,0,1-2.6.882H278.556a5.077,5.077,0,0,1-3.607-1.038,4.809,4.809,0,0,1-1.064-3.53v-6.9a3.687,3.687,0,0,1,1.168-2.907,4.961,4.961,0,0,1,6.073,0,3.687,3.687,0,0,1,1.168,2.907Zm3.841-19.1a2.562,2.562,0,0,0-.415-1.453,3.321,3.321,0,0,0-1.064-1.012,4.882,4.882,0,0,0-1.505-.571,8.413,8.413,0,0,0-3.478,0,4.873,4.873,0,0,0-1.506.571,3.308,3.308,0,0,0-1.064,1.012,2.752,2.752,0,0,0,0,2.907,3.3,3.3,0,0,0,1.064,1.012,4.854,4.854,0,0,0,1.506.571,8.413,8.413,0,0,0,3.478,0,4.863,4.863,0,0,0,1.505-.571,3.318,3.318,0,0,0,1.064-1.012,2.56,2.56,0,0,0,.415-1.454M298.7,13.554a3.39,3.39,0,0,1,1.168-2.777,5.117,5.117,0,0,1,5.969,0A3.389,3.389,0,0,1,307,13.554v9.758h3.582a4.2,4.2,0,0,1,2.7.831,3.125,3.125,0,0,1,1.038,2.6,3.123,3.123,0,0,1-1.038,2.6,4.188,4.188,0,0,1-2.7.831H307V40.856a3.464,3.464,0,0,1-1.168,2.8,5.01,5.01,0,0,1-5.969,0,3.466,3.466,0,0,1-1.168-2.8Z" transform="translate(-167.92 -5.046)"/>
    <path id="패스_588" data-name="패스 588" d="M428.018,18.681a3.32,3.32,0,0,1,1.064-2.673,4.86,4.86,0,0,1,5.658,0,3.322,3.322,0,0,1,1.064,2.673v7.267h9.188V18.681a3.319,3.319,0,0,1,1.064-2.673,4.859,4.859,0,0,1,5.658,0,3.322,3.322,0,0,1,1.064,2.673V43.6q0,5.138-5.191,5.139H433.209q-5.191,0-5.191-5.139ZM435.8,32.7v8.357a1.242,1.242,0,0,0,.156.753q.156.182.727.182h7.422q.571,0,.727-.182a1.242,1.242,0,0,0,.156-.753V32.7Zm23.2-15.987a3.467,3.467,0,0,1,1.168-2.8,5.008,5.008,0,0,1,5.969,0,3.466,3.466,0,0,1,1.168,2.8V28.076H471a3.924,3.924,0,0,1,2.673.883,3.392,3.392,0,0,1,1.012,2.7A3.323,3.323,0,0,1,473.67,34.3a3.92,3.92,0,0,1-2.673.882h-3.686V57.3a3.467,3.467,0,0,1-1.168,2.8,5.01,5.01,0,0,1-5.969,0,3.467,3.467,0,0,1-1.168-2.8Z" transform="translate(-269.993 -8.149)" fill="#0066c1"/>
    <path id="패스_589" data-name="패스 589" d="M565.562,40.479a.684.684,0,0,0,.882.885h2.18q3.322.053,6.514-.207t5.943-.727a3.9,3.9,0,0,1,2.6.337,2.971,2.971,0,0,1,1.4,2.193,3.252,3.252,0,0,1-.571,2.757,3.747,3.747,0,0,1-2.388,1.365,66.742,66.742,0,0,1-6.878.876q-3.452.257-7.293.257H562.6q-5.243,0-5.243-5.139V20.5q0-5.139,5.243-5.139h15.52a3.479,3.479,0,0,1,2.57.908,3.477,3.477,0,0,1,.908,2.569,3.476,3.476,0,0,1-.908,2.57,3.477,3.477,0,0,1-2.57.908H566.444a1.115,1.115,0,0,0-.727.156,1.122,1.122,0,0,0-.155.728ZM587.83,16.708a3.467,3.467,0,0,1,1.168-2.8,5.008,5.008,0,0,1,5.969,0,3.466,3.466,0,0,1,1.168,2.8V27.972h3.686a3.925,3.925,0,0,1,2.673.882,3.393,3.393,0,0,1,1.012,2.7,3.324,3.324,0,0,1-1.012,2.647,3.92,3.92,0,0,1-2.673.882h-3.686V57.3a3.467,3.467,0,0,1-1.168,2.8,5.01,5.01,0,0,1-5.969,0,3.467,3.467,0,0,1-1.168-2.8Z" transform="translate(-351.583 -8.149)"/>
    <path id="패스_590" data-name="패스 590" d="M713.355,48.766a3.977,3.977,0,0,1-2.751-.883,3.368,3.368,0,0,1-.986-2.647,3.371,3.371,0,0,1,.986-2.647,3.982,3.982,0,0,1,2.751-.882h38.93a3.984,3.984,0,0,1,2.751.882,3.373,3.373,0,0,1,.986,2.647,3.37,3.37,0,0,1-.986,2.647,3.979,3.979,0,0,1-2.751.883H736.972V59.25a3.515,3.515,0,0,1-1.116,2.855,5.4,5.4,0,0,1-6.073,0,3.513,3.513,0,0,1-1.116-2.855V48.766Zm7.474-10.745a5.692,5.692,0,0,1-3.893-1.194,4.738,4.738,0,0,1-1.349-3.737V19.7a3.4,3.4,0,0,1,1.116-2.725,4.8,4.8,0,0,1,5.762,0A3.4,3.4,0,0,1,723.58,19.7v2.128h18.531V19.7a3.4,3.4,0,0,1,1.116-2.725,4.259,4.259,0,0,1,2.881-.96,4.161,4.161,0,0,1,2.855.96,3.439,3.439,0,0,1,1.09,2.725V33.09q0,4.932-5.19,4.931Zm2.751-10.07v3.226a.8.8,0,0,0,.1.513.833.833,0,0,0,.519.1h17.285a.836.836,0,0,0,.519-.1.8.8,0,0,0,.1-.513V27.951Z" transform="translate(-447.627 -10.101)" fill="#0066c1"/>
    <path id="패스_591" data-name="패스 591" d="M852.65,31.243a26.164,26.164,0,0,1-3.867,4.412,21.213,21.213,0,0,1-4.7,3.322A5.019,5.019,0,0,1,841,39.6a3.151,3.151,0,0,1-2.362-1.557,3.353,3.353,0,0,1-.467-2.829,4.742,4.742,0,0,1,1.972-2.518,26.674,26.674,0,0,0,6.125-5.891,11.546,11.546,0,0,0,2.232-6.929V17.125A3.184,3.184,0,0,1,849.64,14.4a5.719,5.719,0,0,1,6.021,0,3.185,3.185,0,0,1,1.142,2.725v2.751a11,11,0,0,0,2.128,6.722,22.31,22.31,0,0,0,6.021,5.373,4.518,4.518,0,0,1,1.973,2.465,3.359,3.359,0,0,1-.467,2.829A3.078,3.078,0,0,1,864.1,38.8a5.383,5.383,0,0,1-3.088-.6,26.755,26.755,0,0,1-4.516-2.933,20.626,20.626,0,0,1-3.841-4.022m-3.114,11.264a4.425,4.425,0,0,1,3.01,1.038,3.648,3.648,0,0,1,1.194,2.907v6.333a.684.684,0,0,0,.882.882h21.853a3.629,3.629,0,0,1,2.6.882,3.93,3.93,0,0,1,0,5.087,3.632,3.632,0,0,1-2.6.882h-26.42a5.181,5.181,0,0,1-3.633-1.038,4.735,4.735,0,0,1-1.09-3.53v-9.5a3.646,3.646,0,0,1,1.194-2.907,4.423,4.423,0,0,1,3.011-1.038m20.607-25.849a3.39,3.39,0,0,1,1.168-2.777,5.117,5.117,0,0,1,5.969,0,3.389,3.389,0,0,1,1.168,2.777V23.82h3.582a4.2,4.2,0,0,1,2.7.83,3.127,3.127,0,0,1,1.038,2.6,3.124,3.124,0,0,1-1.038,2.6,4.19,4.19,0,0,1-2.7.83h-3.582V42.4a3.464,3.464,0,0,1-1.168,2.8,5.01,5.01,0,0,1-5.969,0,3.465,3.465,0,0,1-1.168-2.8Z" transform="translate(-528.632 -8.15)"/>
  </g>
</svg>
